<svg width="12" height="9" viewBox="0 0 12 9" fill="none" xmlns="http://www.w3.org/2000/svg">
<path fill-rule="evenodd" clip-rule="evenodd" d="M4.0384 8.30068C3.91229 8.30068 3.79187 8.25043 3.70274 8.16225L0.68555 5.14411C0.50065 4.95921 0.50065 4.65958 0.68555 4.47373C0.871398 4.28883 1.17103 4.28883 1.35593 4.47373L4.0384 7.1562L9.73711 1.45655C9.92296 1.27165 10.2226 1.27165 10.4075 1.45655C10.5933 1.64239 10.5933 1.94203 10.4075 2.12693L4.37406 8.16225C4.28493 8.25043 4.16451 8.30068 4.0384 8.30068Z" fill="white"/>
<path d="M4.0384 8.30068C3.91229 8.30068 3.79187 8.25043 3.70274 8.16225L0.68555 5.14411C0.50065 4.95921 0.50065 4.65958 0.68555 4.47373C0.871398 4.28883 1.17103 4.28883 1.35593 4.47373L4.0384 7.1562L9.73711 1.45655C9.92296 1.27165 10.2226 1.27165 10.4075 1.45655C10.5933 1.64239 10.5933 1.94203 10.4075 2.12693L4.37406 8.16225C4.28493 8.25043 4.16451 8.30068 4.0384 8.30068" stroke="white"/>
</svg>
