<svg width="24" height="24" viewBox="0 0 24 24" fill="none" xmlns="http://www.w3.org/2000/svg">
<path d="M12 2C6.49 2 2 6.49 2 12C2 17.51 6.49 22 12 22C17.51 22 22 17.51 22 12C22 6.49 17.51 2 12 2ZM12 17C11.52 17 11.12 16.61 11.12 16.12C11.12 15.63 11.51 15.24 12 15.24C12.49 15.24 12.88 15.63 12.88 16.12C12.88 16.61 12.48 17 12 17ZM12.62 13.63C12.62 13.96 12.34 14.25 12 14.25C11.66 14.25 11.38 13.97 11.38 13.63L10.96 8.14C10.94 7.85 11.04 7.56 11.24 7.35C11.43 7.12 11.71 7 12 7C12.29 7 12.57 7.12 12.77 7.34C12.97 7.55 13.07 7.84 13.05 8.13L12.62 13.63Z" fill="#FF7510"/>
</svg>
