<svg width="24" height="24" viewBox="0 0 24 24" fill="none" xmlns="http://www.w3.org/2000/svg">
<path fill-rule="evenodd" clip-rule="evenodd" d="M12 2C6.48 2 2 6.48 2 12C2 17.52 6.48 22 12 22C17.52 22 22 17.52 22 12C22 6.48 17.52 2 12 2ZM12 17C11.72 17 11.5 16.78 11.5 16.5V10.5C11.5 10.22 11.72 10 12 10C12.28 10 12.5 10.22 12.5 10.5V16.5C12.5 16.78 12.28 17 12 17ZM11.45 7.55C11.45 7.25 11.7 7 12 7C12.3 7 12.55 7.25 12.55 7.55C12.55 7.85 12.3 8.1 12 8.1C11.7 8.1 11.45 7.85 11.45 7.55Z" fill="#007CBF"/>
</svg>
