<svg width="158" height="105" viewBox="0 0 158 105" fill="none" xmlns="http://www.w3.org/2000/svg">
<path d="M147.395 0.677734H11.1321C5.44732 0.677734 0.838867 5.32649 0.838866 11.061L0.838856 89.183C0.838855 94.9175 5.44731 99.5663 11.1321 99.5663H147.395C153.08 99.5663 157.689 94.9175 157.689 89.183L157.689 11.061C157.689 5.32649 153.08 0.677734 147.395 0.677734Z" fill="white"/>
<path d="M147.536 0.677734H11.142C5.45173 0.677734 0.838867 5.58193 0.838866 11.6316L0.838855 94.0461C0.838854 100.096 5.45172 105 11.142 105H147.536C153.226 105 157.839 100.096 157.839 94.0461L157.839 11.6316C157.839 5.58193 153.226 0.677734 147.536 0.677734Z" fill="#003E60"/>
<path d="M38.9425 43.402H19.8355C18.9948 43.402 18.2305 42.7142 18.2305 41.797V28.8042C18.2305 27.9635 18.9183 27.1992 19.8355 27.1992H38.9425C39.7832 27.1992 40.5475 27.8871 40.5475 28.8042V41.797C40.5475 42.6377 39.8597 43.402 38.9425 43.402Z" fill="#F0E150"/>
<path d="M34.4208 30.7916H40.7643V30.4859H35.1851V27.123H34.8793V30.4859H34.4972C33.5036 30.4859 32.6629 31.1737 32.6629 32.0909V32.7023H26.7015V32.0144C26.7015 31.1737 25.8608 30.4095 24.8672 30.4095H24.4851V27.1995H24.1794V30.4095H18.4473V30.7152H24.7908C25.6315 30.7152 26.4382 31.3266 26.4382 32.0144V35.2244H18.4473V35.5302H26.4382V38.7401C26.4382 39.428 25.5551 40.0394 24.7144 40.0394H18.4473V40.3451H24.0265V43.5551H24.3322V40.3451H24.7144C25.7079 40.3451 26.7015 39.6573 26.7015 38.7401V38.1287H32.6629V38.8166C32.6629 39.6573 33.3508 40.4216 34.3443 40.4216H34.7265V43.5551H35.0322V40.4216H40.6115V40.1158H34.8558C33.746 40.1158 33.0054 39.7931 32.9686 38.8166V35.6066H40.535V35.3009H32.9686V32.0909C32.9686 31.3266 33.5801 30.7916 34.4208 30.7916ZM32.6629 37.7466H26.7015V33.0868H32.6629V37.7466Z" fill="#1D1D1D"/>
<path d="M20.5845 57.9958C20.133 57.9958 19.7299 57.883 19.3752 57.6572C19.0205 57.4261 18.741 57.0929 18.5368 56.6576C18.3326 56.2169 18.2305 55.6956 18.2305 55.0936C18.2305 54.4917 18.3326 53.973 18.5368 53.5377C18.741 53.097 19.0205 52.7638 19.3752 52.5381C19.7299 52.307 20.133 52.1914 20.5845 52.1914C21.0359 52.1914 21.439 52.307 21.7937 52.5381C22.1538 52.7638 22.436 53.097 22.6402 53.5377C22.8444 53.973 22.9466 54.4917 22.9466 55.0936C22.9466 55.6956 22.8444 56.2169 22.6402 56.6576C22.436 57.0929 22.1538 57.4261 21.7937 57.6572C21.439 57.883 21.0359 57.9958 20.5845 57.9958ZM20.5845 57.0849C20.9876 57.0849 21.3047 56.9182 21.5358 56.585C21.7722 56.2518 21.8905 55.7547 21.8905 55.0936C21.8905 54.4326 21.7722 53.9354 21.5358 53.6022C21.3047 53.269 20.9876 53.1024 20.5845 53.1024C20.1868 53.1024 19.8697 53.269 19.6332 53.6022C19.4021 53.9354 19.2866 54.4326 19.2866 55.0936C19.2866 55.7547 19.4021 56.2518 19.6332 56.585C19.8697 56.9182 20.1868 57.0849 20.5845 57.0849Z" fill="white"/>
<path d="M26.3984 57.9958C25.947 57.9958 25.5439 57.883 25.1892 57.6572C24.8345 57.4261 24.555 57.0929 24.3508 56.6576C24.1465 56.2169 24.0444 55.6956 24.0444 55.0936C24.0444 54.4917 24.1465 53.973 24.3508 53.5377C24.555 53.097 24.8345 52.7638 25.1892 52.5381C25.5439 52.307 25.947 52.1914 26.3984 52.1914C26.8499 52.1914 27.253 52.307 27.6077 52.5381C27.9678 52.7638 28.2499 53.097 28.4542 53.5377C28.6584 53.973 28.7605 54.4917 28.7605 55.0936C28.7605 55.6956 28.6584 56.2169 28.4542 56.6576C28.2499 57.0929 27.9678 57.4261 27.6077 57.6572C27.253 57.883 26.8499 57.9958 26.3984 57.9958ZM26.3984 57.0849C26.8015 57.0849 27.1186 56.9182 27.3497 56.585C27.5862 56.2518 27.7044 55.7547 27.7044 55.0936C27.7044 54.4326 27.5862 53.9354 27.3497 53.6022C27.1186 53.269 26.8015 53.1024 26.3984 53.1024C26.0007 53.1024 25.6836 53.269 25.4472 53.6022C25.2161 53.9354 25.1005 54.4326 25.1005 55.0936C25.1005 55.7547 25.2161 56.2518 25.4472 56.585C25.6836 56.9182 26.0007 57.0849 26.3984 57.0849Z" fill="white"/>
<path d="M32.2124 57.9958C31.761 57.9958 31.3579 57.883 31.0032 57.6572C30.6484 57.4261 30.369 57.0929 30.1647 56.6576C29.9605 56.2169 29.8584 55.6956 29.8584 55.0936C29.8584 54.4917 29.9605 53.973 30.1647 53.5377C30.369 53.097 30.6484 52.7638 31.0032 52.5381C31.3579 52.307 31.761 52.1914 32.2124 52.1914C32.6639 52.1914 33.067 52.307 33.4217 52.5381C33.7818 52.7638 34.0639 53.097 34.2681 53.5377C34.4724 53.973 34.5745 54.4917 34.5745 55.0936C34.5745 55.6956 34.4724 56.2169 34.2681 56.6576C34.0639 57.0929 33.7818 57.4261 33.4217 57.6572C33.067 57.883 32.6639 57.9958 32.2124 57.9958ZM32.2124 57.0849C32.6155 57.0849 32.9326 56.9182 33.1637 56.585C33.4002 56.2518 33.5184 55.7547 33.5184 55.0936C33.5184 54.4326 33.4002 53.9354 33.1637 53.6022C32.9326 53.269 32.6155 53.1024 32.2124 53.1024C31.8147 53.1024 31.4976 53.269 31.2611 53.6022C31.03 53.9354 30.9145 54.4326 30.9145 55.0936C30.9145 55.7547 31.03 56.2518 31.2611 56.585C31.4976 56.9182 31.8147 57.0849 32.2124 57.0849Z" fill="white"/>
<path d="M38.0264 57.9958C37.5749 57.9958 37.1718 57.883 36.8171 57.6572C36.4624 57.4261 36.1829 57.0929 35.9787 56.6576C35.7745 56.2169 35.6724 55.6956 35.6724 55.0936C35.6724 54.4917 35.7745 53.973 35.9787 53.5377C36.1829 53.097 36.4624 52.7638 36.8171 52.5381C37.1718 52.307 37.5749 52.1914 38.0264 52.1914C38.4778 52.1914 38.8809 52.307 39.2356 52.5381C39.5957 52.7638 39.8779 53.097 40.0821 53.5377C40.2863 53.973 40.3885 54.4917 40.3885 55.0936C40.3885 55.6956 40.2863 56.2169 40.0821 56.6576C39.8779 57.0929 39.5957 57.4261 39.2356 57.6572C38.8809 57.883 38.4778 57.9958 38.0264 57.9958ZM38.0264 57.0849C38.4295 57.0849 38.7466 56.9182 38.9777 56.585C39.2141 56.2518 39.3324 55.7547 39.3324 55.0936C39.3324 54.4326 39.2141 53.9354 38.9777 53.6022C38.7466 53.269 38.4295 53.1024 38.0264 53.1024C37.6287 53.1024 37.3116 53.269 37.0751 53.6022C36.844 53.9354 36.7284 54.4326 36.7284 55.0936C36.7284 55.7547 36.844 56.2518 37.0751 56.585C37.3116 56.9182 37.6287 57.0849 38.0264 57.0849Z" fill="white"/>
<path d="M47.134 57.9958C46.6826 57.9958 46.2795 57.883 45.9248 57.6572C45.5701 57.4261 45.2906 57.0929 45.0864 56.6576C44.8821 56.2169 44.78 55.6956 44.78 55.0936C44.78 54.4917 44.8821 53.973 45.0864 53.5377C45.2906 53.097 45.5701 52.7638 45.9248 52.5381C46.2795 52.307 46.6826 52.1914 47.134 52.1914C47.5855 52.1914 47.9886 52.307 48.3433 52.5381C48.7034 52.7638 48.9855 53.097 49.1898 53.5377C49.394 53.973 49.4961 54.4917 49.4961 55.0936C49.4961 55.6956 49.394 56.2169 49.1898 56.6576C48.9855 57.0929 48.7034 57.4261 48.3433 57.6572C47.9886 57.883 47.5855 57.9958 47.134 57.9958ZM47.134 57.0849C47.5371 57.0849 47.8542 56.9182 48.0853 56.585C48.3218 56.2518 48.44 55.7547 48.44 55.0936C48.44 54.4326 48.3218 53.9354 48.0853 53.6022C47.8542 53.269 47.5371 53.1024 47.134 53.1024C46.7363 53.1024 46.4192 53.269 46.1828 53.6022C45.9517 53.9354 45.8361 54.4326 45.8361 55.0936C45.8361 55.7547 45.9517 56.2518 46.1828 56.585C46.4192 56.9182 46.7363 57.0849 47.134 57.0849Z" fill="white"/>
<path d="M52.9483 57.9958C52.4968 57.9958 52.0937 57.883 51.739 57.6572C51.3843 57.4261 51.1048 57.0929 50.9006 56.6576C50.6964 56.2169 50.5942 55.6956 50.5942 55.0936C50.5942 54.4917 50.6964 53.973 50.9006 53.5377C51.1048 53.097 51.3843 52.7638 51.739 52.5381C52.0937 52.307 52.4968 52.1914 52.9483 52.1914C53.3997 52.1914 53.8028 52.307 54.1575 52.5381C54.5176 52.7638 54.7998 53.097 55.004 53.5377C55.2082 53.973 55.3103 54.4917 55.3103 55.0936C55.3103 55.6956 55.2082 56.2169 55.004 56.6576C54.7998 57.0929 54.5176 57.4261 54.1575 57.6572C53.8028 57.883 53.3997 57.9958 52.9483 57.9958ZM52.9483 57.0849C53.3513 57.0849 53.6684 56.9182 53.8995 56.585C54.136 56.2518 54.2542 55.7547 54.2542 55.0936C54.2542 54.4326 54.136 53.9354 53.8995 53.6022C53.6684 53.269 53.3513 53.1024 52.9483 53.1024C52.5505 53.1024 52.2334 53.269 51.997 53.6022C51.7659 53.9354 51.6503 54.4326 51.6503 55.0936C51.6503 55.7547 51.7659 56.2518 51.997 56.585C52.2334 56.9182 52.5505 57.0849 52.9483 57.0849Z" fill="white"/>
<path d="M58.762 57.9958C58.3105 57.9958 57.9074 57.883 57.5527 57.6572C57.198 57.4261 56.9185 57.0929 56.7143 56.6576C56.5101 56.2169 56.408 55.6956 56.408 55.0936C56.408 54.4917 56.5101 53.973 56.7143 53.5377C56.9185 53.097 57.198 52.7638 57.5527 52.5381C57.9074 52.307 58.3105 52.1914 58.762 52.1914C59.2134 52.1914 59.6165 52.307 59.9712 52.5381C60.3313 52.7638 60.6135 53.097 60.8177 53.5377C61.0219 53.973 61.124 54.4917 61.124 55.0936C61.124 55.6956 61.0219 56.2169 60.8177 56.6576C60.6135 57.0929 60.3313 57.4261 59.9712 57.6572C59.6165 57.883 59.2134 57.9958 58.762 57.9958ZM58.762 57.0849C59.1651 57.0849 59.4822 56.9182 59.7133 56.585C59.9497 56.2518 60.068 55.7547 60.068 55.0936C60.068 54.4326 59.9497 53.9354 59.7133 53.6022C59.4822 53.269 59.1651 53.1024 58.762 53.1024C58.3643 53.1024 58.0472 53.269 57.8107 53.6022C57.5796 53.9354 57.464 54.4326 57.464 55.0936C57.464 55.7547 57.5796 56.2518 57.8107 56.585C58.0472 56.9182 58.3643 57.0849 58.762 57.0849Z" fill="white"/>
<path d="M64.5762 57.9958C64.1247 57.9958 63.7216 57.883 63.3669 57.6572C63.0122 57.4261 62.7327 57.0929 62.5285 56.6576C62.3243 56.2169 62.2222 55.6956 62.2222 55.0936C62.2222 54.4917 62.3243 53.973 62.5285 53.5377C62.7327 53.097 63.0122 52.7638 63.3669 52.5381C63.7216 52.307 64.1247 52.1914 64.5762 52.1914C65.0276 52.1914 65.4307 52.307 65.7854 52.5381C66.1455 52.7638 66.4277 53.097 66.6319 53.5377C66.8361 53.973 66.9383 54.4917 66.9383 55.0936C66.9383 55.6956 66.8361 56.2169 66.6319 56.6576C66.4277 57.0929 66.1455 57.4261 65.7854 57.6572C65.4307 57.883 65.0276 57.9958 64.5762 57.9958ZM64.5762 57.0849C64.9793 57.0849 65.2964 56.9182 65.5275 56.585C65.7639 56.2518 65.8822 55.7547 65.8822 55.0936C65.8822 54.4326 65.7639 53.9354 65.5275 53.6022C65.2964 53.269 64.9793 53.1024 64.5762 53.1024C64.1785 53.1024 63.8614 53.269 63.6249 53.6022C63.3938 53.9354 63.2782 54.4326 63.2782 55.0936C63.2782 55.7547 63.3938 56.2518 63.6249 56.585C63.8614 56.9182 64.1785 57.0849 64.5762 57.0849Z" fill="white"/>
<path d="M103.75 43.5547H73.6066C72.349 43.5547 71.3296 44.5831 71.3296 45.8516L71.3296 63.1332C71.3296 64.4018 72.349 65.4302 73.6066 65.4302H103.75C105.007 65.4302 106.027 64.4018 106.027 63.1332L106.027 45.8516C106.027 44.5831 105.007 43.5547 103.75 43.5547Z" fill="white"/>
<path d="M103.781 43.5547H73.6088C72.35 43.5547 71.3296 44.6396 71.3296 45.9778L71.3296 64.209C71.3296 65.5473 72.35 66.6322 73.6088 66.6322H103.781C105.04 66.6322 106.06 65.5473 106.06 64.209L106.06 45.9778C106.06 44.6396 105.04 43.5547 103.781 43.5547Z" fill="#007CBF"/>
<path d="M80.271 58.1423C79.8196 58.1423 79.4165 58.0294 79.0618 57.8037C78.707 57.5726 78.4276 57.2394 78.2233 56.8041C78.0191 56.3634 77.917 55.842 77.917 55.2401C77.917 54.6382 78.0191 54.1195 78.2233 53.6842C78.4276 53.2435 78.707 52.9103 79.0618 52.6845C79.4165 52.4534 79.8196 52.3379 80.271 52.3379C80.7225 52.3379 81.1255 52.4534 81.4803 52.6845C81.8403 52.9103 82.1225 53.2435 82.3267 53.6842C82.531 54.1195 82.6331 54.6382 82.6331 55.2401C82.6331 55.842 82.531 56.3634 82.3267 56.8041C82.1225 57.2394 81.8403 57.5726 81.4803 57.8037C81.1255 58.0294 80.7225 58.1423 80.271 58.1423ZM80.271 57.2313C80.6741 57.2313 80.9912 57.0647 81.2223 56.7315C81.4588 56.3983 81.577 55.9012 81.577 55.2401C81.577 54.579 81.4588 54.0819 81.2223 53.7487C80.9912 53.4155 80.6741 53.2489 80.271 53.2489C79.8733 53.2489 79.5562 53.4155 79.3197 53.7487C79.0886 54.0819 78.9731 54.579 78.9731 55.2401C78.9731 55.9012 79.0886 56.3983 79.3197 56.7315C79.5562 57.0647 79.8733 57.2313 80.271 57.2313Z" fill="white"/>
<path d="M86.0852 58.1423C85.6338 58.1423 85.2307 58.0294 84.876 57.8037C84.5212 57.5726 84.2418 57.2394 84.0375 56.8041C83.8333 56.3634 83.7312 55.842 83.7312 55.2401C83.7312 54.6382 83.8333 54.1195 84.0375 53.6842C84.2418 53.2435 84.5212 52.9103 84.876 52.6845C85.2307 52.4534 85.6338 52.3379 86.0852 52.3379C86.5367 52.3379 86.9398 52.4534 87.2945 52.6845C87.6546 52.9103 87.9367 53.2435 88.1409 53.6842C88.3452 54.1195 88.4473 54.6382 88.4473 55.2401C88.4473 55.842 88.3452 56.3634 88.1409 56.8041C87.9367 57.2394 87.6546 57.5726 87.2945 57.8037C86.9398 58.0294 86.5367 58.1423 86.0852 58.1423ZM86.0852 57.2313C86.4883 57.2313 86.8054 57.0647 87.0365 56.7315C87.273 56.3983 87.3912 55.9012 87.3912 55.2401C87.3912 54.579 87.273 54.0819 87.0365 53.7487C86.8054 53.4155 86.4883 53.2489 86.0852 53.2489C85.6875 53.2489 85.3704 53.4155 85.1339 53.7487C84.9028 54.0819 84.7873 54.579 84.7873 55.2401C84.7873 55.9012 84.9028 56.3983 85.1339 56.7315C85.3704 57.0647 85.6875 57.2313 86.0852 57.2313Z" fill="white"/>
<path d="M91.8989 58.1423C91.4475 58.1423 91.0444 58.0294 90.6897 57.8037C90.335 57.5726 90.0555 57.2394 89.8513 56.8041C89.647 56.3634 89.5449 55.842 89.5449 55.2401C89.5449 54.6382 89.647 54.1195 89.8513 53.6842C90.0555 53.2435 90.335 52.9103 90.6897 52.6845C91.0444 52.4534 91.4475 52.3379 91.8989 52.3379C92.3504 52.3379 92.7535 52.4534 93.1082 52.6845C93.4683 52.9103 93.7504 53.2435 93.9547 53.6842C94.1589 54.1195 94.261 54.6382 94.261 55.2401C94.261 55.842 94.1589 56.3634 93.9547 56.8041C93.7504 57.2394 93.4683 57.5726 93.1082 57.8037C92.7535 58.0294 92.3504 58.1423 91.8989 58.1423ZM91.8989 57.2313C92.302 57.2313 92.6191 57.0647 92.8502 56.7315C93.0867 56.3983 93.2049 55.9012 93.2049 55.2401C93.2049 54.579 93.0867 54.0819 92.8502 53.7487C92.6191 53.4155 92.302 53.2489 91.8989 53.2489C91.5012 53.2489 91.1841 53.4155 90.9477 53.7487C90.7166 54.0819 90.601 54.579 90.601 55.2401C90.601 55.9012 90.7166 56.3983 90.9477 56.7315C91.1841 57.0647 91.5012 57.2313 91.8989 57.2313Z" fill="white"/>
<path d="M97.7131 58.1423C97.2617 58.1423 96.8586 58.0294 96.5039 57.8037C96.1492 57.5726 95.8697 57.2394 95.6655 56.8041C95.4612 56.3634 95.3591 55.842 95.3591 55.2401C95.3591 54.6382 95.4612 54.1195 95.6655 53.6842C95.8697 53.2435 96.1492 52.9103 96.5039 52.6845C96.8586 52.4534 97.2617 52.3379 97.7131 52.3379C98.1646 52.3379 98.5677 52.4534 98.9224 52.6845C99.2825 52.9103 99.5646 53.2435 99.7689 53.6842C99.9731 54.1195 100.075 54.6382 100.075 55.2401C100.075 55.842 99.9731 56.3634 99.7689 56.8041C99.5646 57.2394 99.2825 57.5726 98.9224 57.8037C98.5677 58.0294 98.1646 58.1423 97.7131 58.1423ZM97.7131 57.2313C98.1162 57.2313 98.4333 57.0647 98.6644 56.7315C98.9009 56.3983 99.0191 55.9012 99.0191 55.2401C99.0191 54.579 98.9009 54.0819 98.6644 53.7487C98.4333 53.4155 98.1162 53.2489 97.7131 53.2489C97.3154 53.2489 96.9983 53.4155 96.7619 53.7487C96.5308 54.0819 96.4152 54.579 96.4152 55.2401C96.4152 55.9012 96.5308 56.3983 96.7619 56.7315C96.9983 57.0647 97.3154 57.2313 97.7131 57.2313Z" fill="white"/>
<path d="M112.806 57.9958C112.354 57.9958 111.951 57.883 111.597 57.6572C111.242 57.4261 110.962 57.0929 110.758 56.6576C110.554 56.2169 110.452 55.6956 110.452 55.0936C110.452 54.4917 110.554 53.973 110.758 53.5377C110.962 53.097 111.242 52.7638 111.597 52.5381C111.951 52.307 112.354 52.1914 112.806 52.1914C113.257 52.1914 113.66 52.307 114.015 52.5381C114.375 52.7638 114.657 53.097 114.862 53.5377C115.066 53.973 115.168 54.4917 115.168 55.0936C115.168 55.6956 115.066 56.2169 114.862 56.6576C114.657 57.0929 114.375 57.4261 114.015 57.6572C113.66 57.883 113.257 57.9958 112.806 57.9958ZM112.806 57.0849C113.209 57.0849 113.526 56.9182 113.757 56.585C113.994 56.2518 114.112 55.7547 114.112 55.0936C114.112 54.4326 113.994 53.9354 113.757 53.6022C113.526 53.269 113.209 53.1024 112.806 53.1024C112.408 53.1024 112.091 53.269 111.855 53.6022C111.624 53.9354 111.508 54.4326 111.508 55.0936C111.508 55.7547 111.624 56.2518 111.855 56.585C112.091 56.9182 112.408 57.0849 112.806 57.0849Z" fill="white"/>
<path d="M118.62 57.9958C118.169 57.9958 117.766 57.883 117.411 57.6572C117.056 57.4261 116.777 57.0929 116.572 56.6576C116.368 56.2169 116.266 55.6956 116.266 55.0936C116.266 54.4917 116.368 53.973 116.572 53.5377C116.777 53.097 117.056 52.7638 117.411 52.5381C117.766 52.307 118.169 52.1914 118.62 52.1914C119.072 52.1914 119.475 52.307 119.829 52.5381C120.189 52.7638 120.472 53.097 120.676 53.5377C120.88 53.973 120.982 54.4917 120.982 55.0936C120.982 55.6956 120.88 56.2169 120.676 56.6576C120.472 57.0929 120.189 57.4261 119.829 57.6572C119.475 57.883 119.072 57.9958 118.62 57.9958ZM118.62 57.0849C119.023 57.0849 119.34 56.9182 119.571 56.585C119.808 56.2518 119.926 55.7547 119.926 55.0936C119.926 54.4326 119.808 53.9354 119.571 53.6022C119.34 53.269 119.023 53.1024 118.62 53.1024C118.222 53.1024 117.905 53.269 117.669 53.6022C117.438 53.9354 117.322 54.4326 117.322 55.0936C117.322 55.7547 117.438 56.2518 117.669 56.585C117.905 56.9182 118.222 57.0849 118.62 57.0849Z" fill="white"/>
<path d="M124.434 57.9958C123.982 57.9958 123.579 57.883 123.225 57.6572C122.87 57.4261 122.59 57.0929 122.386 56.6576C122.182 56.2169 122.08 55.6956 122.08 55.0936C122.08 54.4917 122.182 53.973 122.386 53.5377C122.59 53.097 122.87 52.7638 123.225 52.5381C123.579 52.307 123.982 52.1914 124.434 52.1914C124.885 52.1914 125.288 52.307 125.643 52.5381C126.003 52.7638 126.285 53.097 126.49 53.5377C126.694 53.973 126.796 54.4917 126.796 55.0936C126.796 55.6956 126.694 56.2169 126.49 56.6576C126.285 57.0929 126.003 57.4261 125.643 57.6572C125.288 57.883 124.885 57.9958 124.434 57.9958ZM124.434 57.0849C124.837 57.0849 125.154 56.9182 125.385 56.585C125.622 56.2518 125.74 55.7547 125.74 55.0936C125.74 54.4326 125.622 53.9354 125.385 53.6022C125.154 53.269 124.837 53.1024 124.434 53.1024C124.036 53.1024 123.719 53.269 123.483 53.6022C123.251 53.9354 123.136 54.4326 123.136 55.0936C123.136 55.7547 123.251 56.2518 123.483 56.585C123.719 56.9182 124.036 57.0849 124.434 57.0849Z" fill="white"/>
<path d="M130.248 57.9958C129.797 57.9958 129.394 57.883 129.039 57.6572C128.684 57.4261 128.405 57.0929 128.2 56.6576C127.996 56.2169 127.894 55.6956 127.894 55.0936C127.894 54.4917 127.996 53.973 128.2 53.5377C128.405 53.097 128.684 52.7638 129.039 52.5381C129.394 52.307 129.797 52.1914 130.248 52.1914C130.7 52.1914 131.103 52.307 131.457 52.5381C131.817 52.7638 132.1 53.097 132.304 53.5377C132.508 53.973 132.61 54.4917 132.61 55.0936C132.61 55.6956 132.508 56.2169 132.304 56.6576C132.1 57.0929 131.817 57.4261 131.457 57.6572C131.103 57.883 130.7 57.9958 130.248 57.9958ZM130.248 57.0849C130.651 57.0849 130.968 56.9182 131.199 56.585C131.436 56.2518 131.554 55.7547 131.554 55.0936C131.554 54.4326 131.436 53.9354 131.199 53.6022C130.968 53.269 130.651 53.1024 130.248 53.1024C129.85 53.1024 129.533 53.269 129.297 53.6022C129.066 53.9354 128.95 54.4326 128.95 55.0936C128.95 55.7547 129.066 56.2518 129.297 56.585C129.533 56.9182 129.85 57.0849 130.248 57.0849Z" fill="white"/>
<g clip-path="url(#clip0_16225_3753)">
<path d="M71.4762 11.869L77.115 14.4302H85.7577L86.4744 13.1918C86.5802 13.0332 86.641 12.8489 86.6503 12.6585C86.6597 12.4681 86.6172 12.2787 86.5274 12.1105C86.4377 11.9423 86.304 11.8017 86.1406 11.7034C85.9772 11.6052 85.7902 11.5532 85.5996 11.5528H71.5394C71.5007 11.5515 71.4627 11.5639 71.4323 11.5879C71.4019 11.612 71.381 11.6461 71.3734 11.6841C71.3658 11.7221 71.372 11.7615 71.3908 11.7954C71.4096 11.8293 71.4399 11.8554 71.4762 11.869ZM71.8714 23.0255L79.2493 22.8885C79.7338 22.8746 80.2076 22.7431 80.6299 22.5053C81.0523 22.2675 81.4104 21.9306 81.6735 21.5235L82.7854 19.6L71.5025 22.6566C71.5884 22.6853 71.6663 22.7336 71.7304 22.7976C71.7944 22.8616 71.8427 22.9396 71.8714 23.0255ZM91.191 15.5316H77.1203L65.674 22.7989C65.6456 22.8224 65.6261 22.8549 65.6185 22.891C65.6109 22.927 65.6158 22.9646 65.6322 22.9976C65.6487 23.0306 65.6759 23.057 65.7093 23.0726C65.7427 23.0882 65.7804 23.092 65.8163 23.0834L91.2806 16.1588C91.3526 16.1354 91.4141 16.0874 91.4542 16.0231C91.4943 15.9588 91.5104 15.8825 91.4997 15.8075C91.4889 15.7325 91.4521 15.6637 91.3956 15.6133C91.3392 15.5628 91.2667 15.5339 91.191 15.5316Z" fill="#39A8E5"/>
<path d="M77.4255 23.3257L79.4228 25.539H80.0341V22.3771H79.3859V24.543L77.4255 22.3771H76.7773V25.539H77.4255V23.3257ZM85.499 21.3389H87.3856L87.7545 20.7329H85.9364V18.2086H85.2671V21.1334C85.2656 21.164 85.2705 21.1946 85.2817 21.2232C85.2928 21.2517 85.31 21.2776 85.3319 21.299C85.3538 21.3205 85.3801 21.337 85.4089 21.3475C85.4377 21.358 85.4684 21.3623 85.499 21.36V21.3389ZM70.1424 26.593C69.763 26.593 69.3361 26.593 69.0041 26.593V29.755H69.6681V28.8275H70.1951C71.2017 28.8275 71.9342 28.5798 71.9342 27.6944C71.9342 26.9039 71.3071 26.593 70.1424 26.593ZM71.1068 28.0317C70.8201 28.2076 70.4798 28.2749 70.1477 28.2214H69.6681V27.2096H70.1477C70.6747 27.2096 70.9435 27.2096 71.1279 27.4151C71.1955 27.4925 71.2329 27.5917 71.2333 27.6944C71.2361 27.7563 71.2263 27.818 71.2046 27.876C71.1828 27.934 71.1496 27.9869 71.1068 28.0317ZM86.69 25.6234C87.6017 25.6234 88.271 25.1491 88.271 24.1952V22.414H87.5964V24.1425C87.6059 24.2642 87.59 24.3864 87.5499 24.5017C87.5098 24.6169 87.4463 24.7226 87.3635 24.8122C87.2806 24.9017 87.1801 24.9732 87.0683 25.022C86.9564 25.0709 86.8357 25.0961 86.7137 25.0961C86.5917 25.0961 86.471 25.0709 86.3592 25.022C86.2474 24.9732 86.1469 24.9017 86.064 24.8122C85.9811 24.7226 85.9176 24.6169 85.8775 24.5017C85.8375 24.3864 85.8216 24.2642 85.831 24.1425V22.414H85.1617V24.1952C85.1617 25.1491 85.7994 25.6234 86.69 25.6234ZM82.5637 25.5601C82.9528 25.5626 83.3347 25.4548 83.6651 25.2492L83.7863 25.4073C83.8372 25.4643 83.9012 25.5081 83.9729 25.5347C84.0445 25.5613 84.1216 25.5701 84.1973 25.5601H84.7243L84.1078 24.8487C84.3297 24.6053 84.4519 24.2874 84.4503 23.9581C84.4503 23.0622 83.7125 22.3507 82.5479 22.3507C81.3832 22.3507 80.6823 23.0622 80.6823 23.9581C80.6823 24.8539 81.4201 25.5601 82.5847 25.5601H82.5637ZM82.5637 22.9251C82.7123 22.8966 82.8655 22.9012 83.0121 22.9387C83.1588 22.9763 83.2953 23.0457 83.412 23.1421C83.5287 23.2385 83.6227 23.3596 83.6872 23.4965C83.7517 23.6335 83.7851 23.783 83.7851 23.9343C83.7851 24.0857 83.7517 24.2352 83.6872 24.3722C83.6227 24.5091 83.5287 24.6301 83.412 24.7266C83.2953 24.823 83.1588 24.8924 83.0121 24.9299C82.8655 24.9674 82.7123 24.9721 82.5637 24.9435C82.415 24.9721 82.2619 24.9674 82.1152 24.9299C81.9686 24.8924 81.832 24.823 81.7153 24.7266C81.5986 24.6301 81.5046 24.5091 81.4401 24.3722C81.3756 24.2352 81.3422 24.0857 81.3422 23.9343C81.3422 23.783 81.3756 23.6335 81.4401 23.4965C81.5046 23.3596 81.5986 23.2385 81.7153 23.1421C81.832 23.0457 81.9686 22.9763 82.1152 22.9387C82.2619 22.9012 82.415 22.8966 82.5637 22.9251ZM73.3518 24.991H75.2859L75.4756 25.3599C75.5705 25.5496 75.6548 25.5601 75.9025 25.5601H76.2977L74.6482 22.3982H74L72.3453 25.5601H73.062L73.3518 24.991ZM74.3162 23.0727L74.9855 24.3796H73.6522L74.3162 23.0727ZM74.1002 26.5509C72.9039 26.5509 72.1924 27.2887 72.1924 28.1898C72.1924 29.091 72.9039 29.8288 74.1002 29.8288C75.2964 29.8288 76.0026 29.0962 76.0026 28.1898C76.0026 27.2834 75.2912 26.5509 74.1002 26.5509ZM74.1002 29.228C73.9487 29.2545 73.7932 29.2476 73.6446 29.2077C73.4961 29.1677 73.3581 29.0958 73.2403 28.9968C73.1226 28.8979 73.0279 28.7744 72.9629 28.635C72.898 28.4956 72.8643 28.3436 72.8643 28.1898C72.8643 28.036 72.898 27.8841 72.9629 27.7446C73.0279 27.6052 73.1226 27.4817 73.2403 27.3828C73.3581 27.2839 73.4961 27.2119 73.6446 27.172C73.7932 27.132 73.9487 27.1251 74.1002 27.1516C74.2517 27.1251 74.4071 27.132 74.5557 27.172C74.7042 27.2119 74.8422 27.2839 74.96 27.3828C75.0777 27.4817 75.1724 27.6052 75.2374 27.7446C75.3023 27.8841 75.336 28.036 75.336 28.1898C75.336 28.3436 75.3023 28.4956 75.2374 28.635C75.1724 28.7744 75.0777 28.8979 74.96 28.9968C74.8422 29.0958 74.7042 29.1677 74.5557 29.2077C74.4071 29.2476 74.2517 29.2545 74.1002 29.228ZM71.4072 23.9475C71.5761 23.9188 71.7293 23.8309 71.8393 23.6996C71.9494 23.5683 72.0092 23.4021 72.008 23.2308C72.008 22.6564 71.5126 22.3982 70.5588 22.3982C70.1003 22.3982 69.4099 22.3982 68.9778 22.4245V25.5865C69.5048 25.5865 70.0318 25.5865 70.5008 25.5865C71.4441 25.5865 72.0818 25.3757 72.0818 24.6906C72.0748 24.5071 72.0033 24.3321 71.8799 24.1961C71.7565 24.0602 71.5891 23.9722 71.4072 23.9475ZM69.6681 22.962H70.68C71.0805 22.962 71.3334 23.0516 71.3334 23.3046C71.3334 23.5575 71.0752 23.684 70.5851 23.684H69.6681V22.962ZM70.6273 25.012H69.6681V24.2532H70.7643C71.1385 24.2532 71.4178 24.3375 71.4178 24.6221C71.4178 24.9066 71.0963 25.012 70.6273 25.012ZM86.8534 26.593H86.163V29.5178C86.1614 29.5485 86.1664 29.5791 86.1776 29.6076C86.1887 29.6362 86.2059 29.6621 86.2278 29.6835C86.2497 29.7049 86.276 29.7215 86.3048 29.732C86.3336 29.7425 86.3643 29.7467 86.3949 29.7444H88.6452V29.1595H86.8534V26.593ZM89.0509 29.5178C89.0485 29.5487 89.0528 29.5797 89.0636 29.6087C89.0745 29.6377 89.0916 29.6639 89.1137 29.6855C89.1359 29.7072 89.1625 29.7236 89.1917 29.7338C89.2209 29.744 89.252 29.7476 89.2828 29.7444H91.844V29.1595H89.736V28.4586H91.6385V27.8525H89.715V27.2254H91.8229V26.6141H89.0299L89.0509 29.5178ZM89.0509 25.3019C89.0493 25.3323 89.0542 25.3627 89.0654 25.3911C89.0766 25.4194 89.0938 25.445 89.1159 25.466C89.1379 25.487 89.1642 25.503 89.1931 25.5129C89.2219 25.5228 89.2525 25.5263 89.2828 25.5232H91.844V24.9541H89.736V24.2584H91.6385V23.6524H89.715V23.02H91.8229V22.414H89.0299L89.0509 25.3019ZM91.1589 21.1176C91.2538 21.3073 91.3381 21.3231 91.5858 21.3231H91.9599L90.3105 18.1611H89.6623L88.0075 21.3231H88.7242L89.0141 20.7487H90.9481L91.1589 21.1176ZM89.325 20.1953L89.989 18.8726L90.6583 20.1953H89.325ZM77.1198 27.4626C77.1198 27.2307 77.4255 27.1147 77.8418 27.1147C78.1432 27.1293 78.4379 27.2084 78.7061 27.3466L79.0433 26.8196C78.6762 26.6315 78.2701 26.5323 77.8576 26.5298C77.0566 26.5298 76.4347 26.9566 76.4347 27.5416C76.4347 28.643 78.5427 28.2583 78.5427 28.8907C78.5427 29.1489 78.1633 29.2438 77.8365 29.2438C77.3879 29.2435 76.9501 29.1055 76.5823 28.8485L76.2397 29.3755C76.7034 29.6598 77.2348 29.8145 77.7786 29.8235C78.5743 29.8235 79.2383 29.4546 79.2383 28.8327C79.2594 27.7208 77.1198 28.0686 77.1198 27.4626ZM82.4741 26.6141H79.3754V27.2254H80.5769V29.7655H81.2462V27.2254H82.4741V26.6141ZM83.5913 26.5825L81.9418 29.7444H82.6322L82.9167 29.1753H84.8561L85.0405 29.5442C85.1354 29.7286 85.225 29.7444 85.4727 29.7444H85.8679L84.2132 26.5825H83.5913ZM83.2224 28.5956L83.8864 27.2728L84.5504 28.5956H83.2224Z" fill="white"/>
</g>
<defs>
<clipPath id="clip0_16225_3753">
<rect width="26.3496" height="26.3496" fill="white" transform="translate(65.615 7.36035)"/>
</clipPath>
</defs>
</svg>
