<svg width="106" height="157" viewBox="0 0 106 157" fill="none" xmlns="http://www.w3.org/2000/svg">
<path d="M0.838867 10.4435L0.838867 146.707C0.838867 152.392 5.48763 157 11.2222 157L89.3441 157C95.0786 157 99.7274 152.392 99.7274 146.707L99.7274 10.4435C99.7274 4.75865 95.0786 0.150189 89.3441 0.150189L11.2222 0.150178C5.48763 0.150178 0.838867 4.75864 0.838867 10.4435Z" fill="white"/>
<path d="M0.838867 10.3031L0.838867 146.697C0.838867 152.387 5.74307 157 11.7927 157L94.2073 157C100.257 157 105.161 152.387 105.161 146.697L105.161 10.3031C105.161 4.61288 100.257 2.83873e-05 94.2073 2.75885e-05L11.7927 1.67053e-05C5.74307 1.59064e-05 0.838867 4.61287 0.838867 10.3031Z" fill="#003E60"/>
<path d="M11.8179 0H31.5801V157H11.8179V0Z" fill="#007CBF"/>
<path d="M73.1575 38.7419C72.706 38.7419 72.3029 38.6291 71.9482 38.4033C71.5935 38.1722 71.314 37.839 71.1098 37.4037C70.9056 36.963 70.8035 36.4416 70.8035 35.8397C70.8035 35.2378 70.9056 34.7191 71.1098 34.2838C71.314 33.8431 71.5935 33.5099 71.9482 33.2842C72.3029 33.0531 72.706 32.9375 73.1575 32.9375C73.6089 32.9375 74.012 33.0531 74.3667 33.2842C74.7268 33.5099 75.009 33.8431 75.2132 34.2838C75.4174 34.7191 75.5196 35.2378 75.5196 35.8397C75.5196 36.4416 75.4174 36.963 75.2132 37.4037C75.009 37.839 74.7268 38.1722 74.3667 38.4033C74.012 38.6291 73.6089 38.7419 73.1575 38.7419ZM73.1575 37.8309C73.5606 37.8309 73.8777 37.6643 74.1088 37.3311C74.3452 36.9979 74.4635 36.5008 74.4635 35.8397C74.4635 35.1787 74.3452 34.6815 74.1088 34.3483C73.8777 34.0151 73.5606 33.8485 73.1575 33.8485C72.7598 33.8485 72.4427 34.0151 72.2062 34.3483C71.9751 34.6815 71.8595 35.1787 71.8595 35.8397C71.8595 36.5008 71.9751 36.9979 72.2062 37.3311C72.4427 37.6643 72.7598 37.8309 73.1575 37.8309Z" fill="white"/>
<path d="M78.9717 38.7419C78.5202 38.7419 78.1172 38.6291 77.7624 38.4033C77.4077 38.1722 77.1282 37.839 76.924 37.4037C76.7198 36.963 76.6177 36.4416 76.6177 35.8397C76.6177 35.2378 76.7198 34.7191 76.924 34.2838C77.1282 33.8431 77.4077 33.5099 77.7624 33.2842C78.1172 33.0531 78.5202 32.9375 78.9717 32.9375C79.4231 32.9375 79.8262 33.0531 80.1809 33.2842C80.541 33.5099 80.8232 33.8431 81.0274 34.2838C81.2317 34.7191 81.3338 35.2378 81.3338 35.8397C81.3338 36.4416 81.2317 36.963 81.0274 37.4037C80.8232 37.839 80.541 38.1722 80.1809 38.4033C79.8262 38.6291 79.4231 38.7419 78.9717 38.7419ZM78.9717 37.8309C79.3748 37.8309 79.6919 37.6643 79.923 37.3311C80.1594 36.9979 80.2777 36.5008 80.2777 35.8397C80.2777 35.1787 80.1594 34.6815 79.923 34.3483C79.6919 34.0151 79.3748 33.8485 78.9717 33.8485C78.574 33.8485 78.2569 34.0151 78.0204 34.3483C77.7893 34.6815 77.6738 35.1787 77.6738 35.8397C77.6738 36.5008 77.7893 36.9979 78.0204 37.3311C78.2569 37.6643 78.574 37.8309 78.9717 37.8309Z" fill="white"/>
<path d="M84.7854 38.7419C84.334 38.7419 83.9309 38.6291 83.5762 38.4033C83.2214 38.1722 82.942 37.839 82.7377 37.4037C82.5335 36.963 82.4314 36.4416 82.4314 35.8397C82.4314 35.2378 82.5335 34.7191 82.7377 34.2838C82.942 33.8431 83.2214 33.5099 83.5762 33.2842C83.9309 33.0531 84.334 32.9375 84.7854 32.9375C85.2369 32.9375 85.64 33.0531 85.9947 33.2842C86.3548 33.5099 86.6369 33.8431 86.8411 34.2838C87.0454 34.7191 87.1475 35.2378 87.1475 35.8397C87.1475 36.4416 87.0454 36.963 86.8411 37.4037C86.6369 37.839 86.3548 38.1722 85.9947 38.4033C85.64 38.6291 85.2369 38.7419 84.7854 38.7419ZM84.7854 37.8309C85.1885 37.8309 85.5056 37.6643 85.7367 37.3311C85.9732 36.9979 86.0914 36.5008 86.0914 35.8397C86.0914 35.1787 85.9732 34.6815 85.7367 34.3483C85.5056 34.0151 85.1885 33.8485 84.7854 33.8485C84.3877 33.8485 84.0706 34.0151 83.8341 34.3483C83.603 34.6815 83.4875 35.1787 83.4875 35.8397C83.4875 36.5008 83.603 36.9979 83.8341 37.3311C84.0706 37.6643 84.3877 37.8309 84.7854 37.8309Z" fill="white"/>
<path d="M90.5996 38.7419C90.1482 38.7419 89.7451 38.6291 89.3904 38.4033C89.0357 38.1722 88.7562 37.839 88.5519 37.4037C88.3477 36.963 88.2456 36.4416 88.2456 35.8397C88.2456 35.2378 88.3477 34.7191 88.5519 34.2838C88.7562 33.8431 89.0357 33.5099 89.3904 33.2842C89.7451 33.0531 90.1482 32.9375 90.5996 32.9375C91.0511 32.9375 91.4542 33.0531 91.8089 33.2842C92.169 33.5099 92.4511 33.8431 92.6554 34.2838C92.8596 34.7191 92.9617 35.2378 92.9617 35.8397C92.9617 36.4416 92.8596 36.963 92.6554 37.4037C92.4511 37.839 92.169 38.1722 91.8089 38.4033C91.4542 38.6291 91.0511 38.7419 90.5996 38.7419ZM90.5996 37.8309C91.0027 37.8309 91.3198 37.6643 91.5509 37.3311C91.7874 36.9979 91.9056 36.5008 91.9056 35.8397C91.9056 35.1787 91.7874 34.6815 91.5509 34.3483C91.3198 34.0151 91.0027 33.8485 90.5996 33.8485C90.2019 33.8485 89.8848 34.0151 89.6483 34.3483C89.4172 34.6815 89.3017 35.1787 89.3017 35.8397C89.3017 36.5008 89.4172 36.9979 89.6483 37.3311C89.8848 37.6643 90.2019 37.8309 90.5996 37.8309Z" fill="white"/>
<path d="M73.1575 48.9382C72.706 48.9382 72.3029 48.8253 71.9482 48.5996C71.5935 48.3685 71.314 48.0353 71.1098 47.6C70.9056 47.1593 70.8035 46.6379 70.8035 46.036C70.8035 45.4341 70.9056 44.9154 71.1098 44.4801C71.314 44.0394 71.5935 43.7062 71.9482 43.4804C72.3029 43.2493 72.706 43.1338 73.1575 43.1338C73.6089 43.1338 74.012 43.2493 74.3667 43.4804C74.7268 43.7062 75.009 44.0394 75.2132 44.4801C75.4174 44.9154 75.5196 45.4341 75.5196 46.036C75.5196 46.6379 75.4174 47.1593 75.2132 47.6C75.009 48.0353 74.7268 48.3685 74.3667 48.5996C74.012 48.8253 73.6089 48.9382 73.1575 48.9382ZM73.1575 48.0272C73.5606 48.0272 73.8777 47.8606 74.1088 47.5274C74.3452 47.1942 74.4635 46.6971 74.4635 46.036C74.4635 45.3749 74.3452 44.8778 74.1088 44.5446C73.8777 44.2114 73.5606 44.0448 73.1575 44.0448C72.7598 44.0448 72.4427 44.2114 72.2062 44.5446C71.9751 44.8778 71.8595 45.3749 71.8595 46.036C71.8595 46.6971 71.9751 47.1942 72.2062 47.5274C72.4427 47.8606 72.7598 48.0272 73.1575 48.0272Z" fill="white"/>
<path d="M78.9717 48.9382C78.5202 48.9382 78.1172 48.8253 77.7624 48.5996C77.4077 48.3685 77.1282 48.0353 76.924 47.6C76.7198 47.1593 76.6177 46.6379 76.6177 46.036C76.6177 45.4341 76.7198 44.9154 76.924 44.4801C77.1282 44.0394 77.4077 43.7062 77.7624 43.4804C78.1172 43.2493 78.5202 43.1338 78.9717 43.1338C79.4231 43.1338 79.8262 43.2493 80.1809 43.4804C80.541 43.7062 80.8232 44.0394 81.0274 44.4801C81.2317 44.9154 81.3338 45.4341 81.3338 46.036C81.3338 46.6379 81.2317 47.1593 81.0274 47.6C80.8232 48.0353 80.541 48.3685 80.1809 48.5996C79.8262 48.8253 79.4231 48.9382 78.9717 48.9382ZM78.9717 48.0272C79.3748 48.0272 79.6919 47.8606 79.923 47.5274C80.1594 47.1942 80.2777 46.6971 80.2777 46.036C80.2777 45.3749 80.1594 44.8778 79.923 44.5446C79.6919 44.2114 79.3748 44.0448 78.9717 44.0448C78.574 44.0448 78.2569 44.2114 78.0204 44.5446C77.7893 44.8778 77.6738 45.3749 77.6738 46.036C77.6738 46.6971 77.7893 47.1942 78.0204 47.5274C78.2569 47.8606 78.574 48.0272 78.9717 48.0272Z" fill="white"/>
<path d="M84.7854 48.9382C84.334 48.9382 83.9309 48.8253 83.5762 48.5996C83.2214 48.3685 82.942 48.0353 82.7377 47.6C82.5335 47.1593 82.4314 46.6379 82.4314 46.036C82.4314 45.4341 82.5335 44.9154 82.7377 44.4801C82.942 44.0394 83.2214 43.7062 83.5762 43.4804C83.9309 43.2493 84.334 43.1338 84.7854 43.1338C85.2369 43.1338 85.64 43.2493 85.9947 43.4804C86.3548 43.7062 86.6369 44.0394 86.8411 44.4801C87.0454 44.9154 87.1475 45.4341 87.1475 46.036C87.1475 46.6379 87.0454 47.1593 86.8411 47.6C86.6369 48.0353 86.3548 48.3685 85.9947 48.5996C85.64 48.8253 85.2369 48.9382 84.7854 48.9382ZM84.7854 48.0272C85.1885 48.0272 85.5056 47.8606 85.7367 47.5274C85.9732 47.1942 86.0914 46.6971 86.0914 46.036C86.0914 45.3749 85.9732 44.8778 85.7367 44.5446C85.5056 44.2114 85.1885 44.0448 84.7854 44.0448C84.3877 44.0448 84.0706 44.2114 83.8341 44.5446C83.603 44.8778 83.4875 45.3749 83.4875 46.036C83.4875 46.6971 83.603 47.1942 83.8341 47.5274C84.0706 47.8606 84.3877 48.0272 84.7854 48.0272Z" fill="white"/>
<path d="M90.5996 48.9382C90.1482 48.9382 89.7451 48.8253 89.3904 48.5996C89.0357 48.3685 88.7562 48.0353 88.5519 47.6C88.3477 47.1593 88.2456 46.6379 88.2456 46.036C88.2456 45.4341 88.3477 44.9154 88.5519 44.4801C88.7562 44.0394 89.0357 43.7062 89.3904 43.4804C89.7451 43.2493 90.1482 43.1338 90.5996 43.1338C91.0511 43.1338 91.4542 43.2493 91.8089 43.4804C92.169 43.7062 92.4511 44.0394 92.6554 44.4801C92.8596 44.9154 92.9617 45.4341 92.9617 46.036C92.9617 46.6379 92.8596 47.1593 92.6554 47.6C92.4511 48.0353 92.169 48.3685 91.8089 48.5996C91.4542 48.8253 91.0511 48.9382 90.5996 48.9382ZM90.5996 48.0272C91.0027 48.0272 91.3198 47.8606 91.5509 47.5274C91.7874 47.1942 91.9056 46.6971 91.9056 46.036C91.9056 45.3749 91.7874 44.8778 91.5509 44.5446C91.3198 44.2114 91.0027 44.0448 90.5996 44.0448C90.2019 44.0448 89.8848 44.2114 89.6483 44.5446C89.4172 44.8778 89.3017 45.3749 89.3017 46.036C89.3017 46.6971 89.4172 47.1942 89.6483 47.5274C89.8848 47.8606 90.2019 48.0272 90.5996 48.0272Z" fill="white"/>
<path d="M96.9376 53.3291H66.7943C65.5368 53.3291 64.5173 54.3575 64.5173 55.626L64.5173 72.9076C64.5173 74.1762 65.5368 75.2046 66.7943 75.2046H96.9376C98.1952 75.2046 99.2146 74.1762 99.2146 72.9076L99.2146 55.626C99.2146 54.3575 98.1952 53.3291 96.9376 53.3291Z" fill="white"/>
<path d="M96.9686 53.3291H66.7965C65.5378 53.3291 64.5173 54.414 64.5173 55.7522L64.5173 73.9834C64.5173 75.3217 65.5378 76.4066 66.7965 76.4066H96.9686C98.2274 76.4066 99.2478 75.3217 99.2478 73.9834L99.2478 55.7522C99.2478 54.414 98.2274 53.3291 96.9686 53.3291Z" fill="#007CBF"/>
<path d="M73.4588 67.9167C73.0073 67.9167 72.6042 67.8039 72.2495 67.5781C71.8948 67.347 71.6153 67.0138 71.4111 66.5785C71.2069 66.1378 71.1047 65.6165 71.1047 65.0145C71.1047 64.4126 71.2069 63.8939 71.4111 63.4586C71.6153 63.0179 71.8948 62.6847 72.2495 62.459C72.6042 62.2279 73.0073 62.1123 73.4588 62.1123C73.9102 62.1123 74.3133 62.2279 74.668 62.459C75.0281 62.6847 75.3103 63.0179 75.5145 63.4586C75.7187 63.8939 75.8208 64.4126 75.8208 65.0145C75.8208 65.6165 75.7187 66.1378 75.5145 66.5785C75.3103 67.0138 75.0281 67.347 74.668 67.5781C74.3133 67.8039 73.9102 67.9167 73.4588 67.9167ZM73.4588 67.0058C73.8618 67.0058 74.1789 66.8391 74.41 66.5059C74.6465 66.1727 74.7647 65.6756 74.7647 65.0145C74.7647 64.3535 74.6465 63.8563 74.41 63.5231C74.1789 63.1899 73.8618 63.0233 73.4588 63.0233C73.061 63.0233 72.7439 63.1899 72.5075 63.5231C72.2764 63.8563 72.1608 64.3535 72.1608 65.0145C72.1608 65.6756 72.2764 66.1727 72.5075 66.5059C72.7439 66.8391 73.061 67.0058 73.4588 67.0058Z" fill="white"/>
<path d="M79.273 67.9167C78.8215 67.9167 78.4184 67.8039 78.0637 67.5781C77.709 67.347 77.4295 67.0138 77.2253 66.5785C77.0211 66.1378 76.9189 65.6165 76.9189 65.0145C76.9189 64.4126 77.0211 63.8939 77.2253 63.4586C77.4295 63.0179 77.709 62.6847 78.0637 62.459C78.4184 62.2279 78.8215 62.1123 79.273 62.1123C79.7244 62.1123 80.1275 62.2279 80.4822 62.459C80.8423 62.6847 81.1245 63.0179 81.3287 63.4586C81.5329 63.8939 81.635 64.4126 81.635 65.0145C81.635 65.6165 81.5329 66.1378 81.3287 66.5785C81.1245 67.0138 80.8423 67.347 80.4822 67.5781C80.1275 67.8039 79.7244 67.9167 79.273 67.9167ZM79.273 67.0058C79.676 67.0058 79.9931 66.8391 80.2242 66.5059C80.4607 66.1727 80.579 65.6756 80.579 65.0145C80.579 64.3535 80.4607 63.8563 80.2242 63.5231C79.9931 63.1899 79.676 63.0233 79.273 63.0233C78.8752 63.0233 78.5582 63.1899 78.3217 63.5231C78.0906 63.8563 77.975 64.3535 77.975 65.0145C77.975 65.6756 78.0906 66.1727 78.3217 66.5059C78.5582 66.8391 78.8752 67.0058 79.273 67.0058Z" fill="white"/>
<path d="M85.0867 67.9167C84.6352 67.9167 84.2321 67.8039 83.8774 67.5781C83.5227 67.347 83.2432 67.0138 83.039 66.5785C82.8348 66.1378 82.7327 65.6165 82.7327 65.0145C82.7327 64.4126 82.8348 63.8939 83.039 63.4586C83.2432 63.0179 83.5227 62.6847 83.8774 62.459C84.2321 62.2279 84.6352 62.1123 85.0867 62.1123C85.5381 62.1123 85.9412 62.2279 86.2959 62.459C86.656 62.6847 86.9382 63.0179 87.1424 63.4586C87.3466 63.8939 87.4488 64.4126 87.4488 65.0145C87.4488 65.6165 87.3466 66.1378 87.1424 66.5785C86.9382 67.0138 86.656 67.347 86.2959 67.5781C85.9412 67.8039 85.5381 67.9167 85.0867 67.9167ZM85.0867 67.0058C85.4898 67.0058 85.8069 66.8391 86.038 66.5059C86.2744 66.1727 86.3927 65.6756 86.3927 65.0145C86.3927 64.3535 86.2744 63.8563 86.038 63.5231C85.8069 63.1899 85.4898 63.0233 85.0867 63.0233C84.689 63.0233 84.3719 63.1899 84.1354 63.5231C83.9043 63.8563 83.7887 64.3535 83.7887 65.0145C83.7887 65.6756 83.9043 66.1727 84.1354 66.5059C84.3719 66.8391 84.689 67.0058 85.0867 67.0058Z" fill="white"/>
<path d="M90.9009 67.9167C90.4494 67.9167 90.0463 67.8039 89.6916 67.5781C89.3369 67.347 89.0574 67.0138 88.8532 66.5785C88.649 66.1378 88.5469 65.6165 88.5469 65.0145C88.5469 64.4126 88.649 63.8939 88.8532 63.4586C89.0574 63.0179 89.3369 62.6847 89.6916 62.459C90.0463 62.2279 90.4494 62.1123 90.9009 62.1123C91.3523 62.1123 91.7554 62.2279 92.1101 62.459C92.4702 62.6847 92.7524 63.0179 92.9566 63.4586C93.1609 63.8939 93.263 64.4126 93.263 65.0145C93.263 65.6165 93.1609 66.1378 92.9566 66.5785C92.7524 67.0138 92.4702 67.347 92.1101 67.5781C91.7554 67.8039 91.3523 67.9167 90.9009 67.9167ZM90.9009 67.0058C91.304 67.0058 91.6211 66.8391 91.8522 66.5059C92.0886 66.1727 92.2069 65.6756 92.2069 65.0145C92.2069 64.3535 92.0886 63.8563 91.8522 63.5231C91.6211 63.1899 91.304 63.0233 90.9009 63.0233C90.5032 63.0233 90.1861 63.1899 89.9496 63.5231C89.7185 63.8563 89.603 64.3535 89.603 65.0145C89.603 65.6756 89.7185 66.1727 89.9496 66.5059C90.1861 66.8391 90.5032 67.0058 90.9009 67.0058Z" fill="white"/>
<path d="M73.1575 86.6032C72.706 86.6032 72.3029 86.4904 71.9482 86.2647C71.5935 86.0336 71.314 85.7003 71.1098 85.265C70.9056 84.8243 70.8035 84.303 70.8035 83.701C70.8035 83.0991 70.9056 82.5805 71.1098 82.1451C71.314 81.7044 71.5935 81.3712 71.9482 81.1455C72.3029 80.9144 72.706 80.7988 73.1575 80.7988C73.6089 80.7988 74.012 80.9144 74.3667 81.1455C74.7268 81.3712 75.009 81.7044 75.2132 82.1451C75.4174 82.5805 75.5196 83.0991 75.5196 83.701C75.5196 84.303 75.4174 84.8243 75.2132 85.265C75.009 85.7003 74.7268 86.0336 74.3667 86.2647C74.012 86.4904 73.6089 86.6032 73.1575 86.6032ZM73.1575 85.6923C73.5606 85.6923 73.8777 85.5257 74.1088 85.1925C74.3452 84.8592 74.4635 84.3621 74.4635 83.701C74.4635 83.04 74.3452 82.5428 74.1088 82.2096C73.8777 81.8764 73.5606 81.7098 73.1575 81.7098C72.7598 81.7098 72.4427 81.8764 72.2062 82.2096C71.9751 82.5428 71.8595 83.04 71.8595 83.701C71.8595 84.3621 71.9751 84.8592 72.2062 85.1925C72.4427 85.5257 72.7598 85.6923 73.1575 85.6923Z" fill="white"/>
<path d="M78.9717 86.6032C78.5202 86.6032 78.1172 86.4904 77.7624 86.2647C77.4077 86.0336 77.1282 85.7003 76.924 85.265C76.7198 84.8243 76.6177 84.303 76.6177 83.701C76.6177 83.0991 76.7198 82.5805 76.924 82.1451C77.1282 81.7044 77.4077 81.3712 77.7624 81.1455C78.1172 80.9144 78.5202 80.7988 78.9717 80.7988C79.4231 80.7988 79.8262 80.9144 80.1809 81.1455C80.541 81.3712 80.8232 81.7044 81.0274 82.1451C81.2317 82.5805 81.3338 83.0991 81.3338 83.701C81.3338 84.303 81.2317 84.8243 81.0274 85.265C80.8232 85.7003 80.541 86.0336 80.1809 86.2647C79.8262 86.4904 79.4231 86.6032 78.9717 86.6032ZM78.9717 85.6923C79.3748 85.6923 79.6919 85.5257 79.923 85.1925C80.1594 84.8592 80.2777 84.3621 80.2777 83.701C80.2777 83.04 80.1594 82.5428 79.923 82.2096C79.6919 81.8764 79.3748 81.7098 78.9717 81.7098C78.574 81.7098 78.2569 81.8764 78.0204 82.2096C77.7893 82.5428 77.6738 83.04 77.6738 83.701C77.6738 84.3621 77.7893 84.8592 78.0204 85.1925C78.2569 85.5257 78.574 85.6923 78.9717 85.6923Z" fill="white"/>
<path d="M84.7854 86.6032C84.334 86.6032 83.9309 86.4904 83.5762 86.2647C83.2214 86.0336 82.942 85.7003 82.7377 85.265C82.5335 84.8243 82.4314 84.303 82.4314 83.701C82.4314 83.0991 82.5335 82.5805 82.7377 82.1451C82.942 81.7044 83.2214 81.3712 83.5762 81.1455C83.9309 80.9144 84.334 80.7988 84.7854 80.7988C85.2369 80.7988 85.64 80.9144 85.9947 81.1455C86.3548 81.3712 86.6369 81.7044 86.8411 82.1451C87.0454 82.5805 87.1475 83.0991 87.1475 83.701C87.1475 84.303 87.0454 84.8243 86.8411 85.265C86.6369 85.7003 86.3548 86.0336 85.9947 86.2647C85.64 86.4904 85.2369 86.6032 84.7854 86.6032ZM84.7854 85.6923C85.1885 85.6923 85.5056 85.5257 85.7367 85.1925C85.9732 84.8592 86.0914 84.3621 86.0914 83.701C86.0914 83.04 85.9732 82.5428 85.7367 82.2096C85.5056 81.8764 85.1885 81.7098 84.7854 81.7098C84.3877 81.7098 84.0706 81.8764 83.8341 82.2096C83.603 82.5428 83.4875 83.04 83.4875 83.701C83.4875 84.3621 83.603 84.8592 83.8341 85.1925C84.0706 85.5257 84.3877 85.6923 84.7854 85.6923Z" fill="white"/>
<path d="M90.5996 86.6032C90.1482 86.6032 89.7451 86.4904 89.3904 86.2647C89.0357 86.0336 88.7562 85.7003 88.5519 85.265C88.3477 84.8243 88.2456 84.303 88.2456 83.701C88.2456 83.0991 88.3477 82.5805 88.5519 82.1451C88.7562 81.7044 89.0357 81.3712 89.3904 81.1455C89.7451 80.9144 90.1482 80.7988 90.5996 80.7988C91.0511 80.7988 91.4542 80.9144 91.8089 81.1455C92.169 81.3712 92.4511 81.7044 92.6554 82.1451C92.8596 82.5805 92.9617 83.0991 92.9617 83.701C92.9617 84.303 92.8596 84.8243 92.6554 85.265C92.4511 85.7003 92.169 86.0336 91.8089 86.2647C91.4542 86.4904 91.0511 86.6032 90.5996 86.6032ZM90.5996 85.6923C91.0027 85.6923 91.3198 85.5257 91.5509 85.1925C91.7874 84.8592 91.9056 84.3621 91.9056 83.701C91.9056 83.04 91.7874 82.5428 91.5509 82.2096C91.3198 81.8764 91.0027 81.7098 90.5996 81.7098C90.2019 81.7098 89.8848 81.8764 89.6483 82.2096C89.4172 82.5428 89.3017 83.04 89.3017 83.701C89.3017 84.3621 89.4172 84.8592 89.6483 85.1925C89.8848 85.5257 90.2019 85.6923 90.5996 85.6923Z" fill="white"/>
</svg>
