<svg width="151" height="150" viewBox="0 0 151 150" fill="none" xmlns="http://www.w3.org/2000/svg">
<circle cx="75.5" cy="75" r="50" fill="#39A8E5" fill-opacity="0.2"/>
<path fill-rule="evenodd" clip-rule="evenodd" d="M45.7909 43.2973C49.1143 43.2973 51.8334 46.0202 51.8334 49.3481V119.941C51.8334 123.269 49.1143 125.992 45.7909 125.992H11.5498C8.22635 125.992 5.5072 123.269 5.5072 119.941V49.3481C5.5072 46.0202 8.22635 43.2973 11.5498 43.2973H45.7909ZM139.45 43.2973C142.774 43.2973 145.493 46.0202 145.493 49.3481V119.941C145.493 123.269 142.774 125.992 139.45 125.992H105.209C101.886 125.992 99.1668 123.269 99.1668 119.941V49.3481C99.1668 46.0202 101.886 43.2973 105.209 43.2973H139.45ZM76.0037 30.6914C84.3464 30.6914 91.11 37.4643 91.11 45.8185C91.11 54.1727 84.3464 60.9455 76.0037 60.9455C67.6609 60.9455 60.8973 54.1727 60.8973 45.8185C60.8973 37.4643 67.6609 30.6914 76.0037 30.6914Z" fill="white"/>
<path fill-rule="evenodd" clip-rule="evenodd" d="M67.6422 8.68987L67.6144 8.61606C67.4121 8.13533 66.8709 7.88429 66.3683 8.05201C65.8407 8.22812 65.5555 8.79923 65.7314 9.32762L68.8367 18.6575L68.8645 18.7313C69.0668 19.212 69.608 19.4631 70.1106 19.2954C70.6383 19.1192 70.9234 18.5481 70.7476 18.0197L67.6422 8.68987ZM51.8061 17.5666L51.8701 17.6256L58.0814 23.8458C58.4746 24.2397 58.4746 24.8782 58.0813 25.272C57.7087 25.6451 57.1168 25.6647 56.7211 25.3309L56.6571 25.2719L50.4458 19.0517C50.0525 18.6578 50.0526 18.0193 50.4459 17.6255C50.8185 17.2524 51.4104 17.2328 51.8061 17.5666ZM101.561 17.6255C101.934 17.9986 101.954 18.5913 101.62 18.9875L101.561 19.0517L95.3501 25.2719C94.9568 25.6658 94.3192 25.6658 93.9259 25.272C93.5533 24.8989 93.5336 24.3062 93.867 23.91L93.9258 23.8458L100.137 17.6256C100.53 17.2317 101.168 17.2317 101.561 17.6255ZM85.6388 8.05201C86.1414 8.21974 86.424 8.74574 86.2978 9.25189L86.2758 9.32762L83.1705 18.6575C82.9946 19.1859 82.4243 19.4715 81.8966 19.2954C81.3941 19.1276 81.1115 18.6016 81.2376 18.0955L81.2596 18.0197L84.365 8.68987C84.5408 8.16148 85.1112 7.8759 85.6388 8.05201ZM28.7215 73.3093L28.7535 73.2542C28.9506 72.9605 29.4041 72.9788 29.5691 73.3093L29.5937 73.3556L42.1654 95.5659L42.1835 95.6077C42.2926 95.9105 42.0697 96.2417 41.7367 96.2417H16.5584L16.5009 96.2383L16.446 96.2285C16.178 96.1642 16.0159 95.8749 16.1121 95.6077L16.1296 95.5659L28.697 73.3554L28.7215 73.3093ZM30.1526 92.7268C30.1526 92.1701 29.7014 91.7183 29.1455 91.7183C28.5891 91.7183 28.1384 92.1701 28.1384 92.7268C28.1384 93.2835 28.5891 93.7353 29.1455 93.7353C29.7014 93.7353 30.1526 93.2835 30.1526 92.7268ZM30.1498 79.3785C30.1114 78.8567 29.6764 78.4453 29.1455 78.4453C28.5893 78.4453 28.1384 78.8968 28.1384 79.4537V88.3515L28.1412 88.4267C28.1796 88.9485 28.6146 89.3599 29.1455 89.3599C29.7017 89.3599 30.1526 88.9084 30.1526 88.3515V79.4537L30.1498 79.3785ZM92.117 45.818C92.117 36.9069 84.9025 29.6825 76.0036 29.6825C67.1046 29.6825 59.8901 36.9069 59.8901 45.818C59.8901 54.7292 67.1046 61.9536 76.0036 61.9536C84.9025 61.9536 92.117 54.7292 92.117 45.818ZM61.9043 45.818C61.9043 38.0208 68.217 31.6994 76.0036 31.6994C83.7901 31.6994 90.1028 38.0208 90.1028 45.818C90.1028 53.6152 83.7901 59.9366 76.0036 59.9366C68.217 59.9366 61.9043 53.6152 61.9043 45.818ZM70.6731 39.0541L70.6091 38.9952C70.2134 38.6614 69.6215 38.681 69.2489 39.0541C68.8556 39.4479 68.8556 40.0865 69.2489 40.4803L74.579 45.818L69.2489 51.1558L69.19 51.2199C68.8567 51.6161 68.8763 52.2089 69.2489 52.582C69.6422 52.9758 70.2798 52.9758 70.6731 52.582L76.0036 47.2445L81.334 52.582L81.398 52.6409C81.7937 52.9747 82.3856 52.9551 82.7582 52.582C83.1515 52.1881 83.1515 51.5496 82.7582 51.1558L77.4281 45.818L82.7582 40.4803L82.8171 40.4162C83.1504 40.0199 83.1308 39.4272 82.7582 39.0541C82.3649 38.6603 81.7273 38.6603 81.334 39.0541L76.0036 44.3915L70.6731 39.0541ZM43.9623 94.6526L43.9377 94.6064L31.3511 72.3707L31.3501 72.3687L31.346 72.361L31.3169 72.3052C30.3736 70.6042 27.9148 70.6048 26.9726 72.3071L26.9382 72.3711L14.3579 94.6065L14.3333 94.6526L14.2894 94.745C13.5509 96.3809 14.7431 98.2586 16.5584 98.2586H41.7367L41.8388 98.2566C43.6305 98.1865 44.7743 96.2788 43.9623 94.6526Z" fill="#D0141B"/>
<path fill-rule="evenodd" clip-rule="evenodd" d="M46.4997 42.3247C49.9981 42.678 52.7599 45.6165 52.8387 49.1913L52.8404 49.3484V119.941C52.8404 120.151 52.8312 120.358 52.8131 120.564C52.5421 123.639 50.2822 126.163 47.3371 126.829C46.8883 126.93 46.4236 126.988 45.9477 126.999L45.7908 127.001H11.5496C8.20086 127.001 5.38076 124.636 4.67174 121.49C4.65497 121.415 4.63939 121.341 4.625 121.265C4.55249 120.886 4.5105 120.496 4.50173 120.098L4.5 119.941V49.3484C4.5 45.5159 7.58494 42.375 11.3928 42.2908L11.5496 42.2891H45.7908C46.03 42.2891 46.2665 42.3011 46.4997 42.3247ZM105.052 42.2908L105.209 42.2891H139.45H139.451C139.456 42.2891 139.46 42.2891 139.465 42.2891C139.467 42.2891 139.47 42.2891 139.472 42.2891C139.916 42.2905 140.35 42.3333 140.772 42.4141C143.975 43.0277 146.424 45.8279 146.498 49.1913L146.5 49.3484V119.941C146.5 120.151 146.491 120.358 146.473 120.564C146.202 123.639 143.942 126.163 140.997 126.829C140.548 126.93 140.083 126.988 139.607 126.999C139.607 126.999 139.607 126.999 139.607 126.999L139.45 127.001H105.209C101.86 127.001 99.0403 124.636 98.3313 121.49C98.23 121.04 98.1718 120.575 98.1613 120.098L98.1596 119.941V49.3484C98.1596 45.8153 100.781 42.87 104.174 42.3654C104.462 42.3226 104.755 42.2974 105.052 42.2908ZM11.5496 44.306C8.82934 44.306 6.59122 46.501 6.51613 49.2079L6.51418 49.3484V52.3738H46.5461C46.5461 52.3738 46.5461 52.3738 46.5462 52.3738C47.1023 52.3738 47.5532 52.8253 47.5532 53.3822C47.5532 53.3823 47.5532 53.3823 47.5532 53.3823C47.5532 53.8475 47.2386 54.2391 46.8109 54.3555C46.7498 54.3721 46.6864 54.3831 46.6213 54.388L46.5461 54.3907H6.51418V114.899H46.7979C46.7979 114.899 46.7979 114.899 46.798 114.899C47.3541 114.899 47.805 115.351 47.805 115.907C47.805 115.907 47.805 115.908 47.805 115.908C47.8049 116.373 47.4904 116.764 47.0627 116.881C47.0016 116.897 46.9382 116.908 46.8731 116.913C46.8731 116.913 46.8731 116.913 46.873 116.913L46.7979 116.916L6.51418 116.916V119.941C6.51418 120.112 6.52275 120.28 6.53946 120.446C6.79018 122.937 8.87515 124.911 11.4094 124.982L11.5496 124.984H45.7908C45.9395 124.984 46.0869 124.977 46.2325 124.964C48.4166 124.771 50.2144 123.164 50.698 121.07C50.7717 120.751 50.8149 120.42 50.8243 120.082L50.8262 119.941V49.3484C50.8262 46.9237 49.0896 44.8817 46.8016 44.409C46.4748 44.3415 46.1367 44.306 45.7908 44.306H11.5496ZM105.209 44.306C102.489 44.306 100.251 46.501 100.176 49.2079L100.174 49.3484L100.174 52.3738H140.206C140.206 52.3738 140.206 52.3738 140.206 52.3738C140.762 52.3739 141.213 52.8254 141.213 53.3822C141.213 53.3823 141.213 53.3824 141.213 53.3824C141.213 53.8475 140.898 54.2391 140.47 54.3555C140.409 54.3721 140.346 54.3831 140.281 54.3879C140.281 54.3879 140.281 54.3879 140.281 54.388L140.206 54.3907H100.174V114.899H140.457C140.458 114.899 140.458 114.899 140.458 114.899C141.014 114.899 141.465 115.351 141.465 115.907C141.465 115.908 141.465 115.908 141.465 115.908C141.464 116.373 141.15 116.764 140.722 116.881C140.661 116.897 140.598 116.908 140.533 116.913C140.533 116.913 140.533 116.913 140.533 116.913L140.457 116.916H100.174L100.174 119.941C100.174 120.112 100.182 120.28 100.199 120.446C100.45 122.937 102.535 124.911 105.069 124.982L105.209 124.984H139.45C139.599 124.984 139.746 124.977 139.892 124.964C142.076 124.771 143.874 123.164 144.358 121.07C144.431 120.751 144.474 120.42 144.484 120.082C144.484 120.082 144.484 120.082 144.484 120.082L144.486 119.941V49.3484C144.486 46.9237 142.749 44.8817 140.461 44.409C140.134 44.3415 139.796 44.306 139.45 44.306H105.209ZM30.4327 119.941C30.9889 119.941 31.4397 120.393 31.4397 120.95C31.4397 120.95 31.4397 120.95 31.4397 120.95C31.4397 121.415 31.1251 121.807 30.6974 121.923C30.6364 121.94 30.573 121.951 30.5079 121.956C30.5078 121.956 30.5078 121.956 30.5078 121.956L30.4326 121.958H27.4113C26.8899 121.958 26.461 121.561 26.4095 121.053C26.406 121.019 26.4043 120.985 26.4043 120.95C26.4043 120.418 26.8151 119.983 27.3362 119.944L27.4113 119.941H30.4326H30.4327ZM124.092 119.941C124.648 119.941 125.099 120.393 125.099 120.95C125.099 121.415 124.785 121.807 124.357 121.923C124.296 121.94 124.233 121.951 124.167 121.956C124.167 121.956 124.167 121.956 124.167 121.956L124.092 121.958H121.071C120.549 121.958 120.121 121.561 120.069 121.053C120.066 121.019 120.064 120.985 120.064 120.95C120.064 120.418 120.475 119.983 120.996 119.944L121.071 119.941H124.092H124.092ZM125.099 120.95C125.099 120.95 125.099 120.95 125.099 120.95V120.95ZM29.4973 47.7642C29.7325 48.1022 29.7372 48.5523 29.5114 48.8948C29.4745 48.9507 29.4315 49.0037 29.3824 49.053C29.3823 49.053 29.3823 49.053 29.3823 49.053C29.0382 49.3976 28.507 49.4407 28.1161 49.1822C28.0602 49.1453 28.0073 49.1022 27.9581 49.053C27.5648 48.6592 27.5648 48.0206 27.9581 47.6268C28.0073 47.5776 28.0602 47.5345 28.1161 47.4976C28.507 47.2391 29.0382 47.2822 29.3823 47.6268C29.4254 47.6699 29.4637 47.7159 29.4973 47.7642ZM121.618 47.6267C122.011 47.233 122.649 47.233 123.042 47.6268C123.042 47.6268 123.042 47.6268 123.042 47.6269C123.386 47.9715 123.429 48.5034 123.171 48.8948C123.134 48.9507 123.091 49.0037 123.042 49.0529C123.042 49.0529 123.042 49.053 123.042 49.053C122.698 49.3976 122.167 49.4407 121.776 49.1822C121.72 49.1453 121.667 49.1023 121.618 49.0531C121.618 49.053 121.618 49.053 121.618 49.053C121.224 48.6592 121.224 48.0206 121.618 47.6268C121.618 47.6268 121.618 47.6267 121.618 47.6267Z" fill="#003DA5"/>
</svg>
