<svg width="300" height="300" viewBox="0 0 300 300" fill="none" xmlns="http://www.w3.org/2000/svg">
<circle cx="150" cy="150" r="100" fill="#39A8E5" fill-opacity="0.2"/>
<path fill-rule="evenodd" clip-rule="evenodd" d="M182.175 65.0039C188.789 65.0039 194.201 70.4154 194.201 77.0296V139.778L232.196 139.779V172.152C232.196 176.165 228.809 179.419 224.631 179.419L194.201 179.419V217.329C194.201 223.943 188.789 229.354 182.175 229.354H114.03C107.416 229.354 102.004 223.943 102.004 217.329V77.0296C102.004 70.4154 107.416 65.0039 114.03 65.0039H182.175Z" fill="white"/>
<path fill-rule="evenodd" clip-rule="evenodd" d="M210.062 112.5C218.666 112.5 225.649 119.25 225.649 127.625V137.125H233.754C234.752 137.125 235.5 137.875 235.5 138.875V171C235.5 176 231.385 180 226.273 180H193.727C188.615 180 184.5 176 184.5 171V138.875C184.5 137.875 185.248 137.125 186.246 137.125H194.351V127.625C194.476 119.25 201.458 112.5 210.062 112.5ZM232.009 140.75H188.116V171C188.116 174 190.735 176.375 193.852 176.375H226.397C229.515 176.375 232.133 174 232.133 171V140.75H232.009ZM209.189 149.25C210.312 149.25 211.185 150.125 211.185 151.25V156.25H216.172C217.295 156.25 218.167 157.125 218.167 158.25C218.167 159.375 217.295 160.25 216.172 160.25H211.185V165.25C211.185 166.375 210.312 167.25 209.189 167.25C208.067 167.25 207.194 166.375 207.194 165.25V160.25H202.207C201.084 160.25 200.211 159.375 200.211 158.25C200.211 157.125 201.084 156.25 202.207 156.25H207.194V151.25C207.194 150.125 208.067 149.25 209.189 149.25ZM210.062 116.125C203.454 116.125 197.967 121.25 197.967 127.625V137.125H222.158V127.625C222.158 121.25 216.671 116.125 210.062 116.125Z" fill="#39A8E5"/>
<path fill-rule="evenodd" clip-rule="evenodd" d="M182.175 66C189.912 66 196.205 72.2934 196.205 80.0299V98.0684C196.205 99.1748 195.307 100.073 194.201 100.073C193.095 100.073 192.197 99.1748 192.197 98.0684V80.0299C192.197 74.5041 187.701 70.0086 182.175 70.0086H114.03C108.504 70.0086 104.009 74.5041 104.009 80.0299V86.0428H183.678C184.785 86.0428 185.683 86.9407 185.683 88.047C185.683 89.1534 184.785 90.0513 183.678 90.0513H104.009V210.308H184.18C185.286 210.308 186.184 211.206 186.184 212.312C186.184 213.418 185.286 214.316 184.18 214.316H104.009V220.329C104.009 225.855 108.504 230.351 114.03 230.351H182.175C187.701 230.351 192.197 225.855 192.197 220.329V202.291C192.197 201.184 193.095 200.286 194.201 200.286C195.307 200.286 196.205 201.184 196.205 202.291V220.329C196.205 228.066 189.912 234.359 182.175 234.359H114.03C106.293 234.359 100 228.066 100 220.329V80.0299C100 72.2934 106.293 66 114.03 66H182.175ZM151.61 220.329C152.716 220.329 153.614 221.227 153.614 222.333C153.614 223.44 152.716 224.338 151.61 224.338H145.597C144.491 224.338 143.593 223.44 143.593 222.333C143.593 221.227 144.491 220.329 145.597 220.329H151.61ZM148.493 76.0615C148.624 76.0915 148.744 76.1216 148.874 76.1717C148.994 76.2218 149.105 76.2819 149.214 76.3621C149.325 76.4322 149.424 76.5124 149.516 76.6026C149.616 76.7028 149.696 76.803 149.766 76.9133C149.845 77.0235 149.906 77.1338 149.957 77.254C150.006 77.3843 150.046 77.5045 150.067 77.6348C150.096 77.7651 150.107 77.8954 150.107 78.0257C150.107 78.5468 149.896 79.0679 149.516 79.4387C149.424 79.5389 149.325 79.6191 149.214 79.6892C149.105 79.7694 148.994 79.8295 148.874 79.8796C148.744 79.9297 148.624 79.9698 148.493 79.9898C148.363 80.0199 148.233 80.0299 148.103 80.0299C147.972 80.0299 147.841 80.0199 147.711 79.9898C147.58 79.9698 147.46 79.9297 147.34 79.8796C147.221 79.8295 147.1 79.7694 146.99 79.6892C146.879 79.6191 146.78 79.5389 146.69 79.4387C146.588 79.3485 146.509 79.2483 146.439 79.138C146.359 79.0278 146.299 78.9176 146.248 78.7873C146.199 78.667 146.158 78.5468 146.138 78.4165C146.108 78.2862 146.098 78.1559 146.098 78.0257C146.098 77.8954 146.108 77.7651 146.138 77.6348C146.158 77.5045 146.199 77.3843 146.248 77.254C146.299 77.1338 146.359 77.0235 146.439 76.9133C146.509 76.803 146.588 76.7028 146.69 76.6026C146.78 76.5124 146.879 76.4322 146.99 76.3621C147.1 76.2819 147.221 76.2218 147.34 76.1717C147.46 76.1216 147.58 76.0915 147.711 76.0615C147.972 76.0114 148.233 76.0114 148.493 76.0615Z" fill="#164194"/>
<path fill-rule="evenodd" clip-rule="evenodd" d="M147.062 122C163.114 122 176.124 135.011 176.124 151.062C176.124 167.112 163.113 180.124 147.062 180.124C131.012 180.124 118 167.112 118 151.062C118 135.011 131.012 122 147.062 122ZM147.062 126.009C133.225 126.009 122.009 137.224 122.009 151.062C122.009 164.898 133.225 176.115 147.062 176.115C160.899 176.115 172.115 164.898 172.115 151.062C172.115 137.224 160.899 126.009 147.062 126.009ZM146.941 163.353C147.788 163.353 148.486 164.004 148.56 164.832L148.567 164.98V165.651C148.567 166.498 147.916 167.196 147.088 167.271L146.941 167.278H146.47C145.623 167.278 144.924 166.627 144.849 165.799L144.842 165.651V164.98C144.842 164.133 145.494 163.434 146.322 163.359L146.47 163.353H146.941ZM147.198 134.849C150.053 134.849 152.363 135.66 154.067 137.258C155.767 138.851 156.628 140.92 156.628 143.403C156.628 144.898 156.322 146.122 155.718 147.039C155.09 147.992 153.772 149.425 151.801 151.298C150.3 152.72 149.344 153.903 148.88 154.912C148.581 155.565 148.377 156.42 148.272 157.455C148.187 158.307 147.491 158.95 146.652 158.95C146.189 158.95 145.746 158.753 145.434 158.409C145.129 158.07 144.984 157.636 145.029 157.189C145.143 156.065 145.356 155.092 145.665 154.298C146.12 153.125 147.126 151.763 148.658 150.246L148.951 149.96L150.769 148.2C151.33 147.678 151.797 147.122 152.149 146.551C152.797 145.537 153.127 144.461 153.127 143.359C153.127 141.826 152.651 140.476 151.715 139.346C150.762 138.199 149.189 137.617 147.043 137.617C144.382 137.617 142.51 138.609 141.478 140.566C141.091 141.292 140.814 142.244 140.655 143.393C140.543 144.201 139.851 144.809 139.045 144.809C138.543 144.809 138.087 144.598 137.772 144.232C137.467 143.878 137.338 143.432 137.408 142.98C137.735 140.87 138.575 139.082 139.904 137.666C141.659 135.797 144.113 134.849 147.198 134.849Z" fill="#D0141B"/>
</svg>
