<svg width="300" height="300" viewBox="0 0 300 300" fill="none" xmlns="http://www.w3.org/2000/svg">
<circle opacity="0.25" cx="150" cy="150" r="100" fill="#39A8E5"/>
<path fill-rule="evenodd" clip-rule="evenodd" d="M226.443 188.637C226.443 193.608 222.413 197.637 217.443 197.637H133.801C131.096 197.637 128.464 198.735 126.49 200.635L97.0957 230.102V197.71H83.0637C78.0927 197.71 74.0637 193.681 74.0637 188.71V114.216C74.0637 109.245 78.0927 105.216 83.0637 105.216H217.443C222.413 105.216 226.443 109.245 226.443 114.216V188.637Z" fill="white"/>
<path fill-rule="evenodd" clip-rule="evenodd" d="M83.0637 107.216C79.2047 107.216 76.0637 110.357 76.0637 114.216V188.71C76.0637 192.57 79.2047 195.71 83.0637 195.71H97.0957C98.2007 195.71 99.0957 196.606 99.0957 197.71V225.265L125.074 199.223C127.452 196.934 130.623 195.637 133.801 195.637H217.443C221.302 195.637 224.443 192.496 224.443 188.637V114.216C224.443 110.357 221.302 107.216 217.443 107.216H83.0637ZM96.3317 231.951C95.5847 231.642 95.0957 230.912 95.0957 230.103V199.711H83.0637C76.9987 199.711 72.0637 194.777 72.0637 188.711V114.216C72.0637 108.151 76.9987 103.216 83.0637 103.216H217.443C223.508 103.216 228.443 108.151 228.443 114.216V188.637C228.443 194.703 223.508 199.638 217.443 199.638H133.801C131.647 199.638 129.487 200.527 127.877 202.077L98.5117 231.515C98.1287 231.899 97.6167 232.103 97.0957 232.103C96.8377 232.103 96.5797 232.053 96.3317 231.951Z" fill="#164194"/>
<path fill-rule="evenodd" clip-rule="evenodd" d="M161.758 82.893C161.479 83.731 160.699 84.262 159.861 84.262C159.652 84.262 159.438 84.228 159.228 84.158C158.18 83.808 157.614 82.676 157.963 81.628L162.049 69.369C162.398 68.322 163.527 67.753 164.58 68.104C165.627 68.454 166.194 69.587 165.844 70.635L161.758 82.893ZM141.619 82.8934C141.898 83.7314 142.679 84.2614 143.516 84.2614C143.725 84.2614 143.939 84.2284 144.149 84.1584C145.197 83.8084 145.764 82.6754 145.414 81.6274L141.328 69.3694C140.979 68.3224 139.85 67.7524 138.798 68.1044C137.75 68.4544 137.183 69.5864 137.533 70.6344L141.619 82.8934ZM128.586 91.8464C129.367 91.0653 129.367 89.7994 128.586 89.0184L120.414 80.8464C119.633 80.0654 118.367 80.0654 117.586 80.8464C116.805 81.6274 116.805 82.8934 117.586 83.6744L125.758 91.8464C126.149 92.2374 126.66 92.4324 127.172 92.4324C127.684 92.4324 128.195 92.2374 128.586 91.8464ZM182.964 80.8464L174.792 89.0184C174.011 89.7994 174.011 91.0654 174.792 91.8464C175.183 92.2374 175.694 92.4324 176.206 92.4324C176.718 92.4324 177.229 92.2374 177.62 91.8464L185.792 83.6744C186.573 82.8934 186.573 81.6274 185.792 80.8464C185.011 80.0654 183.745 80.0654 182.964 80.8464ZM126.065 150.534C126.065 136.726 137.257 125.534 151.065 125.534C164.872 125.534 176.065 136.726 176.065 150.534C176.065 164.341 164.872 175.534 151.065 175.534C137.257 175.534 126.065 164.341 126.065 150.534ZM122.065 150.534C122.065 166.55 135.048 179.534 151.065 179.534C167.081 179.534 180.065 166.55 180.065 150.534C180.065 134.517 167.082 121.534 151.065 121.534C135.048 121.534 122.065 134.517 122.065 150.534ZM153.895 150.534L163.28 141.148L163.396 141.021C164.058 140.235 164.019 139.06 163.28 138.32C162.499 137.539 161.232 137.539 160.451 138.32L151.066 147.705L141.68 138.32L141.553 138.203C140.767 137.541 139.591 137.58 138.851 138.32C138.071 139.101 138.071 140.367 138.851 141.148L148.237 150.534L138.851 159.92L138.734 160.048C138.072 160.833 138.111 162.009 138.851 162.749C139.632 163.529 140.899 163.529 141.679 162.749L151.066 153.363L160.452 162.749L160.579 162.865C161.365 163.527 162.541 163.488 163.28 162.749C164.061 161.968 164.061 160.701 163.28 159.92L153.895 150.534Z" fill="#D0141B"/>
</svg>
