<svg width="151" height="150" viewBox="0 0 151 150" fill="none" xmlns="http://www.w3.org/2000/svg">
<circle cx="75.5" cy="75" r="50" fill="#39A8E5" fill-opacity="0.2"/>
<path d="M114.477 94.2824C114.477 95.5037 113.992 96.675 113.128 97.5386C112.264 98.4022 111.093 98.8874 109.872 98.8874H67.0754C65.6773 98.8974 64.3371 99.4474 63.3351 100.422L48.2919 115.496V98.9232H41.1285C39.9072 98.9232 38.7358 98.4381 37.8722 97.5744C37.0086 96.7108 36.5234 95.5395 36.5234 94.3182V56.2037C36.5234 54.9823 37.0086 53.811 37.8722 52.9474C38.7358 52.0838 39.9072 51.5986 41.1285 51.5986H109.872C111.093 51.5986 112.264 52.0838 113.128 52.9474C113.992 53.811 114.477 54.9823 114.477 56.2037V94.2824Z" fill="white"/>
<path d="M48.2918 116.525C48.1579 116.525 48.0255 116.497 47.9029 116.443C47.7161 116.366 47.5561 116.236 47.4432 116.068C47.3303 115.901 47.2695 115.703 47.2685 115.501V99.9465H41.1284C39.6357 99.9465 38.204 99.3535 37.1485 98.298C36.093 97.2424 35.5 95.8108 35.5 94.3181V56.2036C35.5 54.7108 36.093 53.2792 37.1485 52.2237C38.204 51.1682 39.6357 50.5752 41.1284 50.5752H109.872C111.364 50.5752 112.796 51.1682 113.851 52.2237C114.907 53.2792 115.5 54.7108 115.5 56.2036V94.2823C115.5 95.775 114.907 97.2066 113.851 98.2621C112.796 99.3177 111.364 99.9107 109.872 99.9107H67.0753C65.9426 99.9219 64.8579 100.369 64.0462 101.159L49.0184 116.248C48.822 116.432 48.5609 116.532 48.2918 116.525ZM41.1284 52.6219C40.1785 52.6219 39.2674 52.9992 38.5957 53.6709C37.924 54.3426 37.5467 55.2537 37.5467 56.2036V94.3181C37.5467 95.268 37.924 96.179 38.5957 96.8507C39.2674 97.5224 40.1785 97.8998 41.1284 97.8998H48.2918C48.5632 97.8998 48.8235 98.0076 49.0154 98.1995C49.2073 98.3914 49.3152 98.6517 49.3152 98.9231V113.025L62.6186 99.7213C63.8166 98.5583 65.416 97.9006 67.0855 97.8844H109.882C110.832 97.8844 111.743 97.5071 112.414 96.8354C113.086 96.1637 113.464 95.2527 113.464 94.3027V56.2036C113.464 55.2537 113.086 54.3426 112.414 53.6709C111.743 52.9992 110.832 52.6219 109.882 52.6219H41.1284Z" fill="#003DA5"/>
<path fill-rule="evenodd" clip-rule="evenodd" d="M70.5195 34.7543C70.4829 34.6201 70.4194 34.4948 70.3327 34.3859C70.2461 34.2771 70.1381 34.1871 70.0155 34.1213C69.8929 34.0556 69.7581 34.0156 69.6195 34.0037C69.4809 33.9919 69.3413 34.0084 69.2093 34.0523C69.0773 34.0961 68.9556 34.1665 68.8517 34.259C68.7478 34.3515 68.6638 34.4642 68.6049 34.5903C68.5461 34.7163 68.5135 34.8531 68.5093 34.9921C68.505 35.1312 68.5292 35.2696 68.5803 35.3991L70.6679 41.6722C70.7357 41.8764 70.8661 42.054 71.0406 42.1799C71.2151 42.3057 71.4249 42.3733 71.6401 42.3731C71.7496 42.3734 71.8584 42.3562 71.9624 42.322C72.0901 42.2798 72.2083 42.2127 72.3101 42.1248C72.4119 42.0369 72.4954 41.9297 72.5558 41.8095C72.6161 41.6892 72.6522 41.5583 72.6619 41.4241C72.6716 41.2899 72.6547 41.1551 72.6122 41.0274L70.5195 34.7543ZM59.82 40.6284C59.7271 40.5255 59.6143 40.4426 59.4883 40.3846C59.3624 40.3267 59.226 40.2949 59.0874 40.2912C58.9489 40.2876 58.811 40.3121 58.6822 40.3634C58.5534 40.4146 58.4363 40.4915 58.3381 40.5893C58.2399 40.6872 58.1626 40.804 58.1109 40.9326C58.0592 41.0612 58.0342 41.199 58.0374 41.3376C58.0405 41.4762 58.0718 41.6127 58.1293 41.7388C58.1869 41.865 58.2694 41.9781 58.372 42.0713L62.5523 46.2568C62.6474 46.3519 62.7603 46.4273 62.8845 46.4788C63.0087 46.5302 63.1419 46.5567 63.2764 46.5567C63.4108 46.5567 63.544 46.5302 63.6682 46.4788C63.7924 46.4273 63.9053 46.3519 64.0004 46.2568C64.0954 46.1618 64.1709 46.0489 64.2223 45.9246C64.2738 45.8004 64.3003 45.6673 64.3003 45.5328C64.3003 45.3984 64.2738 45.2652 64.2223 45.141C64.1709 45.0168 64.0954 44.9039 64.0004 44.8088L59.82 40.6284ZM82.0193 34.0548C82.1535 34.0451 82.2882 34.062 82.4159 34.1044C82.5442 34.1466 82.6629 34.2138 82.7652 34.3021C82.8674 34.3904 82.9511 34.4981 83.0115 34.6189C83.0719 34.7397 83.1078 34.8713 83.1171 35.006C83.1264 35.1408 83.109 35.2761 83.0657 35.4041L80.973 41.6772C80.9055 41.8805 80.7758 42.0576 80.6023 42.1834C80.4288 42.3092 80.2202 42.3773 80.0059 42.3782C79.8947 42.379 79.7841 42.3617 79.6785 42.327C79.4214 42.2407 79.2092 42.0558 79.0883 41.8131C78.9674 41.5704 78.9478 41.2896 79.0338 41.0325L81.1214 34.7542C81.1636 34.6265 81.2306 34.5083 81.3186 34.4065C81.4065 34.3047 81.5137 34.2212 81.6339 34.1609C81.7541 34.1005 81.8851 34.0645 82.0193 34.0548ZM93.274 40.6284C93.179 40.5332 93.0661 40.4578 92.9419 40.4063C92.8176 40.3548 92.6845 40.3282 92.55 40.3282C92.4155 40.3282 92.2823 40.3548 92.1581 40.4063C92.0339 40.4578 91.921 40.5332 91.826 40.6284L87.6456 44.8087C87.4689 45.0031 87.3737 45.258 87.3797 45.5206C87.3857 45.7832 87.4924 46.0335 87.6778 46.2196C87.8633 46.4057 88.1132 46.5133 88.3758 46.5202C88.6384 46.5271 88.8936 46.4328 89.0885 46.2568L93.274 42.0713C93.4646 41.8796 93.5716 41.6202 93.5716 41.3498C93.5716 41.0795 93.4646 40.8201 93.274 40.6284ZM75.3485 61.3972C75.0771 61.3972 74.8168 61.505 74.6249 61.6969C74.433 61.8889 74.3252 62.1492 74.3252 62.4206V76.5632C74.3252 76.8346 74.433 77.0949 74.6249 77.2868C74.8168 77.4787 75.0771 77.5865 75.3485 77.5865C75.6199 77.5865 75.8802 77.4787 76.0721 77.2868C76.2641 77.0949 76.3719 76.8346 76.3719 76.5632V62.4206C76.3719 62.1492 76.2641 61.8889 76.0721 61.6969C75.8802 61.505 75.6199 61.3972 75.3485 61.3972ZM75.3485 82.9897C75.0771 82.9897 74.8168 83.0975 74.6249 83.2894C74.433 83.4814 74.3252 83.7417 74.3252 84.0131V87.9427C74.3252 88.2141 74.433 88.4744 74.6249 88.6663C74.8168 88.8582 75.0771 88.966 75.3485 88.966C75.6199 88.966 75.8802 88.8582 76.0721 88.6663C76.2641 88.4744 76.3719 88.2141 76.3719 87.9427V84.0131C76.3719 83.7417 76.2641 83.4814 76.0721 83.2894C75.8802 83.0975 75.6199 82.9897 75.3485 82.9897Z" fill="#39A8E5"/>
</svg>
