<svg width="100" height="100" viewBox="0 0 100 100" fill="none" xmlns="http://www.w3.org/2000/svg">
<g opacity="0.2">
<path d="M50 83.2918C68.3866 83.2918 83.2918 68.3864 83.2918 49.9999C83.2918 31.6133 68.3866 16.7082 50 16.7082C31.6135 16.7082 16.7083 31.6133 16.7083 49.9999C16.7083 68.3864 31.6135 83.2918 50 83.2918Z" fill="#39A8E5"/>
</g>
<path fill-rule="evenodd" clip-rule="evenodd" d="M61.4714 61.7315C62.387 61.6747 61.8318 61.7221 62.6599 61.7303C62.8003 61.7317 62.9141 61.6156 62.9107 61.4752C62.8231 57.8457 63.0223 54.3382 67.6481 52.6259C67.7917 52.5727 67.8609 52.4049 67.7971 52.2657C67.3572 51.3067 67.0069 49.898 66.833 48.8778C66.2629 45.5401 67.3833 42.8213 69.5255 40.5322C69.5949 40.458 69.614 40.3489 69.5716 40.2565C65.5503 31.4918 56.0135 26.1657 46.0505 27.8745C34.1626 29.9112 26.1761 41.1926 28.2061 53.0622C30.0609 63.9173 38.9034 73.121 54.4578 71.1118C54.6156 71.0915 54.7166 70.9293 54.6707 70.777C53.6346 67.3382 55.7756 62.0846 61.4714 61.7315Z" fill="white"/>
<path fill-rule="evenodd" clip-rule="evenodd" d="M45.9452 27.26C56.1932 25.5024 66.002 30.9812 70.1383 39.9965C70.289 40.3251 70.2184 40.7042 69.9807 40.9582C67.9451 43.1333 66.9164 45.6627 67.4475 48.7728L67.4476 48.773C67.6174 49.7693 67.9564 51.1175 68.3638 52.0058C68.5782 52.4734 68.35 53.0309 67.8646 53.2105C65.7002 54.0117 64.6361 55.198 64.0908 56.5629C63.5266 57.9751 63.49 59.6398 63.534 61.4602C63.5458 61.9507 63.1491 62.3586 62.6538 62.3537C62.289 62.3501 62.1655 62.3386 62.0925 62.3318C62.0778 62.3304 62.0652 62.3292 62.053 62.3283C62.0263 62.3264 61.9876 62.3241 61.51 62.3537C58.8693 62.5174 57.0897 63.8053 56.0752 65.4276C55.0466 67.0726 54.8047 69.0606 55.2676 70.5971C55.4203 71.1039 55.0918 71.6586 54.5377 71.7301C46.6183 72.7531 40.3471 70.9251 35.8122 67.4035C31.2851 63.8878 28.5413 58.7253 27.5916 53.1673C25.5034 40.9579 33.7185 29.3549 45.9451 27.26M68.9 40.2913C64.9347 31.9115 55.7482 26.8438 46.1559 28.4889L46.1558 28.4889C34.6068 30.4677 26.8487 41.4273 28.8207 52.9571L28.8207 52.9572C29.7257 58.2542 32.3306 63.121 36.577 66.4187C40.739 69.6508 46.5289 71.4151 53.9649 70.5444C53.5493 68.7213 53.897 66.5592 55.018 64.7666C56.2389 62.8141 58.3777 61.2986 61.4328 61.1092C61.8708 61.0821 62.0123 61.0751 62.1439 61.0848C62.1602 61.0859 62.175 61.0873 62.191 61.0888C62.2149 61.0911 62.2414 61.0936 62.2792 61.096C62.25 59.4067 62.3115 57.6559 62.9329 56.1003C63.5884 54.4597 64.8409 53.0912 67.0813 52.1774C66.6821 51.1833 66.3772 49.9141 66.2184 48.9827" fill="#003DA5"/>
<path fill-rule="evenodd" clip-rule="evenodd" d="M51.158 31.3406C50.1947 29.2879 47.747 28.4047 45.6902 29.3699C43.6334 30.3352 42.7486 32.7823 43.712 34.835C44.6753 36.8877 47.123 37.771 49.1798 36.8057C51.2366 35.8405 52.1213 33.3933 51.158 31.3406ZM45.1604 28.2412C47.8394 26.984 51.0303 28.1335 52.2867 30.8109C53.5432 33.4883 52.3884 36.6773 49.7095 37.9345C47.0306 39.1917 43.8397 38.0421 42.5832 35.3648C41.3267 32.6874 42.4815 29.4984 45.1604 28.2412Z" fill="#003DA5"/>
<path fill-rule="evenodd" clip-rule="evenodd" d="M60.4251 43.069C59.5878 41.2848 57.4603 40.517 55.6724 41.3561C53.8845 42.1951 53.1155 44.3223 53.9528 46.1064C54.7901 47.8906 56.9177 48.6584 58.7056 47.8193C60.4935 46.9802 61.2624 44.8531 60.4251 43.069ZM55.1426 40.2273C57.5527 39.0963 60.4234 40.1304 61.5539 42.5392C62.6844 44.948 61.6454 47.817 59.2353 48.9481C56.8253 50.0791 53.9545 49.045 52.8241 46.6362C51.6936 44.2273 52.7326 41.3583 55.1426 40.2273Z" fill="#003DA5"/>
<path fill-rule="evenodd" clip-rule="evenodd" d="M36.7564 55.6513C35.9949 54.0287 34.0599 53.3304 32.4338 54.0935C30.8076 54.8567 30.1083 56.7913 30.8698 58.4139C31.6313 60.0365 33.5662 60.7349 35.1924 59.9717C36.8186 59.2086 37.5178 57.2739 36.7564 55.6513ZM31.904 52.9648C34.1523 51.9096 36.8305 52.8743 37.8851 55.1216C38.9398 57.3689 37.9704 60.0454 35.7221 61.1005C33.4738 62.1556 30.7957 61.1909 29.741 58.9436C28.6864 56.6964 29.6557 54.0199 31.904 52.9648Z" fill="#003DA5"/>
<path fill-rule="evenodd" clip-rule="evenodd" d="M46.6623 42.5316C46.2227 41.5949 45.1054 41.1912 44.1659 41.6321C43.2264 42.073 42.8228 43.1904 43.2624 44.1272C43.702 45.0639 44.8194 45.4675 45.7589 45.0266C46.6984 44.5857 47.1019 43.4683 46.6623 42.5316ZM43.6361 40.5034C45.1977 39.7705 47.0583 40.4405 47.7911 42.0019C48.5239 43.5633 47.8503 45.4225 46.2886 46.1554C44.727 46.8883 42.8664 46.2183 42.1337 44.6569C41.4009 43.0955 42.0745 41.2362 43.6361 40.5034Z" fill="#003DA5"/>
<path fill-rule="evenodd" clip-rule="evenodd" d="M43.1622 62.1789C42.9197 61.6621 42.3028 61.4389 41.7838 61.6825C41.2647 61.9261 41.0422 62.5432 41.2848 63.06C41.5273 63.5768 42.1441 63.8 42.6632 63.5564C43.1823 63.3128 43.4047 62.6957 43.1622 62.1789ZM41.254 60.5538C42.3952 60.0182 43.7553 60.5077 44.291 61.6492C44.8267 62.7907 44.3341 64.1496 43.1929 64.6852C42.0517 65.2207 40.6917 64.7312 40.156 63.5897C39.6203 62.4483 40.1128 61.0893 41.254 60.5538Z" fill="#003DA5"/>
<path d="M59.6025 71.2773C60.4296 73.0397 62.5306 73.7971 64.2951 72.969C66.0597 72.1409 66.8196 70.0409 65.9925 68.2785C65.1654 66.516 63.0644 65.7586 61.2999 66.5867C59.5354 67.4148 58.7754 69.5148 59.6025 71.2773Z" fill="white"/>
<path fill-rule="evenodd" clip-rule="evenodd" d="M65.4279 68.5433C64.7474 67.0932 63.018 66.4689 61.5646 67.1511C60.1111 67.8332 59.4862 69.5623 60.1667 71.0124C60.8472 72.4625 62.5766 73.0868 64.0301 72.4046C65.4835 71.7225 66.1084 69.9934 65.4279 68.5433ZM61.0348 66.0223C63.1104 65.0482 65.583 65.9388 66.5567 68.0136C67.5304 70.0883 66.6354 72.5593 64.5598 73.5334C62.4842 74.5075 60.0116 73.6169 59.038 71.5421C58.0643 69.4674 58.9592 66.9964 61.0348 66.0223Z" fill="#003DA5"/>
<path d="M71.0093 67.0468C71.2501 67.5599 71.8618 67.7804 72.3754 67.5393C72.8891 67.2982 73.1104 66.6868 72.8696 66.1738C72.6288 65.6607 72.0172 65.4402 71.5035 65.6813C70.9898 65.9223 70.7686 66.5337 71.0093 67.0468Z" fill="#003DA5"/>
<path fill-rule="evenodd" clip-rule="evenodd" d="M72.3052 66.4387C72.211 66.2379 71.971 66.1506 71.7684 66.2457C71.5658 66.3408 71.4796 66.5812 71.5738 66.7819C71.668 66.9827 71.908 67.07 72.1106 66.9749C72.3133 66.8798 72.3995 66.6394 72.3052 66.4387ZM71.2387 65.1169C72.0634 64.7298 73.0466 65.0835 73.434 65.9089C73.8214 66.7343 73.4651 67.7166 72.6404 68.1037C71.8156 68.4907 70.8324 68.1371 70.445 67.3117C70.0576 66.4863 70.4139 65.504 71.2387 65.1169Z" fill="#003DA5"/>
<path d="M71.3624 46.6943C71.5227 47.0358 71.9297 47.1825 72.2716 47.0221C72.6135 46.8617 72.7607 46.4548 72.6005 46.1133C72.4402 45.7718 72.0332 45.6251 71.6913 45.7855C71.3494 45.946 71.2021 46.3528 71.3624 46.6943Z" fill="#003DA5"/>
<path fill-rule="evenodd" clip-rule="evenodd" d="M72.0361 46.3782C72.0225 46.349 71.987 46.3354 71.9562 46.3499C71.9254 46.3644 71.9132 46.4003 71.9268 46.4295C71.9405 46.4586 71.976 46.4722 72.0068 46.4577C72.0376 46.4433 72.0498 46.4073 72.0361 46.3782ZM71.4264 45.2211C72.0794 44.9147 72.8581 45.1946 73.1649 45.8484C73.4717 46.5023 73.1895 47.2801 72.5365 47.5865C71.8836 47.8929 71.1049 47.613 70.7981 46.9592C70.4912 46.3054 70.7735 45.5276 71.4264 45.2211Z" fill="#003DA5"/>
<path d="M69.0507 59.0552C69.1909 59.3539 69.547 59.4823 69.846 59.342C70.1451 59.2016 70.2739 58.8457 70.1337 58.547C69.9935 58.2482 69.6374 58.1199 69.3384 58.2602C69.0393 58.4006 68.9105 58.7565 69.0507 59.0552Z" fill="#003DA5"/>
<path fill-rule="evenodd" clip-rule="evenodd" d="M69.5694 58.8118C69.5758 58.8255 69.5913 58.8302 69.6033 58.8246C69.6153 58.819 69.6215 58.804 69.6151 58.7904C69.6087 58.7768 69.5932 58.772 69.5812 58.7776C69.5692 58.7832 69.563 58.7982 69.5694 58.8118ZM69.0735 57.6959C69.6837 57.4095 70.4114 57.6711 70.6981 58.2821C70.9849 58.8932 70.7211 59.62 70.1109 59.9064C69.5008 60.1927 68.7731 59.9312 68.4863 59.3201C68.1996 58.7091 68.4634 57.9822 69.0735 57.6959Z" fill="#003DA5"/>
<path fill-rule="evenodd" clip-rule="evenodd" d="M32.9176 73.0673C33.1931 73.0673 33.4164 73.2906 33.4164 73.5661C33.4164 75.6291 35.0915 77.3066 37.157 77.3066C37.4325 77.3066 37.6558 77.5299 37.6558 77.8053C37.6558 78.0808 37.4325 78.3041 37.157 78.3041C35.094 78.3041 33.4164 79.9794 33.4164 82.0449C33.4164 82.3203 33.1931 82.5436 32.9176 82.5436C32.6421 82.5436 32.4188 82.3203 32.4188 82.0449C32.4188 79.9818 30.7436 78.3041 28.6782 78.3041C28.4027 78.3041 28.1794 78.0808 28.1794 77.8053C28.1794 77.5299 28.4027 77.3066 28.6782 77.3066C30.7413 77.3066 32.4188 75.6315 32.4188 73.5661C32.4188 73.2906 32.6421 73.0673 32.9176 73.0673ZM32.9177 75.6831C32.4587 76.5995 31.7114 77.3466 30.7952 77.8053C31.7117 78.2642 32.4588 79.0116 32.9175 79.9278C33.3764 79.0113 34.1238 78.2642 35.04 77.8054C34.1235 77.3465 33.3764 76.5992 32.9177 75.6831Z" fill="#39A8E5"/>
<path fill-rule="evenodd" clip-rule="evenodd" d="M66.8329 17.7057C67.1083 17.7057 67.3316 17.929 67.3316 18.2045C67.3316 20.2676 69.0068 21.945 71.0723 21.945C71.3477 21.945 71.571 22.1683 71.571 22.4438C71.571 22.7192 71.3477 22.9425 71.0723 22.9425C69.0092 22.9425 67.3316 24.6178 67.3316 26.6833C67.3316 26.9588 67.1083 27.1821 66.8329 27.1821C66.5574 27.1821 66.3341 26.9588 66.3341 26.6833C66.3341 24.6202 64.6589 22.9425 62.5935 22.9425C62.318 22.9425 62.0947 22.7192 62.0947 22.4438C62.0947 22.1683 62.318 21.945 62.5935 21.945C64.6566 21.945 66.3341 20.27 66.3341 18.2045C66.3341 17.929 66.5574 17.7057 66.8329 17.7057ZM66.8329 20.3215C66.374 21.2379 65.6267 21.985 64.7105 22.4437C65.627 22.9027 66.374 23.6501 66.8328 24.5662C67.2917 23.6498 68.0391 22.9027 68.9552 22.4439C68.0388 21.985 67.2917 21.2376 66.8329 20.3215Z" fill="#39A8E5"/>
<path fill-rule="evenodd" clip-rule="evenodd" d="M18.9526 46.1347C19.2281 46.1347 19.4514 46.358 19.4514 46.6334C19.4514 47.3222 20.0095 47.8803 20.6983 47.8803C20.9737 47.8803 21.197 48.1036 21.197 48.3791C21.197 48.6545 20.9737 48.8778 20.6983 48.8778C20.0095 48.8778 19.4514 49.436 19.4514 50.1247C19.4514 50.4002 19.2281 50.6235 18.9526 50.6235C18.6772 50.6235 18.4539 50.4002 18.4539 50.1247C18.4539 49.436 17.8957 48.8778 17.207 48.8778C16.9316 48.8778 16.7083 48.6545 16.7083 48.3791C16.7083 48.1036 16.9316 47.8803 17.207 47.8803C17.8957 47.8803 18.4539 47.3222 18.4539 46.6334C18.4539 46.358 18.6772 46.1347 18.9526 46.1347ZM18.9526 48.0443C18.8531 48.1673 18.7409 48.2795 18.6179 48.3791C18.7409 48.4786 18.8531 48.5908 18.9526 48.7138C19.0522 48.5908 19.1644 48.4786 19.2874 48.3791C19.1644 48.2795 19.0522 48.1673 18.9526 48.0443Z" fill="#39A8E5"/>
<path d="M66.2095 49.0025C65.2101 44.8882 67.5395 41.3134 68.9526 40.2743L68.0797 43.3915L67.2069 46.2594V49.1272C67.4563 51.0391 66.2701 49.2519 66.2095 49.0025Z" fill="#003DA5"/>
</svg>
