<svg width="300" height="300" viewBox="0 0 300 300" fill="none" xmlns="http://www.w3.org/2000/svg">
<circle cx="150" cy="150" r="100" fill="#39A8E5" fill-opacity="0.2"/>
<path fill-rule="evenodd" clip-rule="evenodd" d="M142.114 56.7659C141.359 56.7659 140.654 56.2882 140.402 55.5329L135.677 41.3736C135.362 40.429 135.873 39.4087 136.818 39.0932C137.765 38.7778 138.786 39.2888 139.101 40.2334L143.826 54.3927C144.141 55.3373 143.631 56.3576 142.685 56.6731C142.495 56.7362 142.302 56.7659 142.114 56.7659ZM123.214 66.2048C122.752 66.2048 122.29 66.0291 121.939 65.6767L112.489 56.2369C111.784 55.5338 111.784 54.3918 112.489 53.6879C113.193 52.9839 114.336 52.9839 115.041 53.6879L124.49 63.1277C125.195 63.8316 125.195 64.9727 124.49 65.6767C124.138 66.0291 123.676 66.2048 123.214 66.2048ZM160.442 56.673C160.631 56.7361 160.823 56.7659 161.013 56.7659C161.768 56.7659 162.473 56.2881 162.724 55.5328L167.45 41.3736C167.765 40.429 167.254 39.4087 166.308 39.0932C165.363 38.7795 164.341 39.2888 164.026 40.2334L159.3 54.3926C158.985 55.3372 159.496 56.3576 160.442 56.673ZM179.913 66.2048C179.451 66.2048 178.989 66.0291 178.637 65.6767C177.932 64.9727 177.932 63.8316 178.637 63.1277L188.086 53.6879C188.791 52.9839 189.933 52.9839 190.638 53.6879C191.343 54.3918 191.343 55.5338 190.638 56.2369L181.188 65.6767C180.836 66.0291 180.375 66.2048 179.913 66.2048ZM149.422 194.195C149.422 195.186 148.619 195.998 147.617 195.998H142.98C141.987 195.998 141.175 195.186 141.175 194.195C141.175 193.194 141.987 192.392 142.98 192.392H147.617C148.619 192.392 149.422 193.194 149.422 194.195ZM176.527 194.195C176.527 195.186 175.724 195.998 174.723 195.998H153.843C152.851 195.998 152.039 195.186 152.039 194.195C152.039 193.194 152.851 192.392 153.843 192.392H174.723C175.724 192.392 176.527 193.194 176.527 194.195Z" fill="#39A8E5"/>
<path fill-rule="evenodd" clip-rule="evenodd" d="M227.597 162.765L228.662 161.512L228.256 161.161H228.247L210.86 146.379L209.217 144.982L207.25 143.314L207.241 148.037V148.046L209.217 149.723L210.85 151.111L224.602 162.801L226.045 164.027L226.325 164.261L227.597 162.765ZM94.2194 148.244V143.53L92.6313 144.873L90.6102 146.577L73.5026 161.044H73.4936L72.9432 161.512C72.1852 162.152 72.086 163.297 72.7356 164.054C73.0875 164.478 73.6018 164.694 74.1071 164.694C74.1793 164.694 74.2515 164.694 74.3147 164.676C74.6575 164.64 74.9914 164.505 75.2711 164.261L75.7132 163.892L76.9403 162.855L90.6102 151.3L92.6313 149.587L94.2194 148.244Z" fill="#39A8E5" fill-opacity="0.4"/>
<path fill-rule="evenodd" clip-rule="evenodd" d="M153.617 195.913H174.498C175.5 195.913 176.303 195.103 176.303 194.113C176.303 193.114 175.5 192.313 174.498 192.313H153.617C152.625 192.313 151.813 193.114 151.813 194.113C151.813 195.103 152.625 195.913 153.617 195.913ZM145.009 176.76C145.009 177.75 145.812 178.56 146.814 178.56H157.913C158.905 178.56 159.717 177.75 159.717 176.76C159.717 175.77 158.905 174.96 157.913 174.96H146.814C145.812 174.96 145.009 175.77 145.009 176.76ZM142.753 195.913H147.391C148.393 195.913 149.196 195.103 149.196 194.113C149.196 193.114 148.393 192.313 147.391 192.313H142.753C141.761 192.313 140.948 193.114 140.948 194.113C140.948 195.103 141.761 195.913 142.753 195.913ZM126.899 159.156H136.897C137.899 159.156 138.702 158.346 138.702 157.356C138.702 156.357 137.899 155.555 136.897 155.555H126.899C125.897 155.555 125.094 156.357 125.094 157.356C125.094 158.346 125.897 159.156 126.899 159.156ZM126.899 178.56H136.41C137.411 178.56 138.214 177.75 138.214 176.76C138.214 175.77 137.411 174.96 136.41 174.96H126.899C125.897 174.96 125.094 175.77 125.094 176.76C125.094 177.75 125.897 178.56 126.899 178.56ZM149.44 136.61H126.899C125.897 136.61 125.094 137.42 125.094 138.41C125.094 139.409 125.897 140.21 126.899 140.21H149.44C150.441 140.21 151.244 139.409 151.244 138.41C151.244 137.42 150.441 136.61 149.44 136.61ZM158.346 140.21H173.749C174.742 140.21 175.554 139.409 175.554 138.41C175.554 137.42 174.742 136.61 173.749 136.61H158.346C157.344 136.61 156.541 137.42 156.541 138.41C156.541 139.409 157.344 140.21 158.346 140.21ZM173.749 178.56C174.741 178.56 175.554 177.75 175.554 176.76C175.554 175.77 174.741 174.96 173.749 174.96H166.566C165.574 174.96 164.761 175.77 164.761 176.76C164.761 177.75 165.574 178.56 166.566 178.56H173.749ZM145.289 159.156H173.749C174.742 159.156 175.554 158.346 175.554 157.356C175.554 156.357 174.742 155.555 173.749 155.555H145.289C144.287 155.555 143.484 156.357 143.484 157.356C143.484 158.346 144.287 159.156 145.289 159.156ZM173.749 117.664H126.899C125.897 117.664 125.094 118.474 125.094 119.464C125.094 120.193 125.518 120.814 126.141 121.102C126.366 121.21 126.628 121.264 126.899 121.264H173.749C174.209 121.264 174.633 121.093 174.949 120.805C175.319 120.481 175.554 119.995 175.554 119.464C175.554 118.474 174.742 117.664 173.749 117.664ZM92.4018 96.5766V86.9553H207.055L207.028 143.306L207.019 148.022V148.031L207.01 177.516L150.721 225.317L93.99 177.408V98.3587C93.99 97.4406 93.3042 96.6846 92.4018 96.5766ZM225.301 247.395L225.391 166.626L210.619 179.173L208.995 180.55L207.01 182.242L176.447 208.199L201.118 226.37L203.563 228.17L205.999 229.97L217.414 238.377C218.217 238.962 218.389 240.087 217.793 240.888C217.441 241.365 216.9 241.626 216.34 241.626C215.97 241.626 215.6 241.509 215.275 241.266L199.935 229.97L195.045 226.37L173.623 210.602L155.052 226.37L152.932 228.17L151.894 229.052C151.217 229.619 150.234 229.628 149.557 229.052L148.51 228.17L146.381 226.37L128.451 211.232C128.415 211.268 128.379 211.304 128.334 211.34L108.031 226.37L103.176 229.97L88.2331 241.032C87.9173 241.275 87.5383 241.392 87.1593 241.392C86.6089 241.392 86.0675 241.14 85.7155 240.663C85.12 239.862 85.2824 238.737 86.0855 238.143L97.1213 229.97L99.5486 228.17L101.985 226.37L125.636 208.856L93.9901 182.134L92.402 180.793L90.3807 179.083L75.6092 166.608V247.395H225.301Z" fill="white"/>
<path fill-rule="evenodd" clip-rule="evenodd" d="M210.629 146.365L210.656 85.1499C210.656 84.6729 210.467 84.2138 210.133 83.8808C209.79 83.5387 209.33 83.3497 208.852 83.3497H92.1844C91.1919 83.3497 90.3798 84.1598 90.3798 85.1499C90.3798 86.14 91.1919 86.9501 92.1844 86.9501H207.047L207.02 143.305L207.011 148.021V148.03L207.002 177.517V177.517L150.717 225.32L93.989 177.409L93.989 98.3541C93.989 97.436 93.3032 96.68 92.4009 96.572C92.3288 96.554 92.2566 96.554 92.1844 96.554C91.1919 96.554 90.3798 97.364 90.3798 98.3541L90.3798 174.357L76.71 162.818L74.9776 161.351C74.4903 160.946 73.8587 160.829 73.2722 161.009H73.2632L73.0467 161.09C72.4151 161.387 72 162.026 72 162.728V249.2C72 250.19 72.8121 251 73.8046 251H227.087C228.089 251 228.892 250.199 228.892 249.2L229 162.728C229 162.053 228.621 161.441 228.025 161.126H228.016C228.003 161.112 227.984 161.104 227.967 161.097L227.967 161.096L227.961 161.094L227.953 161.09C227.313 160.802 226.555 160.901 226.022 161.36L224.371 162.764L210.611 174.447L210.62 151.09L210.629 146.365ZM210.611 179.173V179.173L225.382 166.626L225.292 247.399H75.6092V166.608L90.3798 179.083L90.3798 179.083L92.4009 180.793L93.989 182.134L93.989 182.134L125.633 208.858L101.983 226.373L99.5471 228.174L97.12 229.974L86.0849 238.147C85.3822 238.666 85.17 239.593 85.5269 240.353C85.5779 240.462 85.6405 240.567 85.7149 240.667C85.7589 240.727 85.8059 240.783 85.8554 240.835C85.9546 240.94 86.0641 241.031 86.1813 241.107C86.4742 241.297 86.8146 241.396 87.1586 241.396C87.4902 241.396 87.8218 241.306 88.1111 241.121C88.1524 241.095 88.1929 241.066 88.2323 241.036L103.174 229.974L105.602 228.174L108.029 226.373L128.331 211.342C128.376 211.306 128.412 211.27 128.448 211.234L146.376 226.373L146.377 226.374H146.376L148.506 228.174L149.552 229.056C150.229 229.632 151.213 229.623 151.889 229.056L152.927 228.174L152.927 228.174L155.047 226.374L155.048 226.373L173.617 210.604L195.037 226.373L199.928 229.974L215.267 241.27C215.572 241.498 215.916 241.615 216.262 241.629C216.274 241.629 216.285 241.629 216.297 241.63C216.308 241.63 216.32 241.63 216.332 241.63H216.332C216.821 241.63 217.297 241.43 217.644 241.06C217.693 241.008 217.74 240.951 217.784 240.892L217.784 240.892C218.305 240.191 218.239 239.242 217.677 238.624C217.596 238.535 217.506 238.454 217.405 238.381L205.991 229.974L203.555 228.174L201.11 226.373L176.441 208.201L207.002 182.242L207.002 182.242L208.987 180.55L208.987 180.55L210.611 179.173ZM173.743 159.155C174.736 159.155 175.548 158.345 175.548 157.355C175.548 156.356 174.736 155.555 173.743 155.555H145.285C144.283 155.555 143.48 156.356 143.48 157.355C143.48 158.345 144.283 159.155 145.285 159.155H173.743ZM138.698 157.355C138.698 158.345 137.895 159.155 136.893 159.155H126.896C125.894 159.155 125.091 158.345 125.091 157.355C125.091 156.356 125.894 155.555 126.896 155.555H136.893C137.895 155.555 138.698 156.356 138.698 157.355ZM173.743 140.208C174.736 140.208 175.548 139.407 175.548 138.408C175.548 137.418 174.736 136.608 173.743 136.608H158.341C157.339 136.608 156.536 137.418 156.536 138.408C156.536 139.407 157.339 140.208 158.341 140.208H173.743ZM151.24 138.408C151.24 139.407 150.437 140.208 149.435 140.208H126.896C125.894 140.208 125.091 139.407 125.091 138.408C125.091 137.418 125.894 136.608 126.896 136.608H149.435C150.437 136.608 151.24 137.418 151.24 138.408ZM173.743 178.561C174.736 178.561 175.548 177.751 175.548 176.761C175.548 175.771 174.736 174.96 173.743 174.96H166.561C165.569 174.96 164.756 175.771 164.756 176.761C164.756 177.751 165.569 178.561 166.561 178.561H173.743ZM159.713 176.761C159.713 177.751 158.9 178.561 157.908 178.561H146.81C145.808 178.561 145.005 177.751 145.005 176.761C145.005 175.771 145.808 174.96 146.81 174.96H157.908C158.9 174.96 159.713 175.771 159.713 176.761ZM136.406 178.561C137.408 178.561 138.211 177.751 138.211 176.761C138.211 175.771 137.408 174.96 136.406 174.96H126.896C125.894 174.96 125.091 175.771 125.091 176.761C125.091 177.751 125.894 178.561 126.896 178.561H136.406ZM175.548 119.461C175.548 119.992 175.313 120.478 174.943 120.802C174.628 121.09 174.203 121.261 173.743 121.261H126.896C126.625 121.261 126.364 121.207 126.138 121.099C125.515 120.811 125.091 120.19 125.091 119.461C125.091 118.471 125.894 117.661 126.896 117.661H173.743C174.736 117.661 175.548 118.471 175.548 119.461Z" fill="#164194"/>
</svg>
