<svg width="300" height="300" viewBox="0 0 300 300" fill="none" xmlns="http://www.w3.org/2000/svg">
<circle cx="150" cy="150" r="100" fill="#39A8E5" fill-opacity="0.2"/>
<path fill-rule="evenodd" clip-rule="evenodd" d="M184 229H116C109.4 229 104 223.6 104 217V77C104 70.4 109.4 65 116 65H184C190.6 65 196 70.4 196 77V217C196 223.6 190.6 229 184 229" fill="white"/>
<path fill-rule="evenodd" clip-rule="evenodd" d="M106 77C106 71.486 110.486 67 116 67H184C189.514 67 194 71.486 194 77V217C194 222.514 189.514 227 184 227H116C110.486 227 106 222.514 106 217V211H186C187.104 211 188 210.104 188 209C188 207.896 187.104 207 186 207H106V87H185.5C186.604 87 187.5 86.104 187.5 85C187.5 83.896 186.604 83 185.5 83H106V77ZM102 209V217C102 224.72 108.28 231 116 231H184C191.72 231 198 224.72 198 217V77C198 69.28 191.72 63 184 63H116C108.28 63 102 69.28 102 77V85V209ZM150 76.9999C149.87 76.9999 149.74 76.9889 149.61 76.9599C149.48 76.9389 149.35 76.8989 149.23 76.8499C149.11 76.7999 149 76.7389 148.89 76.6699C148.78 76.5899 148.68 76.5099 148.58 76.4099C148.4 76.2289 148.25 76.0099 148.15 75.7699C148.05 75.5199 148 75.2699 148 74.9999C148 74.8699 148.01 74.7389 148.04 74.6089C148.07 74.4789 148.1 74.3589 148.15 74.2389C148.2 74.1089 148.26 73.9999 148.34 73.8899C148.41 73.7789 148.49 73.6799 148.58 73.5899C149.33 72.8399 150.67 72.8399 151.42 73.5899C151.51 73.6799 151.59 73.7789 151.66 73.8899C151.74 73.9999 151.8 74.1089 151.85 74.2389C151.9 74.3589 151.93 74.4789 151.96 74.6089C151.99 74.7389 152 74.8699 152 74.9999C152 75.2699 151.95 75.5199 151.85 75.7699C151.75 76.0099 151.6 76.2289 151.42 76.4099C151.32 76.5099 151.22 76.5899 151.11 76.6699C151 76.7389 150.89 76.7999 150.77 76.8499C150.65 76.8989 150.52 76.9389 150.39 76.9599C150.26 76.9889 150.13 76.9999 150 76.9999ZM153.5 221H147.5C146.396 221 145.5 220.104 145.5 219C145.5 217.896 146.396 217 147.5 217H153.5C154.604 217 155.5 217.896 155.5 219C155.5 220.104 154.604 221 153.5 221ZM136.102 138.115C136.883 137.334 138.149 137.334 138.93 138.115C139.711 138.896 139.711 140.162 138.93 140.943L135.774 144.099L138.93 147.255C139.711 148.035 139.711 149.302 138.93 150.083C138.539 150.473 138.028 150.669 137.516 150.669C137.004 150.669 136.492 150.473 136.102 150.083L132.946 146.927L129.79 150.083C129.4 150.473 128.888 150.669 128.376 150.669C127.865 150.669 127.353 150.473 126.962 150.083C126.181 149.302 126.181 148.035 126.962 147.255L130.117 144.099L126.962 140.943C126.181 140.162 126.181 138.896 126.962 138.115C127.743 137.334 129.009 137.334 129.79 138.115L132.946 141.271L136.102 138.115ZM169.384 144.099L172.54 140.943C173.322 140.162 173.322 138.896 172.54 138.115C171.759 137.334 170.493 137.334 169.712 138.115L166.556 141.271L163.401 138.115C162.619 137.334 161.354 137.334 160.572 138.115C159.791 138.896 159.791 140.162 160.572 140.943L163.728 144.099L160.572 147.255C159.791 148.036 159.791 149.302 160.572 150.083C160.963 150.474 161.475 150.669 161.987 150.669C162.498 150.669 163.01 150.474 163.401 150.083L166.556 146.927L169.712 150.083C170.103 150.474 170.614 150.669 171.126 150.669C171.638 150.669 172.15 150.474 172.54 150.083C173.322 149.302 173.322 148.036 172.54 147.255L169.384 144.099ZM152.757 138.205C153.538 137.424 154.804 137.424 155.585 138.205C156.366 138.986 156.366 140.252 155.585 141.033L152.429 144.189L155.585 147.345C156.366 148.125 156.366 149.392 155.585 150.173C155.194 150.563 154.683 150.759 154.171 150.759C153.659 150.759 153.147 150.563 152.757 150.173L149.601 147.017L146.444 150.173C146.054 150.563 145.542 150.759 145.03 150.759C144.519 150.759 144.007 150.563 143.616 150.173C142.835 149.392 142.835 148.125 143.616 147.345L146.772 144.189L143.616 141.033C142.835 140.252 142.835 138.986 143.616 138.205C144.397 137.424 145.663 137.424 146.444 138.205L149.601 141.361L152.757 138.205Z" fill="#164194"/>
<path fill-rule="evenodd" clip-rule="evenodd" d="M78.8498 117.851C78.3368 117.851 77.8248 117.656 77.4338 117.264L67.8368 107.648C67.0568 106.866 67.0578 105.599 67.8388 104.819C68.6208 104.038 69.8878 104.039 70.6678 104.822L80.2658 114.438C81.0458 115.22 81.0448 116.487 80.2628 117.267C79.8718 117.657 79.3608 117.851 78.8498 117.851ZM68.591 136.952C68.802 137.022 69.016 137.056 69.226 137.056C70.062 137.056 70.842 136.527 71.122 135.689C71.473 134.642 70.907 133.508 69.86 133.159L55.454 128.342C54.407 127.994 53.273 128.557 52.923 129.605C52.573 130.652 53.138 131.785 54.185 132.135L68.591 136.952ZM54.7928 161.06C53.9548 161.06 53.1738 160.529 52.8958 159.69C52.5468 158.641 53.1148 157.509 54.1628 157.161L68.5778 152.371C69.6248 152.023 70.7578 152.589 71.1058 153.638C71.4548 154.687 70.8868 155.819 69.8388 156.167L55.4238 160.957C55.2148 161.027 55.0018 161.06 54.7928 161.06ZM69.1809 185.089C68.6679 185.089 68.1559 184.894 67.7649 184.502C66.9849 183.72 66.9859 182.454 67.7679 181.673L77.3839 172.075C78.1659 171.297 79.4319 171.297 80.2119 172.078C80.9929 172.86 80.9919 174.126 80.2099 174.907L70.5939 184.505C70.2029 184.894 69.6919 185.089 69.1809 185.089ZM182.723 162.002C182.983 162.002 183.194 161.79 183.194 161.531V124.071C183.194 123.811 182.983 123.6 182.723 123.6H118.07C117.81 123.6 117.599 123.811 117.599 124.071V161.498C117.599 161.757 117.81 161.968 118.07 161.968H157.867C159.54 161.968 161.205 162.648 162.436 163.833L172.735 174.157V163.802C172.735 162.807 173.541 162.002 174.535 162.002H182.723ZM118.07 120H182.723C184.967 120 186.794 121.826 186.794 124.071V161.531C186.794 163.776 184.967 165.601 182.723 165.601H176.335V178.51C176.335 179.239 175.896 179.895 175.222 180.174C175.001 180.265 174.766 180.31 174.535 180.31C174.066 180.31 173.605 180.127 173.26 179.781L159.913 166.401C159.373 165.881 158.617 165.568 157.867 165.568H118.07C115.826 165.568 114 163.742 114 161.498V124.071C114 121.826 115.826 120 118.07 120Z" fill="#39A8E5"/>
</svg>
