<svg width="300" height="300" viewBox="0 0 300 300" fill="none" xmlns="http://www.w3.org/2000/svg">
<circle cx="150" cy="150" r="100" fill="#39A8E5" fill-opacity="0.2"/>
<path fill-rule="evenodd" clip-rule="evenodd" d="M170.573 212.606H178.705C184.462 212.606 189.173 207.895 189.173 202.137V199.313C192.052 200.701 194.967 200.657 196.434 198.958L204.766 189.372C207.778 185.882 207.306 180.494 203.718 177.398L203.019 176.795C202.365 176.231 201.651 175.781 200.903 175.442L204.101 171.763C206.865 168.559 206.432 163.612 203.138 160.77L202.496 160.216C201.377 159.25 200.066 158.647 198.714 158.396L204.099 152.201C206.864 148.997 206.431 144.05 203.137 141.208L202.495 140.654C199.88 138.397 196.215 138.119 193.432 139.705L202.082 131.538C206.396 127.442 207.286 121.309 204.058 117.911L203.429 117.248C200.202 113.849 194.032 114.419 189.718 118.514L189.173 119.029V80.0102C189.173 74.2522 184.462 69.5422 178.705 69.5422H119.386C113.628 69.5422 108.918 74.2522 108.918 80.0102V114.095C105.554 110.932 99.1677 112.102 97.7993 116.479C95.5 123.836 93.8579 129.31 92.5192 133.773L92.519 133.773L92.519 133.773C90.0507 142.001 88.6142 146.79 85.9923 153.602C83.3458 160.479 83.1349 168.978 82.9653 175.813C82.845 180.659 82.7455 184.668 81.8133 186.668C81.5957 187.136 77.885 192.01 73.6488 197.574L73.636 197.59L73.6286 197.6L73.623 197.607C72.5201 199.056 71.382 200.551 70.2611 202.026L67.9512 199.715L50.6682 216.985L99.6512 266L116.933 248.731L112.411 244.206C116.193 240.21 119.317 237.261 122.766 234.004L123.218 233.577C149.123 235.475 163.945 220.672 170.573 212.606ZM190.164 142.789L190.331 142.632L189.173 143.964V143.546C189.526 143.332 189.858 143.08 190.164 142.789ZM189.173 161.01V163.528L190.736 161.73C190.216 161.542 189.692 161.301 189.173 161.01Z" fill="white"/>
<path fill-rule="evenodd" clip-rule="evenodd" d="M200.352 63.579C200.081 63.579 199.807 63.517 199.548 63.389C198.659 62.943 198.299 61.862 198.744 60.974L209.038 40.386C209.482 39.496 210.561 39.135 211.453 39.58C212.342 40.025 212.702 41.106 212.257 41.995L201.963 62.583C201.648 63.214 201.012 63.579 200.352 63.579ZM190.056 61.5193C189.161 61.5193 188.386 60.8533 188.272 59.9433L186.214 43.4723C186.091 42.4853 186.79 41.5853 187.777 41.4623C188.762 41.3333 189.662 42.0393 189.786 43.0253L191.845 59.4963C191.968 60.4833 191.268 61.3823 190.282 61.5053C190.206 61.5153 190.131 61.5193 190.056 61.5193ZM205.003 70.9674C205.344 71.5134 205.931 71.8134 206.531 71.8134C206.857 71.8134 207.187 71.7254 207.484 71.5404L223.954 61.2464C224.797 60.7194 225.053 59.6084 224.527 58.7654C224 57.9224 222.89 57.6644 222.046 58.1934L205.575 68.4874C204.733 69.0134 204.476 70.1254 205.003 70.9674Z" fill="#39A8E5"/>
<path fill-rule="evenodd" clip-rule="evenodd" d="M120.449 141.449C120.449 125.433 133.432 112.449 149.449 112.449C165.466 112.449 178.449 125.433 178.449 141.449C178.449 157.465 165.465 170.449 149.449 170.449C133.433 170.449 120.449 157.465 120.449 141.449ZM174.449 141.449C174.449 127.642 163.256 116.449 149.449 116.449C135.642 116.449 124.449 127.642 124.449 141.449C124.449 155.256 135.642 166.449 149.449 166.449C163.256 166.449 174.449 155.256 174.449 141.449ZM137.235 129.235C137.975 128.495 139.15 128.456 139.936 129.118L140.063 129.235L149.449 138.621L158.835 129.235C159.616 128.454 160.882 128.454 161.663 129.235C162.403 129.975 162.442 131.151 161.78 131.936L161.663 132.064L152.277 141.449L161.663 150.835C162.444 151.616 162.444 152.883 161.663 153.664C160.924 154.404 159.748 154.443 158.962 153.78L158.835 153.664L149.449 144.278L140.063 153.664C139.282 154.445 138.016 154.445 137.235 153.664C136.495 152.924 136.456 151.748 137.118 150.962L137.235 150.835L146.621 141.449L137.235 132.064C136.454 131.283 136.454 130.016 137.235 129.235Z" fill="#D0141B"/>
<path fill-rule="evenodd" clip-rule="evenodd" d="M190.719 159.769L190.726 159.773C190.874 159.841 191.022 159.901 191.17 159.96C191.431 160.069 191.691 160.159 191.948 160.231C192.062 160.262 192.175 160.29 192.287 160.314C192.409 160.34 192.53 160.362 192.65 160.38C192.836 160.407 193.016 160.424 193.189 160.431C193.655 160.449 194.07 160.394 194.41 160.27C194.691 160.169 194.921 160.021 195.09 159.83L197.99 156.49L197.991 156.49L202.74 151.02C203.75 149.85 204.24 148.321 204.1 146.731C203.96 145.111 203.2 143.64 201.96 142.571L201.32 142.02C200.14 141 198.69 140.5 197.26 140.5C196.299 140.5 195.35 140.724 194.501 141.17L191.627 143.885L191.17 144.411L187.17 149.01L185.19 151.291C184.28 152.35 184.96 154.991 187.17 157.18C187.35 157.361 187.53 157.531 187.73 157.701L188.37 158.25C188.96 158.759 189.6 159.2 190.26 159.54L190.26 159.54L190.26 159.54C190.41 159.62 190.56 159.7 190.719 159.769ZM198.886 137.028C200.596 137.317 202.257 138.067 203.67 139.29L204.31 139.849C206.26 141.53 207.46 143.86 207.68 146.41C207.91 148.98 207.12 151.459 205.46 153.379L201.8 157.589L201.8 157.59L201.8 157.59C202.46 157.92 203.09 158.35 203.67 158.85L204.31 159.41C208.37 162.9 208.88 168.97 205.46 172.94L203.66 175.01L203.66 175.01C203.84 175.14 204.02 175.28 204.19 175.43L204.89 176.04C206.99 177.84 208.27 180.34 208.51 183.08C208.75 185.84 207.91 188.49 206.13 190.55L197.79 200.14C196.69 201.41 195.01 202.1 193.06 202.1C192.64 202.1 192.19 202.059 191.74 202C191.55 201.97 191.36 201.94 191.17 201.89L191.17 201.89V202.14C191.17 209.01 185.58 214.611 178.71 214.611H171.25L171.25 214.611C164.18 222.981 149.3 236.981 123.88 235.43C120.79 238.35 118.01 240.981 114.78 244.33L114.78 244.33L118 247.58C118.33 247.92 118.52 248.37 118.52 248.85C118.52 249.33 118.32 249.79 117.99 250.12L100.64 267.33C100.29 267.67 99.8298 267.85 99.3698 267.85C98.9098 267.85 98.4498 267.67 98.0998 267.32L49.2998 218.13C48.9598 217.79 48.7698 217.33 48.7698 216.85C48.7698 216.38 48.9598 215.92 49.3098 215.58L66.6498 198.37C67.3498 197.68 68.4898 197.68 69.1898 198.38L70.0298 199.24L70.0299 199.24C70.6156 198.488 71.1888 197.736 71.7545 196.994L71.7553 196.993C71.904 196.798 72.0521 196.604 72.1999 196.41L72.2389 196.36C75.7493 191.792 79.7118 186.636 80.2199 185.83C80.9667 184.169 81.0859 180.211 81.2131 175.984L81.2199 175.76C81.4099 168.79 81.6499 160.11 84.4399 152.96C87.0445 146.26 88.5225 141.397 90.9469 133.422L90.9899 133.28L91.2776 132.338C92.5776 128.08 94.1819 122.826 96.3399 115.98C97.2199 113.21 99.7399 111.18 102.92 110.68C104.31 110.47 105.67 110.55 106.919 110.91V87.0753C106.918 87.0467 106.918 87.018 106.918 86.9892C106.918 86.9603 106.918 86.9316 106.919 86.9031V80.0095C106.919 73.1395 112.509 67.5405 119.389 67.5405H178.709C185.579 67.5405 191.169 73.1395 191.169 80.0095V115.17C191.17 115.17 191.17 115.17 191.17 115.17C195.86 112.37 201.47 112.57 204.73 116.01L205.36 116.67C207.31 118.72 208.13 121.58 207.68 124.72C207.25 127.7 205.7 130.59 203.32 132.84L198.886 137.028ZM192.338 138.259L200.85 130.231C202.64 128.53 203.8 126.39 204.12 124.21C204.41 122.18 203.93 120.39 202.75 119.15L202.12 118.49C201.07 117.38 199.56 116.84 197.9 116.84C195.68 116.84 193.18 117.8 191.17 119.63C191.17 119.63 191.17 119.63 191.169 119.63V139.1L191.17 139.099C191.54 138.786 191.931 138.506 192.338 138.259ZM191.33 163.79L191.33 163.79L191.17 163.97L187.17 168.58L187.169 168.581L185.19 170.86C184.75 171.37 184.68 172.269 185.01 173.34C185.36 174.5 186.13 175.7 187.17 176.74C187.35 176.92 187.54 177.09 187.73 177.26L188.37 177.82C188.409 177.854 188.448 177.888 188.488 177.921C188.837 178.216 189.195 178.472 189.552 178.705L189.559 178.71L187.17 168.58L190.857 179.403L190.874 180.421L189.04 182.54C189.666 182.84 190.3 183.078 190.921 183.245L191.17 198.17L191.17 198.17C191.54 198.29 191.91 198.38 192.27 198.43C193.531 198.62 194.55 198.39 195.07 197.78L203.41 188.19C204.54 186.88 205.08 185.17 204.92 183.39C204.77 181.6 203.92 179.95 202.54 178.76L201.84 178.16L201.84 178.16C201.66 178.01 201.48 177.86 201.29 177.74L197.81 181.75C196.73 182.99 195.15 183.6 193.37 183.6C192.66 183.6 191.92 183.5 191.17 183.309C191.087 183.289 191.005 183.268 190.921 183.245L190.874 180.421L191.169 180.081V179.531C191.068 179.493 190.964 179.45 190.857 179.403C190.962 179.448 191.066 179.49 191.168 179.529L191.17 179.53C191.242 179.56 191.313 179.586 191.385 179.611C191.407 179.619 191.43 179.626 191.453 179.634L191.531 179.66L191.531 179.66C193.11 180.2 194.49 180.08 195.09 179.39L197.62 176.48L197.62 176.48L200.36 173.32L200.36 173.32L202.74 170.58C204.86 168.13 204.51 164.33 201.96 162.13L201.32 161.58C200.719 161.059 200.05 160.68 199.34 160.43L199.34 160.43L197.81 162.179C196.77 163.379 195.19 164.03 193.36 164.03C192.96 164.03 192.54 163.999 192.12 163.94C191.86 163.9 191.6 163.849 191.33 163.79ZM186.02 160.98C186.39 161.299 186.78 161.599 187.169 161.87V161.871C187.389 162.031 187.609 162.17 187.839 162.31L187.17 163.08L187.169 163.081L182.469 168.5C181.2 169.97 180.87 172.12 181.56 174.39C182.18 176.41 183.53 178.4 185.38 179.99L186.01 180.53L186.01 180.53L181.32 185.92C179.719 187.78 179.592 190.486 180.717 193.178C180.629 193.166 180.54 193.16 180.45 193.16H121.25C121.28 181.269 118.04 171.099 113.78 163.809C112.97 162.42 112.12 161.13 111.25 159.96C111.4 159.5 111.55 159.04 111.69 158.59C114.48 149.91 115.78 143.05 116.87 131.87C117.46 125.95 115.63 119.95 111.44 114.04C111.28 113.809 111.11 113.59 110.92 113.389L110.919 113.389V88.9892H180.014C181.118 88.9892 182.014 88.0932 182.014 86.9892C182.014 85.8852 181.118 84.9892 180.014 84.9892H110.919V80.0095C110.919 75.3395 114.719 71.5405 119.389 71.5405H178.709C183.369 71.5405 187.169 75.3395 187.169 80.0095V143.52L182.46 148.94C179.98 151.82 181.26 156.87 185.38 160.429L186.02 160.98ZM182.305 195.906C182.008 196.639 181.287 197.16 180.45 197.16H121.11L121.11 197.16C120.85 201.46 120.14 205.95 118.91 210.599L118.91 210.6C119.07 210.611 119.23 210.611 119.39 210.611H178.71C183.37 210.611 187.17 206.81 187.17 202.14V200.26C186.48 199.84 185.81 199.36 185.18 198.809L184.48 198.21C183.644 197.49 182.917 196.713 182.305 195.906ZM114.3 213.52C114.146 214.007 113.978 214.495 113.807 214.988L113.807 214.988L113.72 215.24C113.39 216.18 113.88 217.21 114.82 217.55C115.76 217.87 116.78 217.38 117.11 216.44C117.34 215.79 117.56 215.15 117.76 214.5L117.76 214.5C118.29 214.571 118.84 214.611 119.39 214.611H166.43L166.43 214.611C159.03 222.59 145.3 233.39 123.35 231.78C122.84 231.74 122.35 231.92 121.98 232.27L121.56 232.67C118.39 235.66 115.55 238.34 112.24 241.78L80.0098 209.3L77.1398 206.42L72.5899 201.83C73.4199 200.74 74.2499 199.66 75.0599 198.61C79.9199 192.269 81.9699 189.58 82.8399 188.349L82.8397 188.35C82.8844 188.288 82.926 188.23 82.9648 188.176C83.2473 187.779 83.3795 187.561 83.4499 187.42C83.9399 186.389 84.2299 185.019 84.4199 183.37C84.6585 181.293 84.729 178.76 84.8085 175.911L84.8085 175.911L84.8099 175.86C84.9999 169.17 85.2399 160.83 87.7899 154.26C90.4699 147.389 91.9699 142.47 94.4399 134.32L94.4872 134.165C95.8192 129.781 97.4772 124.324 99.7799 117.07C100.24 115.59 101.63 114.54 103.48 114.24C104.53 114.08 105.81 114.18 106.92 114.75C107.081 114.835 107.239 114.929 107.393 115.034C107.432 115.061 107.471 115.088 107.509 115.116C107.874 115.383 108.21 115.712 108.499 116.121C109.449 117.46 110.259 118.791 110.919 120.13L110.92 120.13C112.86 123.97 113.66 127.78 113.3 131.519C112.66 138.01 111.95 142.99 110.92 147.75L110.92 147.752V147.75C110.23 150.92 109.39 153.991 108.32 157.34C108.211 157.678 108.101 158.018 107.989 158.362L107.884 158.684L107.732 159.146L107.54 159.731C107.41 160.111 107.41 160.52 107.54 160.89C107.61 161.071 107.7 161.25 107.83 161.411C108.9 162.77 109.94 164.321 110.92 166.041V166.04L110.92 166.04C114.79 172.809 117.7 182.19 117.67 193.16C117.67 194.47 117.62 195.8 117.53 197.16C117.26 201.15 116.59 205.32 115.45 209.63L115.45 209.63C115.11 210.911 114.73 212.21 114.3 213.52L114.3 213.52ZM189.959 178.951C189.874 178.904 189.785 178.854 189.696 178.799C189.785 178.854 189.875 178.904 189.96 178.95L189.963 178.952C190.159 179.066 190.355 179.169 190.549 179.262C190.556 179.265 190.563 179.267 190.57 179.269L190.606 179.287L190.569 179.27C190.539 179.26 190.509 179.25 190.479 179.231C190.309 179.151 190.129 179.05 189.959 178.951ZM184.05 188.28L187.169 184.69L187.435 196.008L187.17 195.78L186.83 195.48C183.88 192.94 182.93 189.58 184.05 188.28ZM149.04 80.2597C148.78 80.2597 148.52 80.2097 148.28 80.1097C148.04 80.0097 147.82 79.8697 147.63 79.6797C147.25 79.2997 147.04 78.7997 147.04 78.2697C147.04 78.1397 147.06 77.9997 147.08 77.8697C147.11 77.7497 147.15 77.6197 147.2 77.4997C147.25 77.3797 147.31 77.2597 147.38 77.1597C147.46 77.0497 147.54 76.9397 147.63 76.8497C148.1 76.3897 148.79 76.1697 149.44 76.2997C149.56 76.3297 149.69 76.3697 149.81 76.4197C149.93 76.4697 150.05 76.5297 150.16 76.5997C150.27 76.6797 150.37 76.7597 150.46 76.8497C150.55 76.9397 150.64 77.0497 150.71 77.1597C150.78 77.2597 150.84 77.3797 150.89 77.4997C150.94 77.6197 150.98 77.7497 151.01 77.8697C151.03 77.9997 151.04 78.1397 151.04 78.2697C151.04 78.5297 150.99 78.7897 150.89 79.0297C150.79 79.2697 150.65 79.4887 150.46 79.6797C150.27 79.8697 150.05 80.0097 149.81 80.1097C149.57 80.2097 149.31 80.2597 149.04 80.2597ZM67.3497 202.75L67.3509 202.749L67.8999 202.2L70.3797 204.71L70.3799 204.71L75.9197 210.29L78.7797 213.18L109.78 244.39L112.31 246.95L114.18 248.83L99.3797 263.5L53.1097 216.88L67.3497 202.75ZM152.098 205.883H146.864C145.76 205.883 144.864 204.987 144.864 203.883C144.864 202.779 145.76 201.883 146.864 201.883H152.098C153.202 201.883 154.098 202.779 154.098 203.883C154.098 204.987 153.202 205.883 152.098 205.883Z" fill="#164194"/>
</svg>
