<svg width="300" height="300" viewBox="0 0 300 300" fill="none" xmlns="http://www.w3.org/2000/svg">
<circle cx="150" cy="150" r="100" fill="#39A8E5" fill-opacity="0.2"/>
<path fill-rule="evenodd" clip-rule="evenodd" d="M188.945 183.473L146.008 211.914C147.459 212.006 148.907 212.017 150.354 211.945L187.711 187.198C188.216 185.953 188.623 184.709 188.945 183.473ZM187.54 197.15L187.857 196.712C187.91 196.941 187.997 197.166 188.135 197.373C188.52 197.954 189.155 198.269 189.804 198.269C190.183 198.269 190.567 198.161 190.907 197.936L200.146 191.817C201.066 191.207 201.318 189.966 200.708 189.045C200.099 188.124 198.858 187.872 197.937 188.482L189.606 194L188.698 194.601C187.984 195.073 187.678 195.924 187.857 196.712C187.649 197.005 187.435 197.296 187.215 197.587L187.54 197.15ZM203.015 177.06L214.007 193.654L143.439 240.407L132.443 223.809L143.533 216.463L144.431 215.867C138.334 215.275 132.183 213.346 125.931 210.084C111.793 202.708 100.539 172.755 100.043 171.493C99.9164 171.166 99.3418 171.022 99.3848 170.696L83.0437 153.493C78.6708 149.121 79.6708 144.367 84.0437 139.994C86.7217 137.316 90.5686 135.894 94.0435 136.494C93.3575 132.956 94.8369 129.729 97.5718 126.994C100.217 124.349 103.605 122.939 107.043 123.494C106.184 119.837 107.165 115.831 110.012 112.984C112.209 110.787 115.099 109.695 117.985 109.706L97.5718 88.7371C93.2199 84.3842 94.1705 78.369 98.5434 73.9951C103.568 68.9692 110.018 68.4691 115.043 73.495L156.042 117.994L167.042 126.994L178.042 105.494C180.831 99.0805 186.543 97.1656 193.042 99.9945L193.281 100.103C197.964 102.309 196.578 105.02 194.56 110.07C193.125 113.663 191.162 118.574 189.775 125.244L188.339 153.96C189.845 156.767 196.152 169.699 192.918 183.749L193.631 183.277L203.015 177.06Z" fill="white"/>
<path fill-rule="evenodd" clip-rule="evenodd" d="M209.201 71.4945C208.512 70.2994 206.954 69.9054 205.725 70.615L192.858 78.0437C191.628 78.7539 191.191 80.2992 191.881 81.4943C192.571 82.6893 194.128 83.084 195.358 82.3737L208.225 74.945C209.454 74.2354 209.891 72.6895 209.201 71.4945ZM187.241 51.9398C188.011 50.7367 187.658 49.0952 186.452 48.2753C185.245 47.4543 183.639 47.767 182.871 48.9706L173.845 63.0508C173.073 64.2546 173.426 65.8943 174.632 66.7159C175.489 67.2974 176.544 67.308 177.36 66.8369C177.695 66.6435 177.99 66.3703 178.214 66.0201L187.241 51.9398ZM157.289 42.4487C157.222 41.0204 155.989 39.948 154.534 40.0547C153.081 40.1618 151.953 41.4067 152.02 42.835L152.795 59.5415C152.863 60.9703 154.096 62.0415 155.551 61.9349C155.974 61.9044 156.368 61.7763 156.714 61.5763C157.558 61.0891 158.112 60.1694 158.066 59.1557L157.289 42.4487ZM127.493 50.3112C126.784 49.0822 125.238 48.6447 124.043 49.3346C122.848 50.0246 122.454 51.5821 123.163 52.8111L130.592 65.6782C131.302 66.9073 132.848 67.3448 134.043 66.6548C135.238 65.9648 135.632 64.4073 134.922 63.1783L127.493 50.3112ZM200.708 189.044C201.288 189.919 201.089 191.083 200.279 191.72L200.145 191.816L190.907 197.936C190.567 198.161 190.183 198.269 189.804 198.269C189.156 198.269 188.52 197.954 188.135 197.373C187.997 197.166 187.91 196.94 187.857 196.711C188.035 196.461 188.111 196.177 188.188 195.894C188.331 195.364 188.473 194.837 189.282 194.545L189.606 194L197.936 188.481C198.857 187.871 200.098 188.123 200.708 189.044Z" fill="#39A8E5"/>
<path fill-rule="evenodd" clip-rule="evenodd" d="M99.8416 171.452L107.085 178.696C111.478 187.949 119.586 202.779 128.238 207.293C133.097 209.828 137.89 211.477 142.645 212.253L190.088 180.826L194.243 178.073L202.473 172.621C202.916 172.329 203.456 172.224 203.976 172.328C204.439 172.422 204.85 172.675 205.142 173.041L205.245 173.184L219.667 194.954C220.277 195.875 220.025 197.116 219.104 197.726C218.229 198.306 217.066 198.107 216.428 197.297L216.332 197.163L214.007 193.653L203.015 177.06L193.631 183.277L193.63 183.275L188.703 186.541L149.143 212.746L143.533 216.462L132.443 223.808L143.439 240.407L145.761 243.911C146.371 244.832 146.119 246.073 145.198 246.683C144.858 246.909 144.474 247.016 144.095 247.016C143.501 247.016 142.917 246.753 142.527 246.26L142.426 246.12L128.004 224.35C127.424 223.475 127.623 222.311 128.434 221.674L128.567 221.578L137.94 215.369L137.176 215.163C133.607 214.17 130.015 212.732 126.387 210.839C112.249 203.462 100.45 173.705 99.9546 172.442C99.8266 172.116 99.7986 171.777 99.8416 171.452ZM153.537 140.972L156.431 143.954L153.545 140.979L158.156 145.591C160.187 147.62 161.34 150.303 161.426 153.176L161.431 153.521C161.431 156.525 160.268 159.342 158.156 161.453C155.97 163.64 153.097 164.733 150.225 164.733C149.471 164.733 148.718 164.653 147.976 164.503C148.618 167.914 147.676 171.568 145.144 174.266L144.894 174.524C142.707 176.711 139.834 177.804 136.962 177.804C134.204 177.804 131.447 176.797 129.296 174.781L129.031 174.524L128.894 174.386C128.683 177.046 127.56 179.513 125.663 181.41C123.477 183.597 120.604 184.691 117.732 184.691C114.859 184.691 111.987 183.597 109.8 181.41L99.8416 171.452L99.8415 171.45L83.2804 154.889C78.9065 150.517 78.9065 143.401 83.2804 139.028C85.9574 136.35 89.6613 135.32 93.1362 135.921C92.4503 132.382 93.4752 128.575 96.2102 125.841C98.8551 123.195 102.502 122.161 105.94 122.716C105.081 119.058 106.063 115.052 108.909 112.206C111.018 110.097 113.766 109.006 116.535 108.931L116.88 108.927L98.0285 89.4917C93.7507 85.2138 93.6769 78.2685 97.8272 73.8787L98.0495 73.65C103.074 68.6251 111.25 68.6251 116.275 73.65L157.006 117.824L166.865 126.159L176.982 105.656C179.771 99.2435 187.361 96.2576 193.859 99.0865C198.84 101.254 197.069 105.69 195.017 110.825C193.581 114.418 191.619 119.328 190.232 126L188.796 154.714C190.068 157.086 194.764 166.681 194.243 178.073L190.088 180.826C191.925 168.027 185.497 156.954 185.054 156.211C184.851 155.872 184.753 155.478 184.772 155.084L186.244 125.646C186.249 125.544 186.262 125.443 186.283 125.343C187.744 118.247 189.801 113.099 191.303 109.341C193.687 103.374 193.357 103.23 192.263 102.754C187.786 100.806 182.558 102.862 180.609 107.339L169.321 130.223C169.048 130.775 168.537 131.171 167.935 131.296C167.332 131.422 166.706 131.263 166.236 130.866L154.328 120.798C154.265 120.744 154.205 120.687 154.149 120.626L113.391 76.42C111.777 74.808 109.545 73.888 107.162 73.888C104.78 73.888 102.548 74.808 100.877 76.478C99.5225 77.8339 98.7755 79.6469 98.7755 81.5819C98.7755 83.5158 99.5225 85.3288 100.877 86.6848L153.537 140.972ZM91.2113 139.745C89.3633 139.745 87.5154 140.449 86.1084 141.856C83.357 144.607 83.2958 149.045 85.925 151.871L86.1084 152.061L112.629 178.582C115.443 181.396 120.021 181.396 122.835 178.582C124.191 177.226 124.938 175.414 124.938 173.479C124.938 171.646 124.267 169.923 123.044 168.594L122.835 168.376L120.096 165.636L117.073 162.613L96.3142 141.856C94.9082 140.449 93.0592 139.745 91.2113 139.745ZM104.141 126.558C102.293 126.558 100.445 127.262 99.0381 128.669C97.6822 130.025 96.9362 131.837 96.9362 133.772C96.9362 135.605 97.6057 137.328 98.8291 138.657L99.0381 138.875L121 160.837L124.023 163.86L131.859 171.696C134.673 174.51 139.251 174.51 142.065 171.696C144.817 168.945 144.878 164.506 142.249 161.679L142.065 161.489L138.076 157.501L109.244 128.669C107.838 127.262 105.989 126.558 104.141 126.558ZM155.924 149.103C155.741 148.865 155.544 148.635 155.328 148.419L121.944 115.034C120.537 113.627 118.688 112.924 116.841 112.924C114.992 112.924 113.144 113.627 111.737 115.034C110.382 116.39 109.635 118.202 109.635 120.137C109.635 121.97 110.305 123.693 111.528 125.022L111.737 125.24L145.122 158.625C146.478 159.981 148.29 160.727 150.225 160.727C152.16 160.727 153.972 159.981 155.328 158.625C156.684 157.269 157.431 155.456 157.431 153.521C157.431 152.1 157.022 150.747 156.269 149.589L156.102 149.345L155.924 149.103Z" fill="#164194"/>
</svg>
