<svg width="300" height="300" viewBox="0 0 300 300" fill="none" xmlns="http://www.w3.org/2000/svg">
<circle cx="150" cy="150" r="100" fill="#39A8E5" fill-opacity="0.2"/>
<path fill-rule="evenodd" clip-rule="evenodd" d="M142.884 142.066L129.007 126.326C130.246 123.188 131.111 119.836 131.517 116.312C133.967 95.0484 119.107 75.7784 98.3245 73.2724C77.5435 70.7654 58.7115 85.9714 56.2625 107.235C54.7315 120.528 59.9635 133.041 69.1785 141.167L77.4495 146.715C81.1325 148.529 85.1675 149.759 89.4535 150.276C98.8305 151.407 107.805 148.923 115.063 143.912L128.138 158.366L137.046 158.76L134.666 173.246L141.607 174.445V212.247C141.607 220.947 148.781 228.001 157.633 228.001H227.433C236.283 228.001 243.459 220.947 243.459 212.247V142.066H142.884Z" fill="white"/>
<path fill-rule="evenodd" clip-rule="evenodd" d="M220.408 140.266V117.389C220.408 102.295 207.903 90.0159 192.532 90.0159C177.161 90.0159 164.656 102.295 164.656 117.389V140.266H220.408ZM162.856 143.866C162.809 143.866 162.762 143.864 162.716 143.861H147.129L143.969 140.271H161.056V117.389C161.056 100.31 175.177 86.416 192.532 86.416C209.887 86.416 224.008 100.31 224.008 117.389V140.271H243.459C244.448 140.271 245.259 141.071 245.259 142.061V212.251C245.259 221.931 237.259 229.801 227.429 229.801H157.629C147.809 229.801 139.809 221.931 139.809 212.251V176.171L143.408 176.791V212.251C143.408 219.941 149.788 226.201 157.629 226.201H227.429C235.278 226.201 241.658 219.941 241.658 212.251V143.861H222.348C222.302 143.864 222.255 143.866 222.208 143.866H162.856ZM201.207 199.897H185.913L188.929 184.472C189.051 183.845 188.833 183.201 188.354 182.778C186.558 181.189 185.527 178.917 185.527 176.544C185.527 171.989 189.131 168.283 193.559 168.283C197.989 168.283 201.593 171.989 201.593 176.544C201.593 178.917 200.562 181.189 198.766 182.778C198.287 183.201 198.069 183.845 198.191 184.472L201.207 199.897ZM183.727 203.498H203.392C203.931 203.498 204.44 203.257 204.782 202.842C205.124 202.427 205.263 201.88 205.159 201.353L201.912 184.74C204.008 182.529 205.192 179.597 205.192 176.545C205.192 170.005 199.974 164.685 193.559 164.685C187.145 164.685 181.928 170.005 181.928 176.545C181.928 179.597 183.112 182.529 185.208 184.74L181.961 201.353C181.857 201.88 181.996 202.427 182.338 202.842C182.68 203.257 183.189 203.498 183.727 203.498Z" fill="#164194"/>
<path fill-rule="evenodd" clip-rule="evenodd" d="M93.9566 152.547C92.3826 152.547 90.7996 152.452 89.2146 152.261C84.7936 151.728 80.5386 150.465 76.5656 148.508C75.5746 148.021 75.1676 146.821 75.6556 145.831C76.1436 144.841 77.3396 144.431 78.3336 144.921C81.8996 146.677 85.7226 147.811 89.6926 148.29C99.0546 149.419 108.32 146.797 115.785 140.906C123.507 134.813 128.388 125.998 129.529 116.083C131.851 95.9431 117.745 77.6281 98.0856 75.2561C88.7276 74.1241 79.4596 76.7491 71.9936 82.6411C64.2716 88.7341 59.3916 97.5491 58.2496 107.464C56.8486 119.627 61.4286 131.666 70.5016 139.667C71.3296 140.398 71.4086 141.662 70.6786 142.49C69.9476 143.318 68.6856 143.399 67.8546 142.667C57.8016 133.8 52.7246 120.469 54.2746 107.005C55.5396 96.0261 60.9526 86.2581 69.5166 79.5011C77.8226 72.9451 88.1436 70.0301 98.5636 71.2851C120.401 73.9191 136.075 94.2211 133.504 116.541C133.124 119.833 132.372 123.016 131.274 126.041C131.596 126.352 131.963 126.714 132.379 127.13L143.969 140.27L147.129 143.86L174.179 174.54C174.538 174.95 174.719 175.5 174.669 176.05L173.429 189.15C173.339 190.18 172.469 190.96 171.439 190.96H171.358L147.788 189.99C146.698 189.95 145.839 189.03 145.879 187.93L146.189 177.27L143.408 176.79L139.809 176.17L134.328 175.22C133.238 175.03 132.519 174 132.689 172.92L134.709 160.66L128.049 160.36C127.538 160.34 127.049 160.12 126.689 159.75L115.038 147.59C114.738 147.291 114.495 147.032 114.299 146.808C108.133 150.574 101.14 152.547 93.9566 152.547ZM118.263 144.046C123.105 140.225 126.941 135.44 129.588 130.018L139.858 141.66L143.408 145.69L170.608 176.53L169.629 186.88L149.929 186.08L150.238 175.65C150.269 174.65 149.559 173.79 148.578 173.62L143.408 172.73L139.809 172.1L136.959 171.61L139.019 159.08C139.108 158.52 138.959 157.94 138.599 157.5C138.238 157.05 137.709 156.79 137.139 156.76L129.028 156.4L117.929 144.821C117.825 144.719 117.727 144.622 117.634 144.532C117.845 144.373 118.054 144.211 118.263 144.046ZM82.9274 98.4242C85.7904 96.1642 89.2384 94.9682 92.8004 94.9682C93.4384 94.9682 94.0804 95.0072 94.7234 95.0842C103.623 96.1582 110.009 104.461 108.956 113.593C108.439 118.091 106.226 122.089 102.726 124.85C99.3504 127.514 95.1624 128.703 90.9304 128.19C82.0294 127.116 75.6444 118.813 76.6964 109.681C77.2144 105.183 79.4274 101.185 82.9274 98.4242ZM90.4516 132.161C91.2576 132.259 92.0616 132.306 92.8616 132.306C97.3176 132.306 101.628 130.812 105.204 127.99C109.546 124.565 112.29 119.614 112.932 114.051C114.235 102.739 106.281 92.4492 95.2016 91.1132C89.9066 90.4752 84.6676 91.9562 80.4496 95.2832C76.1086 98.7092 73.3636 103.66 72.7226 109.223C71.4196 120.535 79.3726 130.825 90.4516 132.161Z" fill="#39A8E5"/>
</svg>
