<svg width="101" height="100" viewBox="0 0 101 100" fill="none" xmlns="http://www.w3.org/2000/svg">
<circle cx="50.4993" cy="50" r="33.3333" fill="#39A8E5" fill-opacity="0.2"/>
<path fill-rule="evenodd" clip-rule="evenodd" d="M41.4465 51.999H29.0259C28.1239 51.999 27.2466 52.3646 26.5886 52.9983L16.7906 62.8203V52.0233H12.1133C10.4563 52.0233 9.11328 50.68 9.11328 49.0233V24.1916C9.11328 22.535 10.4563 21.1917 12.1133 21.1917H56.9063C58.5633 21.1917 59.9063 22.535 59.9063 24.1916V45.8584H90.5729C91.4935 45.8584 92.2395 46.6047 92.2395 47.525V75.0234C92.2395 75.9437 91.4935 76.69 90.5729 76.69H84.5622V87.487L74.7642 77.6647C74.1062 77.0314 73.2289 76.6657 72.3269 76.6657H43.1132C42.1925 76.6657 41.4465 75.9194 41.4465 74.999V51.999Z" fill="white"/>
<path fill-rule="evenodd" clip-rule="evenodd" d="M61.4733 18.8703C61.5593 18.9133 61.651 18.9337 61.7413 18.9337C61.9613 18.9337 62.1733 18.812 62.2783 18.602L65.0236 13.112C65.1716 12.8157 65.0516 12.455 64.755 12.307C64.4586 12.1587 64.098 12.2787 63.95 12.575L61.205 18.0653C61.0566 18.3617 61.177 18.722 61.4733 18.8703ZM12.1 20.6667H56.8933C58.88 20.6667 60.4933 22.2801 60.4933 24.2667V45.3334H59.2933V24.2667C59.2933 22.9401 58.217 21.8667 56.8933 21.8667H12.1C10.7767 21.8667 9.7 22.9401 9.7 24.2667V49.0967C9.7 50.4201 10.7767 51.4967 12.1 51.4967H16.7767C17.11 51.4967 17.3767 51.7667 17.3767 52.0967V61.4434L26.1503 52.6467C26.93 51.8967 27.97 51.4734 29.0133 51.4734H40.8333V52.6734H29.0133C28.2767 52.6734 27.54 52.9767 26.9933 53.5034L17.2037 63.3167C17.0867 63.4334 16.9333 63.4934 16.7767 63.4934C16.7 63.4934 16.6233 63.48 16.5503 63.4467C16.3233 63.3567 16.177 63.1367 16.177 62.8934V52.6967H12.1C10.1167 52.6967 8.5 51.0834 8.5 49.0967V24.2667C8.5 22.2801 10.1167 20.6667 12.1 20.6667ZM58.996 18.3846C58.6977 18.3846 58.4393 18.1623 58.4013 17.859L57.852 13.467C57.811 13.138 58.0443 12.8383 58.373 12.797C58.7057 12.7553 59.002 12.9893 59.043 13.318L59.592 17.7103C59.633 18.039 59.4 18.3386 59.0713 18.38C59.0457 18.383 59.0207 18.3846 58.996 18.3846ZM62.8798 20.8478C62.9935 21.0298 63.1888 21.1298 63.3892 21.1298C63.4975 21.1298 63.6075 21.1005 63.7065 21.0385L68.0988 18.2935C68.3798 18.1178 68.4655 17.7478 68.2895 17.4665C68.1142 17.1858 67.7448 17.0998 67.4628 17.2758L63.0705 20.0208C62.7895 20.1965 62.7038 20.5668 62.8798 20.8478ZM34.8388 38.6225C34.5074 38.6225 34.2388 38.3538 34.2388 38.0225V29.6891C34.2388 29.3578 34.5074 29.0891 34.8388 29.0891C35.1701 29.0891 35.4388 29.3578 35.4388 29.6891V38.0225C35.4388 38.3538 35.1701 38.6225 34.8388 38.6225ZM34.2388 41.9773C34.2388 42.3087 34.5074 42.5773 34.8388 42.5773C35.1701 42.5773 35.4388 42.3087 35.4388 41.9773V40.6113C35.4388 40.28 35.1701 40.0113 34.8388 40.0113C34.5074 40.0113 34.2388 40.28 34.2388 40.6113V41.9773Z" fill="#003DA5"/>
<path fill-rule="evenodd" clip-rule="evenodd" d="M90.5606 76.1633C91.1506 76.1633 91.6273 75.6833 91.6273 75.0967V47.6C91.6273 47.01 91.1506 46.5333 90.5606 46.5333H43.1006C42.5139 46.5333 42.0339 47.01 42.0339 47.6V75.0733C42.0339 75.66 42.5139 76.14 43.1006 76.14H72.3143C73.3573 76.14 74.3976 76.5633 75.1673 77.3067L83.9506 86.11V76.7633C83.9506 76.4333 84.2176 76.1633 84.5509 76.1633H90.5606ZM43.1007 45.3334H90.5607C91.8107 45.3334 92.8273 46.35 92.8273 47.6V75.0967C92.8273 76.3467 91.8107 77.3634 90.5607 77.3634H85.1507V87.5601C85.1507 87.8034 85.004 88.0234 84.7807 88.1134C84.704 88.1467 84.6273 88.16 84.551 88.16C84.394 88.16 84.2407 88.1 84.124 87.9834L74.3273 78.1634C73.7873 77.6434 73.051 77.34 72.3143 77.34H43.1007C41.8507 77.34 40.834 76.3234 40.834 75.0734V47.6C40.834 46.35 41.8507 45.3334 43.1007 45.3334ZM67.7018 59.6039H64.7401L65.3695 56.4579C65.4121 56.2459 65.3371 56.0275 65.1735 55.8862C64.8091 55.5712 64.6081 55.1402 64.6081 54.6729C64.6081 53.7835 65.3315 53.0602 66.2208 53.0602C67.1101 53.0602 67.8335 53.7835 67.8335 54.6729C67.8335 55.1402 67.6328 55.5712 67.2685 55.8862C67.1048 56.0275 67.0298 56.2459 67.0725 56.4579L67.7018 59.6039ZM64.0083 60.8039H68.4333C68.613 60.8039 68.7833 60.7232 68.8973 60.5842C69.0113 60.4452 69.057 60.2626 69.0217 60.0862L68.3123 56.5396C68.7743 56.0252 69.0333 55.3622 69.0333 54.6729C69.0333 53.1219 67.7717 51.8605 66.2207 51.8605C64.67 51.8605 63.4083 53.1219 63.4083 54.6729C63.4083 55.3622 63.6673 56.0252 64.1293 56.5396L63.42 60.0862C63.3847 60.2626 63.43 60.4452 63.5443 60.5842C63.6583 60.7232 63.8287 60.8039 64.0083 60.8039Z" fill="#39A8E5"/>
<path fill-rule="evenodd" clip-rule="evenodd" d="M64.9157 64.2325C65.15 63.9985 65.5297 63.9982 65.764 64.2325C65.9984 64.4668 65.9984 64.8468 65.764 65.0812L64.194 66.6508L65.764 68.2208C65.9984 68.4552 65.9984 68.8352 65.764 69.0695C65.6467 69.1865 65.4934 69.2452 65.34 69.2452C65.1864 69.2452 65.033 69.1868 64.9157 69.0695L63.3457 67.4995L61.7757 69.0695C61.6584 69.1865 61.5047 69.2452 61.3514 69.2452C61.1977 69.2452 61.044 69.1868 60.927 69.0695C60.6927 68.8352 60.6927 68.4552 60.927 68.2208L62.497 66.6508L60.927 65.0812C60.6927 64.8468 60.6927 64.4668 60.927 64.2325C61.1614 63.9985 61.5414 63.9982 61.7757 64.2325L63.3457 65.8025L64.9157 64.2325ZM51.2051 64.2325C51.4394 63.9985 51.8194 63.9985 52.0538 64.2325C52.2881 64.4668 52.2881 64.8468 52.0538 65.0812L50.4838 66.6508L52.0538 68.2208C52.2881 68.4552 52.2881 68.8352 52.0538 69.0695C51.9364 69.1865 51.7831 69.2452 51.6294 69.2452C51.4761 69.2452 51.3224 69.1865 51.2051 69.0695L49.6351 67.4995L48.0654 69.0695C47.9481 69.1865 47.7944 69.2452 47.6411 69.2452C47.4874 69.2452 47.3338 69.1865 47.2168 69.0695C46.9824 68.8352 46.9824 68.4552 47.2168 68.2208L48.7864 66.6508L47.2168 65.0812C46.9824 64.8468 46.9824 64.4668 47.2168 64.2325C47.4511 63.9985 47.8311 63.9985 48.0654 64.2325L49.6351 65.8022L51.2051 64.2325ZM58.9089 64.2717C58.6746 64.0377 58.2946 64.0377 58.0602 64.2717L56.4902 65.8417L54.9206 64.2717C54.6862 64.0377 54.3062 64.0377 54.0719 64.2717C53.8376 64.5061 53.8376 64.8861 54.0719 65.1204L55.6416 66.6904L54.0719 68.2601C53.8376 68.4944 53.8376 68.8744 54.0719 69.1087C54.1889 69.2257 54.3426 69.2844 54.4962 69.2844C54.6496 69.2844 54.8032 69.2257 54.9206 69.1087L56.4902 67.5391L58.0602 69.1087C58.1776 69.2257 58.3312 69.2844 58.4846 69.2844C58.6382 69.2844 58.7916 69.2257 58.9089 69.1087C59.1432 68.8744 59.1432 68.4944 58.9089 68.2601L57.3389 66.6904L58.9089 65.1204C59.1432 64.8861 59.1432 64.5061 58.9089 64.2717ZM71.7707 64.2717C72.0051 64.0377 72.3847 64.0373 72.6191 64.2717C72.8534 64.506 72.8534 64.886 72.6191 65.1203L71.0491 66.6903L72.6191 68.26C72.8534 68.4943 72.8534 68.8743 72.6191 69.1087C72.5017 69.2257 72.3484 69.2843 72.1951 69.2843C72.0414 69.2843 71.8881 69.226 71.7707 69.1087L70.2007 67.5387L68.6307 69.1087C68.5138 69.2257 68.3604 69.2843 68.2067 69.2843C68.0531 69.2843 67.8997 69.226 67.7824 69.1087C67.5481 68.8743 67.5481 68.4943 67.7824 68.26L69.3524 66.6903L67.7824 65.1203C67.5481 64.886 67.5481 64.506 67.7824 64.2717C68.0168 64.0377 68.3964 64.0373 68.6307 64.2717L70.2007 65.8417L71.7707 64.2717ZM77.9038 66.6903L79.4738 65.1203C79.7081 64.886 79.7081 64.506 79.4738 64.2717C79.2394 64.0373 78.8598 64.0377 78.6254 64.2717L77.0555 65.8417L75.4855 64.2717C75.2511 64.0373 74.8715 64.0377 74.6371 64.2717C74.4028 64.506 74.4028 64.886 74.6371 65.1203L76.2071 66.6903L74.6371 68.26C74.4028 68.4947 74.4028 68.8743 74.6371 69.1087C74.7545 69.226 74.9078 69.2843 75.0615 69.2843C75.2151 69.2843 75.3685 69.2257 75.4855 69.1087L77.0555 67.5387L78.6254 69.1087C78.7428 69.226 78.8961 69.2843 79.0498 69.2843C79.2031 69.2843 79.3564 69.2257 79.4738 69.1087C79.7081 68.8743 79.7081 68.4947 79.4738 68.26L77.9038 66.6903ZM86.3285 65.1203L84.7585 66.6903L86.3285 68.26C86.5628 68.4947 86.5628 68.8743 86.3285 69.1087C86.2111 69.2257 86.0578 69.2843 85.9045 69.2843C85.7508 69.2843 85.5975 69.226 85.4801 69.1087L83.9101 67.5387L82.3401 69.1087C82.2231 69.2257 82.0698 69.2843 81.9161 69.2843C81.7625 69.2843 81.6091 69.226 81.4918 69.1087C81.2575 68.8743 81.2575 68.4947 81.4918 68.26L83.0618 66.6903L81.4918 65.1203C81.2575 64.886 81.2575 64.506 81.4918 64.2717C81.7261 64.0377 82.1058 64.0373 82.3401 64.2717L83.9101 65.8417L85.4801 64.2717C85.7145 64.0377 86.0941 64.0373 86.3285 64.2717C86.5628 64.506 86.5628 64.886 86.3285 65.1203Z" fill="#39A8E5" fill-opacity="0.4"/>
</svg>
