<svg width="300" height="300" viewBox="0 0 300 300" fill="none" xmlns="http://www.w3.org/2000/svg">
<circle cx="150" cy="150" r="100" fill="#39A8E5" fill-opacity="0.2"/>
<path fill-rule="evenodd" clip-rule="evenodd" d="M170.653 101.394C168.004 127.885 133.567 159.672 125.62 164.97V220.599C133.567 223.248 152.11 225.897 157.408 225.897H207.738C218.334 225.897 217.01 216.625 213.037 212.652C228.93 212.652 228.93 191.46 215.685 191.46C228.93 191.46 226.281 167.619 215.685 167.619C223.632 167.619 223.632 146.427 215.685 146.427H178.599C199.791 98.7449 173.302 74.9048 170.653 101.394ZM125.417 223.552H110.956V162.887H125.417V223.552Z" fill="white"/>
<path fill-rule="evenodd" clip-rule="evenodd" d="M75.3525 94.804C74.2485 94.804 73.3525 93.908 73.3525 92.804V85.4023H65.9981C64.8941 85.4023 63.9981 84.5063 63.9981 83.4023C63.9981 82.2983 64.8941 81.4023 65.9981 81.4023H73.3525V74C73.3525 72.895 74.2485 72 75.3525 72C76.4565 72 77.3525 72.895 77.3525 74V81.4023H84.708C85.812 81.4023 86.708 82.2983 86.708 83.4023C86.708 84.5063 85.812 85.4023 84.708 85.4023H77.3525V92.804C77.3525 93.908 76.4565 94.804 75.3525 94.804ZM223.352 108.804C222.248 108.804 221.352 107.908 221.352 106.804V99.4023H213.997C212.893 99.4023 211.997 98.5063 211.997 97.4023C211.997 96.2983 212.893 95.4023 213.997 95.4023H221.352V88.0001C221.352 86.8951 222.248 86.0001 223.352 86.0001C224.456 86.0001 225.352 86.8951 225.352 88.0001V95.4023H232.707C233.811 95.4023 234.707 96.2983 234.707 97.4023C234.707 98.5063 233.811 99.4023 232.707 99.4023H225.352V106.804C225.352 107.908 224.456 108.804 223.352 108.804ZM127.06 161.396C137.606 152.921 166.307 124.759 168.663 101.194C169.353 94.2984 171.694 89.8554 175.255 88.6844C177.769 87.8584 180.516 88.8304 182.795 91.3504C186.456 95.3994 188.627 102.772 188.751 111.58C188.892 121.515 186.437 132.815 181.635 144.426H215.686C220.373 144.426 223.646 149.605 223.646 157.021C223.646 161.359 222.527 164.931 220.66 167.15C224.484 169.732 226.654 175.194 226.654 180.521C226.654 185.273 224.992 189.068 222.19 191.289C225.57 193.507 227.311 197.435 227.311 201.331C227.311 204.779 226.043 208.014 223.741 210.44C222.351 211.904 220.083 213.583 216.627 214.298C217.927 216.875 218.467 220.057 217.337 222.786C216.546 224.694 214.248 227.896 207.739 227.896H157.409C152.183 227.896 136.65 225.696 127.726 223.306V223.55C127.726 224.654 126.83 225.55 125.726 225.55H108.121C107.016 225.55 106.121 224.654 106.121 223.55C106.121 222.446 107.016 221.55 108.121 221.55H123.726V221.238C123.658 221.036 123.621 220.82 123.621 220.598V164.969C123.621 164.941 123.622 164.913 123.623 164.885H108.121C107.016 164.885 106.121 163.99 106.121 162.885C106.121 161.781 107.016 160.885 108.121 160.885H125.726C126.238 160.885 126.706 161.078 127.06 161.396ZM127.726 219.156C136.14 221.585 152.802 223.896 157.409 223.896H207.739C209.933 223.896 212.737 223.437 213.641 221.255C214.577 218.996 213.322 215.764 211.623 214.064C211.051 213.493 210.88 212.632 211.19 211.885C211.499 211.138 212.228 210.65 213.038 210.65C216.302 210.65 218.999 209.625 220.84 207.687C222.411 206.032 223.311 203.715 223.311 201.331C223.311 197.413 220.954 193.458 215.686 193.458C214.582 193.458 213.686 192.563 213.686 191.458C213.686 190.354 214.582 189.458 215.686 189.458C222.318 189.458 222.654 182.014 222.654 180.521C222.654 175.277 219.99 169.618 215.686 169.618C214.582 169.618 213.686 168.722 213.686 167.618C213.686 166.513 214.582 165.618 215.686 165.618C218.165 165.618 219.646 161.247 219.646 157.021C219.646 152.796 218.165 148.426 215.686 148.426H178.6C177.923 148.426 177.292 148.083 176.924 147.516C176.555 146.948 176.498 146.232 176.773 145.613C183.549 130.368 184.852 118.722 184.752 111.637C184.643 103.902 182.802 97.3224 179.829 94.0334C179.141 93.2734 177.796 92.0584 176.505 92.4844C175.03 92.9694 173.241 95.6164 172.644 101.592C170.013 127.899 137.708 158.665 127.726 165.936V219.156Z" fill="#164194"/>
<path fill-rule="evenodd" clip-rule="evenodd" d="M104.076 133.291C104.076 134.395 104.972 135.291 106.076 135.291C107.18 135.291 108.076 134.395 108.076 133.291V125.889H115.431C116.535 125.889 117.431 124.993 117.431 123.889C117.431 122.785 116.535 121.889 115.431 121.889H108.076V114.486C108.076 113.381 107.18 112.486 106.076 112.486C104.972 112.486 104.076 113.381 104.076 114.486V121.889H96.7213C95.6163 121.889 94.7213 122.785 94.7213 123.889C94.7213 124.993 95.6163 125.889 96.7213 125.889H104.076V133.291ZM78.0762 220.291C76.9722 220.291 76.0762 219.395 76.0762 218.291V210.889H68.7213C67.6163 210.889 66.7213 209.993 66.7213 208.889C66.7213 207.785 67.6163 206.889 68.7213 206.889H76.0762V199.486C76.0762 198.381 76.9722 197.486 78.0762 197.486C79.1802 197.486 80.0762 198.381 80.0762 199.486V206.889H87.4313C88.5353 206.889 89.4313 207.785 89.4313 208.889C89.4313 209.993 88.5353 210.889 87.4313 210.889H80.0762V218.291C80.0762 219.395 79.1802 220.291 78.0762 220.291ZM116.503 179.052C116.503 180.156 117.399 181.052 118.503 181.052C119.607 181.052 120.503 180.156 120.503 179.052V171.468C120.503 170.364 119.607 169.468 118.503 169.468C117.399 169.468 116.503 170.364 116.503 171.468V179.052Z" fill="#39A8E5"/>
</svg>
