<svg width="300" height="300" viewBox="0 0 300 300" fill="none" xmlns="http://www.w3.org/2000/svg">
<circle cx="150" cy="150" r="100" fill="#39A8E5" fill-opacity="0.2"/>
<path fill-rule="evenodd" clip-rule="evenodd" d="M102.872 231.6C102.872 233.528 101.309 235.106 99.3974 235.106H66.6953C64.7838 235.106 63.2203 233.528 63.2203 231.6V197.935H49.1516C46.774 197.935 44.8477 195.991 44.8477 193.592V69.4006C44.8477 67.0006 46.774 65.0566 49.1516 65.0566H233.906C236.284 65.0566 238.212 67.0006 238.212 69.4006V142.923H247.294C250.328 142.923 252.799 145.159 252.907 147.954L252.911 151.145V229.065C252.911 231.948 250.397 234.286 247.294 234.286H253.243H191.132L188.712 234.212C185.366 234.11 182.705 231.345 182.705 227.967V230.967V197.935H102.872V231.6Z" fill="white"/>
<path fill-rule="evenodd" clip-rule="evenodd" d="M125.639 117.441C125.897 117.703 126.247 117.981 127.157 117.981C128.065 117.981 128.418 117.703 128.676 117.442C129.527 116.584 129.527 115.238 128.676 114.379L120.68 106.314L128.676 98.2492C129.527 97.3902 129.527 96.0452 128.676 95.1852C127.824 94.3302 126.491 94.3292 125.639 95.1862L117.644 103.252L109.647 95.1862C108.798 94.3282 107.464 94.3282 106.609 95.1882C106.199 95.6032 105.973 96.1462 105.973 96.7172C105.973 97.2892 106.199 97.8322 106.61 98.2482L114.606 106.314L106.61 114.38C106.2 114.795 105.973 115.339 105.973 115.911C105.973 116.482 106.199 117.025 106.61 117.441C106.869 117.703 107.221 117.981 108.128 117.981C109.039 117.981 109.39 117.703 109.647 117.442L117.644 109.378L125.639 117.441ZM173.36 114.593L165.395 106.275L173.441 98.1655C173.789 97.8495 173.978 97.4295 173.991 96.9505C174.006 96.3865 173.774 95.8195 173.354 95.3945C172.504 94.5375 171.171 94.5355 170.318 95.3945L162.321 103.459L154.325 95.3945C153.477 94.5375 152.144 94.5355 151.288 95.3945C150.437 96.2535 150.438 97.5995 151.289 98.4575L159.285 106.523L151.289 114.587C150.878 115.001 150.652 115.545 150.653 116.119C150.653 116.694 150.879 117.238 151.289 117.65C151.547 117.911 151.898 118.19 152.807 118.19C153.717 118.19 154.068 117.911 154.324 117.652L162.321 109.586L170.318 117.65C170.575 117.911 170.926 118.19 171.836 118.19C172.744 118.19 173.094 117.912 173.353 117.652C174.205 116.793 174.205 115.447 173.36 114.593ZM139.985 133.243C153.115 133.243 164.646 140.989 169.363 152.976L169.425 153.124C169.653 153.621 169.677 154.137 169.489 154.605C169.309 155.053 168.938 155.452 168.445 155.726L168.347 155.768C167.895 155.903 167.592 155.945 167.522 155.949H167.52C166.793 155.949 165.94 155.573 165.607 154.734C161.195 144.198 151.054 137.383 139.778 137.383C128.374 137.383 118.136 144.241 113.697 154.853C113.519 155.316 113.159 155.685 112.687 155.877V155.878C112.459 155.97 112.218 156.017 111.971 156.017C111.672 156.017 111.367 155.949 111.07 155.813L110.89 155.737C110.431 155.557 110.064 155.194 109.874 154.718C109.665 154.203 109.691 153.63 109.949 153.065C115.255 141.026 127.045 133.243 139.985 133.243ZM203.084 178.583L207.971 183.513C208.224 183.768 208.586 184.028 209.355 184.028C210.128 184.028 210.49 183.767 210.739 183.513C211.513 182.731 211.513 181.507 210.739 180.724L205.851 175.793L210.739 170.862C211.512 170.081 211.512 168.855 210.737 168.07C209.961 167.292 208.747 167.293 207.971 168.073L203.084 173.003L198.197 168.075C197.452 167.323 196.183 167.319 195.428 168.074C195.056 168.45 194.851 168.945 194.851 169.468C194.851 169.99 195.056 170.485 195.429 170.861L200.317 175.793L195.428 180.726C195.056 181.102 194.851 181.597 194.851 182.119C194.851 182.642 195.056 183.137 195.428 183.512C195.679 183.768 196.04 184.028 196.813 184.028C197.585 184.028 197.946 183.767 198.195 183.513L203.084 178.583ZM235.316 175.773L240.193 180.868C240.963 181.648 240.96 182.87 240.186 183.652C239.934 183.906 239.573 184.166 238.803 184.166C238.03 184.166 237.669 183.904 237.418 183.648L232.532 178.721L227.643 183.652C227.393 183.906 227.033 184.166 226.261 184.166C225.488 184.166 225.127 183.904 224.876 183.648C224.507 183.275 224.301 182.781 224.3 182.258C224.3 181.732 224.506 181.237 224.878 180.861L229.765 175.931L224.878 171C224.103 170.218 224.103 168.993 224.877 168.21C225.627 167.456 226.906 167.46 227.646 168.212L232.532 173.14L237.42 168.21C238.197 167.429 239.411 167.429 240.186 168.208C240.566 168.594 240.777 169.112 240.766 169.634C240.753 170.097 240.561 170.519 240.224 170.826L235.316 175.773ZM237.673 206.342C234.48 198.235 226.684 192.997 217.809 192.997C209.067 192.997 201.101 198.252 197.52 206.378C197.288 206.885 197.267 207.427 197.46 207.901C197.641 208.357 197.988 208.703 198.422 208.871L198.526 208.915C198.79 209.037 199.066 209.099 199.345 209.099C199.58 209.099 199.809 209.054 200.019 208.966C200.465 208.784 200.817 208.426 200.98 207.998C203.821 201.205 210.375 196.817 217.673 196.817C224.887 196.817 231.374 201.175 234.196 207.911C234.529 208.753 235.353 209.053 235.999 209.053H236.003C236.117 209.044 236.356 209.002 236.712 208.893L236.83 208.839C237.264 208.598 237.593 208.238 237.759 207.825C237.937 207.38 237.918 206.881 237.712 206.431L237.673 206.342ZM77.4362 198.354L74.9139 195.81L72.3907 198.354C72.2321 198.516 71.9822 198.704 71.4736 198.704C70.969 198.704 70.7191 198.517 70.5565 198.354C70.3096 198.105 70.1748 197.777 70.1748 197.43C70.1748 197.084 70.3096 196.756 70.5555 196.506L73.0798 193.96L70.5565 191.415C70.3096 191.166 70.1748 190.838 70.1748 190.492C70.1748 190.144 70.3096 189.816 70.5565 189.567C71.0552 189.067 71.9019 189.07 72.3927 189.569L74.9139 192.112L77.4362 189.567C77.9498 189.048 78.7558 189.048 79.2694 189.565C79.784 190.085 79.784 190.899 79.2704 191.416L76.7481 193.96L79.2704 196.505C79.5183 196.755 79.6531 197.083 79.6531 197.431C79.6531 197.778 79.5173 198.106 79.2694 198.355C79.1108 198.516 78.8609 198.704 78.3533 198.704C77.8477 198.704 77.5978 198.517 77.4362 198.354ZM95.4299 196.586L92.9097 193.953L95.4389 191.403C95.6679 191.193 95.7988 190.903 95.8077 190.59C95.8176 190.244 95.6778 189.899 95.424 189.642C94.9124 189.127 94.1073 189.124 93.5918 189.643L91.0685 192.187L88.5463 189.643C88.0525 189.145 87.2058 189.145 86.7121 189.643C86.1975 190.161 86.1975 190.974 86.7121 191.492L89.2353 194.036L86.7121 196.581C86.4652 196.83 86.3294 197.158 86.3294 197.506C86.3294 197.852 86.4652 198.18 86.7121 198.431C86.8727 198.593 87.1226 198.779 87.6292 198.779C88.1358 198.779 88.3847 198.594 88.5453 198.432L91.0685 195.887L93.5898 198.429C93.7504 198.592 93.9993 198.779 94.5079 198.779C95.0145 198.779 95.2634 198.594 95.425 198.431C95.9376 197.913 95.9395 197.104 95.4299 196.586ZM82.9911 203.171C87.9484 203.171 92.3029 206.096 94.0895 210.625L94.1083 210.666C94.2491 210.976 94.261 211.313 94.139 211.614C94.029 211.888 93.8139 212.125 93.5323 212.282L93.3915 212.342C93.2061 212.397 93.0594 212.422 92.983 212.428H92.98C92.4169 212.428 91.9559 212.127 91.7705 211.661C90.2605 208.053 86.7835 205.717 82.9158 205.717C79.0025 205.717 75.4888 208.07 73.9659 211.712C73.8599 211.997 73.6199 212.241 73.3175 212.365C73.1698 212.424 73.0181 212.453 72.8635 212.453C72.678 212.453 72.4966 212.412 72.3221 212.332C71.986 212.201 71.7451 211.96 71.6222 211.655C71.4933 211.338 71.5062 210.977 71.6598 210.641C73.6596 206.105 78.1082 203.171 82.9911 203.171Z" fill="#39A8E5"/>
<path fill-rule="evenodd" clip-rule="evenodd" d="M100.107 164.048H67.4063C64.3556 164.048 61.874 166.551 61.874 169.628V195.878H49.8635C48.6222 195.878 47.6129 194.86 47.6129 193.607V69.409C47.6129 68.162 48.6222 67.148 49.8635 67.148H234.615C235.857 67.148 236.866 68.162 236.866 69.409V141.686H189.031C184.801 141.686 181.359 144.957 181.359 148.979V195.878H105.639V169.628C105.639 166.551 103.157 164.048 100.107 164.048V164.048ZM65.9848 169.628C65.9848 168.839 66.6223 168.196 67.4056 168.196H100.107C100.889 168.196 101.526 168.839 101.526 169.628V231.617C101.526 232.407 100.889 233.05 100.107 233.05H67.4056C66.6223 233.05 65.9848 232.407 65.9848 231.617V169.628ZM185.471 148.979C185.471 147.244 187.068 145.833 189.031 145.833H248.003C249.966 145.833 251.564 147.244 251.564 148.979V229.902C251.564 231.637 249.966 233.048 248.003 233.048H191.906L189.489 232.978C187.236 232.908 185.471 231.073 185.471 228.801V148.979ZM248.003 141.686H240.979V69.409C240.979 65.875 238.123 63 234.614 63H49.8631C46.3544 63 43.5 65.875 43.5 69.409V193.607C43.5 197.146 46.3544 200.026 49.8631 200.026H61.8736V231.617C61.8736 234.694 64.3552 237.195 67.4059 237.195H100.107C103.157 237.195 105.638 234.694 105.638 231.617V200.026H134.803V232.17H117.357C116.224 232.17 115.301 233.101 115.301 234.244C115.301 235.388 116.224 236.318 117.357 236.318H136.877L137.027 236.311C138.086 236.224 138.914 235.316 138.914 234.244V200.475L142.603 200.476V234.244C142.603 235.388 143.526 236.318 144.66 236.318H164.16C165.294 236.318 166.217 235.388 166.217 234.244C166.217 233.101 165.294 232.17 164.16 232.17H146.715V200.026H181.359V228.801C181.359 233.332 184.874 236.986 189.362 237.117L191.838 237.195H248.003C252.233 237.195 255.675 233.924 255.675 229.902V148.979C255.675 144.957 252.233 141.686 248.003 141.686V141.686ZM251.733 36.1072C252.254 35.9332 252.812 35.9712 253.303 36.2192C254.317 36.7322 254.728 37.9802 254.222 39.0012L245.3 57.0002C244.949 57.7082 244.244 58.1482 243.46 58.1482C243.144 58.1482 242.836 58.0742 242.544 57.9312C241.528 57.4152 241.116 56.1672 241.623 55.1472L250.545 37.1482C250.791 36.6522 251.212 36.2822 251.733 36.1072ZM234.012 38.2347C234.447 38.5767 234.726 39.0667 234.794 39.6177L236.579 54.0147C236.719 55.1497 235.919 56.1877 234.794 56.3307C234.705 56.3417 234.621 56.3467 234.537 56.3467C233.503 56.3467 232.627 55.5657 232.499 54.5307L230.715 40.1337C230.646 39.5827 230.795 39.0387 231.132 38.6007C231.469 38.1637 231.955 37.8857 232.501 37.8167C233.044 37.7447 233.577 37.8967 234.012 38.2347ZM264.835 53.1745C264.543 52.7035 264.088 52.3765 263.554 52.2525C263.019 52.1285 262.468 52.2215 262.002 52.5155L247.726 61.5155C247.26 61.8085 246.936 62.2665 246.812 62.8065C246.688 63.3465 246.782 63.9035 247.073 64.3715C247.451 64.9825 248.103 65.3465 248.818 65.3465C249.2 65.3465 249.575 65.2375 249.905 65.0315L264.182 56.0315C265.142 55.4245 265.435 54.1435 264.835 53.1745ZM51.8601 234.295L37.5852 232.495C37.0408 232.426 36.555 232.146 36.217 231.708C35.8789 231.269 35.7311 230.726 35.7996 230.18C35.9413 229.045 36.9883 228.237 38.0958 228.38L52.3697 230.179C53.3968 230.308 54.1712 231.192 54.1712 232.234C54.1712 232.321 54.1672 232.41 54.1553 232.498C54.0254 233.542 53.1381 234.31 52.1159 234.31C52.0316 234.31 51.9464 234.306 51.8601 234.295ZM62.1308 244.878C61.6649 244.583 61.1116 244.489 60.5782 244.615C60.0428 244.74 59.5888 245.067 59.2983 245.537L50.3752 259.936C49.7734 260.904 50.0668 262.186 51.0276 262.792C51.3656 263.005 51.7414 263.107 52.1132 263.107C52.7993 263.107 53.4715 262.762 53.8611 262.133L62.7852 247.733C62.9884 247.402 63.0965 247.024 63.0965 246.637C63.0965 245.917 62.7346 245.259 62.1308 244.878ZM55.7399 240.307C55.8857 240.605 55.958 240.916 55.958 241.235C55.958 242.026 55.5228 242.737 54.8208 243.09L36.9757 252.089C36.6862 252.236 36.3729 252.309 36.0586 252.309C35.8395 252.309 35.6194 252.274 35.4062 252.203C34.8857 252.027 34.4633 251.658 34.2174 251.163C33.9716 250.667 33.9319 250.104 34.1054 249.579C34.2799 249.053 34.6458 248.629 35.1375 248.381L52.9827 239.381C53.995 238.87 55.2323 239.288 55.7399 240.307ZM81.315 230.705H84.7822C85.9164 230.705 86.8374 229.775 86.8374 228.632C86.8374 227.488 85.9164 226.558 84.7822 226.558H81.315C80.1808 226.558 79.2598 227.488 79.2598 228.632C79.2598 229.775 80.1808 230.705 81.315 230.705M214.841 230.276H220.042C221.176 230.276 222.098 229.345 222.098 228.202C222.098 227.058 221.176 226.129 220.042 226.129H214.841C213.707 226.129 212.786 227.058 212.786 228.202C212.786 229.345 213.707 230.276 214.841 230.276" fill="#164194"/>
</svg>
